<svg xmlns="http://www.w3.org/2000/svg" viewBox="0 0 63.95 56.39"><defs><style>.cls-1{fill:#1e9afc;}</style></defs><title>bot-avatar</title><g id="Capa_2" data-name="Capa 2"><g id="Capa_1-2" data-name="Capa 1"><path class="cls-1" d="M55.56,21.76a8.59,8.59,0,0,0-2.39.3h0a26.69,26.69,0,0,0-19.35-8.37,28.43,28.43,0,0,0-9.62,1.51,24.72,24.72,0,0,0-10.43,6.76l.13-8.85a2.15,2.15,0,0,1-2.23.19,2.18,2.18,0,0,0,2.23-.19,2.15,2.15,0,0,0,.91-1.72,2.18,2.18,0,0,0-2.17-2.2,2.25,2.25,0,0,0-.76.12,2.15,2.15,0,0,0-.45,3.88h0l-.16,10.31v.4l1.8,0h0l.21.07-.42,1.14.77.49-.77-.49h0L13.29,24l-.21-.07-1.8,0v-.4a9.89,9.89,0,0,0-1.24-.1,10,10,0,0,0-3.39.54,9.71,9.71,0,0,0,3.1,18.93h.64l.44,0-.44,0c3.7,8,12.73,13.39,22.78,13.54a28.68,28.68,0,0,0,9.72-1.51c8-2.75,14-9,15.23-16.79a8.66,8.66,0,0,1-.85.23h0a8.65,8.65,0,0,0,.85-.23l.14,0a8.34,8.34,0,0,0,5.69-7.77A8.46,8.46,0,0,0,55.56,21.76Zm-2.22,2.8-.11,0-.45-1.13h0l.45,1.13Zm-.51-2.39-.18.05-.11,0,.11,0Zm-.51.18.34.84-.34-.84ZM2.47,33a7.32,7.32,0,0,1,5-6.79A7.5,7.5,0,0,1,11,25.9a7.63,7.63,0,0,1,1.47.37l.41-1.1-.41,1.1A7.6,7.6,0,0,0,11,25.9a18.92,18.92,0,0,0-2.33,8.76,18.62,18.62,0,0,0,.82,5.76h0A7.37,7.37,0,0,1,2.47,33Zm7.82,7.4.23,0Zm1.07,2.33-.18-1.2h0L11,40.34h0l.18,1.2h0l.18,1.2Zm-.06-1.25h0l.1,0-.1,0Zm30.6,11.1A25.62,25.62,0,0,1,33.21,54c-9.43-.14-17.82-5.31-20.89-12.86h0a16.24,16.24,0,0,1-1.21-6.4,16.67,16.67,0,0,1,2.8-8.91h0A21.47,21.47,0,0,1,25,17.48a26,26,0,0,1,8.78-1.37c7.16.11,13.9,3.15,18,8.12h0a16.91,16.91,0,0,1,4.08,11.14A15.4,15.4,0,0,1,55.78,37l1.17.14L55.78,37C55,44.12,49.37,50,41.88,52.6ZM57,37.12h0l0-.07,0,.07.12.55Zm1.36-1.78h0a19,19,0,0,0-3.48-11.14,6.28,6.28,0,0,1,.64,0,6,6,0,0,1,6,6A5.9,5.9,0,0,1,58.36,35.34Z"/><path class="cls-1" d="M36.11,31.55a19.16,19.16,0,0,0-6.47,1c-4.75,1.62-8.05,5.07-8.11,9.1A8,8,0,0,0,21.64,43h0c.86,5.12,6.94,9.06,14.15,9.16a19.26,19.26,0,0,0,6.49-1A13,13,0,0,0,49,46.43h0a7.92,7.92,0,0,0,1.41-4.35C50.47,36.4,44.07,31.67,36.11,31.55Zm-5.75,3.3A17,17,0,0,1,36.08,34c6.16.09,11.21,3.26,11.78,7.23h0a7.27,7.27,0,0,1-3.64,2.31,22.53,22.53,0,0,1-9.36.83c-4.16-.41-8-1.74-10.33-3.54a1.25,1.25,0,0,0-.4-.21h0C24.69,38.08,27.08,36,30.36,34.85ZM24,40.58a1.24,1.24,0,0,0-.49,0A1.23,1.23,0,0,1,24,40.58ZM22.79,41a1.22,1.22,0,0,1,.21-.19,1.22,1.22,0,0,0-.2.19,1.19,1.19,0,0,0,0,1.46A1.18,1.18,0,0,1,22.79,41Zm27.27,1.31A7.65,7.65,0,0,1,47,45l-.07.11h0a10.46,10.46,0,0,1-5.39,3.79,16.85,16.85,0,0,1-5.68.87c-5.51-.08-10.2-2.64-11.48-6.11a14.14,14.14,0,0,1-1.27-.86l-.21,0,.21,0,0,0,0,0a13.94,13.94,0,0,0,1.27.86,25,25,0,0,0,10.25,3.12q1.29.13,2.54.15A23.69,23.69,0,0,0,45,45.8,14.08,14.08,0,0,0,47,45a7.64,7.64,0,0,0,3.09-2.66,1.2,1.2,0,0,0-.42-1.66h0A1.2,1.2,0,0,1,50.07,42.32Zm-.68-1.78.15.07Zm-.1,0-.16,0Zm-.68,0a1.26,1.26,0,0,1,.52-.06,1.26,1.26,0,0,0-.52.06,1.21,1.21,0,0,0-.65.52l-.06.09.06-.09A1.21,1.21,0,0,1,48.6,40.55Z"/><path class="cls-1" d="M29.2,31a3.29,3.29,0,0,0,1.25-.17,3.18,3.18,0,0,0-.88-6.2,3.29,3.29,0,0,0-1.26.17A3.18,3.18,0,0,0,29.2,31Zm.26-4.89A1.47,1.47,0,0,1,30,26a1.42,1.42,0,0,1,.39,2.77,1.47,1.47,0,0,1-.56.08,1.42,1.42,0,0,1-.39-2.77Z"/><path class="cls-1" d="M44.75,31.86A3.27,3.27,0,0,0,46,31.69a3.18,3.18,0,0,0-.88-6.19,3.28,3.28,0,0,0-1.25.17,3.18,3.18,0,0,0,.88,6.2ZM45,27a1.47,1.47,0,0,1,.56-.08A1.42,1.42,0,0,1,46,29.65a1.45,1.45,0,0,1-.56.08A1.42,1.42,0,0,1,45,27Z"/><path class="cls-1" d="M33.61,38a1.24,1.24,0,0,0,.88,0,1.23,1.23,0,0,0,.73-.68l.52-1.22a1.21,1.21,0,0,0-.66-1.59,1.24,1.24,0,0,0-1.62.65l-.52,1.22A1.21,1.21,0,0,0,33.61,38Z"/><path class="cls-1" d="M38.1,37.76a1.24,1.24,0,0,0,1.56.71h0a1.21,1.21,0,0,0,.71-1.57l-.48-1.23a1.24,1.24,0,0,0-1.56-.71h0a1.21,1.21,0,0,0-.71,1.57Z"/><path class="cls-1" d="M43.48,2.32a31,31,0,0,1,3,1.52,30.43,30.43,0,0,1,3.1,2.07,28.34,28.34,0,0,1,8.94,11.31,1.24,1.24,0,0,0,1.12.74A1.25,1.25,0,0,0,60,17.9l.08,0a1.21,1.21,0,0,0,.66-1.59A30.78,30.78,0,0,0,51,4,32.71,32.71,0,0,0,47.7,1.75,34.4,34.4,0,0,0,44.5.11a1.25,1.25,0,0,0-.92,0,1.22,1.22,0,0,0-.72.64A1.2,1.2,0,0,0,43.48,2.32Z"/></g></g></svg>
