<svg xmlns="http://www.w3.org/2000/svg" viewBox="0 0 435.68 490.26"><defs><style>.cls-1{fill:#fff;}</style></defs><title>fondo-booking</title><g id="Capa_2" data-name="Capa 2"><g id="Capa_1-2" data-name="Capa 1"><path class="cls-1" d="M277.61,0a281.91,281.91,0,0,0-90.38,14.8c-59,20-109.77,59.25-143.18,110.66l.62.27,2.51,1.13c33-50.57,83.09-89.22,141.18-108.9A278.41,278.41,0,0,1,277.65,3.33,282.34,282.34,0,0,1,434.68,51V47A285.81,285.81,0,0,0,277.61,0"/><path class="cls-1" d="M435.18,47.33v4l.5.34v-4l-.5-.33"/><path class="cls-1" d="M434.68,47v4l.5.34v-4l-.5-.33"/><path class="cls-1" d="M109.07,490.26h0Z"/><path class="cls-1" d="M34.77,140.85A274.84,274.84,0,0,0,16,182C-24.3,294.35,14,416.4,102.52,489.26h5.29C18.11,417.61-21.1,295.47,19.22,183.16a271.49,271.49,0,0,1,18.57-40.79l-.53-.22a24.08,24.08,0,0,1-2.49-1.3"/><path class="cls-1" d="M108.44,489.76h-5.31l.61.5h5.33l-.63-.5"/><path class="cls-1" d="M107.81,489.26h-5.29l.61.5h5.31l-.63-.5"/><path class="cls-1" d="M81.11,228.88a3.66,3.66,0,0,0-1.2,7.13,3.78,3.78,0,0,0,1.28.22,3.66,3.66,0,0,0,1.2-7.13,3.78,3.78,0,0,0-1.28-.22"/><path class="cls-1" d="M134.31,371a3.66,3.66,0,0,0-1.2,7.13,3.78,3.78,0,0,0,1.28.22,3.66,3.66,0,0,0,1.2-7.13,3.78,3.78,0,0,0-1.28-.22"/><path class="cls-1" d="M89.84,369.45a3.66,3.66,0,0,0-1.2,7.13,3.78,3.78,0,0,0,1.28.22,3.66,3.66,0,0,0,1.2-7.13,3.78,3.78,0,0,0-1.28-.22"/><path class="cls-1" d="M65.52,295.09a3.66,3.66,0,0,0-1.2,7.13,3.78,3.78,0,0,0,1.28.22,3.66,3.66,0,0,0,1.2-7.13,3.78,3.78,0,0,0-1.28-.22"/><path class="cls-1" d="M53.5,378.77a3.66,3.66,0,0,0-1.2,7.13,3.8,3.8,0,0,0,1.28.22,3.66,3.66,0,0,0,1.2-7.13,3.78,3.78,0,0,0-1.28-.22"/><path class="cls-1" d="M139.33,450.82a3.66,3.66,0,0,0-1.2,7.13,3.78,3.78,0,0,0,1.28.22,3.66,3.66,0,0,0,1.2-7.13,3.78,3.78,0,0,0-1.28-.22"/><path class="cls-1" d="M167.2,417.38a3.66,3.66,0,0,0-1.2,7.13,3.78,3.78,0,0,0,1.28.22,3.66,3.66,0,0,0,1.2-7.13,3.78,3.78,0,0,0-1.28-.22"/><path class="cls-1" d="M418,462.08a3.66,3.66,0,0,0-1.2,7.13,3.78,3.78,0,0,0,1.28.22,3.66,3.66,0,0,0,1.2-7.13,3.78,3.78,0,0,0-1.28-.22"/><polyline class="cls-1" points="412.35 490.26 409.82 490.26 409.82 490.26 412.36 490.26 412.35 490.26"/><path class="cls-1" d="M411.08,490a3.73,3.73,0,0,0-1.27.22h2.54a3.77,3.77,0,0,0-1.27-.22"/><path class="cls-1" d="M340.5,424.13a3.66,3.66,0,0,0-1.2,7.13,3.78,3.78,0,0,0,1.28.22,3.66,3.66,0,0,0,1.2-7.13,3.78,3.78,0,0,0-1.28-.22"/><path class="cls-1" d="M332.46,384a3.66,3.66,0,0,0-1.2,7.13,3.78,3.78,0,0,0,1.28.22,3.66,3.66,0,0,0,1.2-7.13,3.78,3.78,0,0,0-1.28-.22"/><path class="cls-1" d="M315.51,420.8a3.66,3.66,0,0,0-1.2,7.13,3.78,3.78,0,0,0,1.28.22,3.66,3.66,0,0,0,1.2-7.13,3.78,3.78,0,0,0-1.28-.22"/><path class="cls-1" d="M178.17,274.14a3.66,3.66,0,0,0-1.2,7.13,3.8,3.8,0,0,0,1.28.22,3.66,3.66,0,0,0,1.2-7.13,3.78,3.78,0,0,0-1.28-.22"/><path class="cls-1" d="M176.78,382.39a3.66,3.66,0,0,0-1.2,7.13,3.78,3.78,0,0,0,1.28.22,3.66,3.66,0,0,0,1.2-7.13,3.78,3.78,0,0,0-1.28-.22"/><path class="cls-1" d="M240.42,213.61a3.66,3.66,0,0,0-1.2,7.13,3.78,3.78,0,0,0,1.28.22,3.66,3.66,0,0,0,1.2-7.13,3.78,3.78,0,0,0-1.28-.22"/><path class="cls-1" d="M257.24,197.14a3.66,3.66,0,0,0-1.2,7.13,3.8,3.8,0,0,0,1.28.22,3.66,3.66,0,0,0,1.2-7.13,3.78,3.78,0,0,0-1.28-.22"/><path class="cls-1" d="M196.9,212.95a3.66,3.66,0,0,0-1.2,7.13,3.78,3.78,0,0,0,1.28.22,3.66,3.66,0,0,0,1.2-7.13,3.78,3.78,0,0,0-1.28-.22"/><path class="cls-1" d="M132.82,223.23a3.66,3.66,0,0,0-1.2,7.13,3.78,3.78,0,0,0,1.28.22,3.66,3.66,0,0,0,1.2-7.13,3.78,3.78,0,0,0-1.28-.22"/><path class="cls-1" d="M130.47,106.24a3.66,3.66,0,0,0-1.2,7.13,3.8,3.8,0,0,0,1.28.22,3.66,3.66,0,0,0,1.2-7.13,3.78,3.78,0,0,0-1.28-.22"/><path class="cls-1" d="M288.94,74.58a3.66,3.66,0,0,0-1.2,7.13,3.78,3.78,0,0,0,1.28.22,3.66,3.66,0,0,0,1.2-7.13,3.78,3.78,0,0,0-1.28-.22"/><path class="cls-1" d="M218.17,20a3.66,3.66,0,0,0-1.2,7.13,3.8,3.8,0,0,0,1.28.22,3.66,3.66,0,0,0,1.2-7.13,3.78,3.78,0,0,0-1.28-.22"/><path class="cls-1" d="M198.64,36.29a3.66,3.66,0,0,0-1.2,7.13,3.78,3.78,0,0,0,1.28.22,3.66,3.66,0,0,0,1.2-7.13,3.78,3.78,0,0,0-1.28-.22"/><path class="cls-1" d="M163,39.27a3.66,3.66,0,0,0-1.2,7.13,3.78,3.78,0,0,0,1.28.22,3.66,3.66,0,0,0,1.2-7.13,3.78,3.78,0,0,0-1.28-.22"/><path class="cls-1" d="M349,18.2a3.66,3.66,0,0,0-1.2,7.13,3.78,3.78,0,0,0,1.28.22,3.66,3.66,0,0,0,1.2-7.13A3.78,3.78,0,0,0,349,18.2"/><path class="cls-1" d="M409.33,71a3.66,3.66,0,0,0-1.2,7.13,3.79,3.79,0,0,0,1.28.22,3.66,3.66,0,0,0,1.2-7.13,3.78,3.78,0,0,0-1.28-.22"/><path class="cls-1" d="M394.26,158.09a3.66,3.66,0,0,0-1.2,7.13,3.78,3.78,0,0,0,1.28.22,3.66,3.66,0,0,0,1.2-7.13,3.78,3.78,0,0,0-1.28-.22"/><path class="cls-1" d="M416.43,285.58a3.66,3.66,0,0,0-1.2,7.13,3.78,3.78,0,0,0,1.28.22,3.66,3.66,0,0,0,1.2-7.13,3.78,3.78,0,0,0-1.28-.22"/><path class="cls-1" d="M374.45,32.76a3.66,3.66,0,0,0-1.2,7.13,3.78,3.78,0,0,0,1.28.22,3.66,3.66,0,0,0,1.2-7.13,3.78,3.78,0,0,0-1.28-.22"/><path class="cls-1" d="M381.37,303.52a3.66,3.66,0,0,0-1.2,7.13,3.78,3.78,0,0,0,1.28.22,3.66,3.66,0,0,0,1.2-7.13,3.78,3.78,0,0,0-1.28-.22"/><path class="cls-1" d="M321.37,164.87a3.66,3.66,0,0,0-1.2,7.13,3.78,3.78,0,0,0,1.28.22,3.66,3.66,0,0,0,1.2-7.13,3.78,3.78,0,0,0-1.28-.22"/><path class="cls-1" d="M153.28,165.44a3.36,3.36,0,0,0-1.1,6.55,3.45,3.45,0,0,0,1.17.2,3.36,3.36,0,0,0,1.11-6.55,3.46,3.46,0,0,0-1.17-.21"/><path class="cls-1" d="M361.64,321.25a3.36,3.36,0,0,0-1.11,6.55,3.47,3.47,0,0,0,1.17.21,3.36,3.36,0,0,0,1.11-6.55,3.46,3.46,0,0,0-1.17-.21"/><path class="cls-1" d="M393.88,212.24a3.36,3.36,0,0,0-1.1,6.55,3.48,3.48,0,0,0,1.17.2,3.36,3.36,0,0,0,1.11-6.54,3.46,3.46,0,0,0-1.17-.21"/><path class="cls-1" d="M410.67,135.63a3.36,3.36,0,0,0-1.1,6.55,3.48,3.48,0,0,0,1.17.2,3.36,3.36,0,0,0,1.11-6.54,3.46,3.46,0,0,0-1.17-.21"/><path class="cls-1" d="M398,34a3.36,3.36,0,0,0-1.1,6.55,3.45,3.45,0,0,0,1.17.2,3.36,3.36,0,0,0,1.11-6.55A3.46,3.46,0,0,0,398,34"/><path class="cls-1" d="M305.23,97a3.36,3.36,0,0,0-1.11,6.55,3.46,3.46,0,0,0,1.17.2,3.36,3.36,0,0,0,1.11-6.54,3.46,3.46,0,0,0-1.17-.21"/><path class="cls-1" d="M252.67,74.66a3.36,3.36,0,0,0-1.1,6.55,3.48,3.48,0,0,0,1.17.2,3.36,3.36,0,0,0,1.11-6.54,3.47,3.47,0,0,0-1.17-.21"/><path class="cls-1" d="M149.24,92.49a3.36,3.36,0,0,0-1.1,6.55,3.45,3.45,0,0,0,1.17.2,3.36,3.36,0,0,0,1.11-6.55,3.46,3.46,0,0,0-1.17-.21"/><path class="cls-1" d="M127.64,133.52a3.36,3.36,0,0,0-1.1,6.55,3.45,3.45,0,0,0,1.17.2,3.36,3.36,0,0,0,1.11-6.54,3.47,3.47,0,0,0-1.17-.21"/><path class="cls-1" d="M68.38,119.25a3.36,3.36,0,0,0-1.1,6.55,3.48,3.48,0,0,0,1.17.2,3.36,3.36,0,0,0,1.11-6.54,3.47,3.47,0,0,0-1.17-.21"/><path class="cls-1" d="M20.32,244.73a3.36,3.36,0,0,0-1.1,6.55,3.48,3.48,0,0,0,1.17.2,3.36,3.36,0,0,0,1.11-6.54,3.47,3.47,0,0,0-1.17-.21"/><path class="cls-1" d="M9.85,292.27a3.36,3.36,0,0,0-1.11,6.55,3.47,3.47,0,0,0,1.17.2,3.36,3.36,0,0,0,1.1-6.54,3.46,3.46,0,0,0-1.17-.21"/><path class="cls-1" d="M20.53,268.26a3.36,3.36,0,0,0-1.1,6.55,3.45,3.45,0,0,0,1.17.21,3.36,3.36,0,0,0,1.11-6.55,3.46,3.46,0,0,0-1.17-.21"/><path class="cls-1" d="M28.32,208.49A3.36,3.36,0,0,0,27.21,215a3.47,3.47,0,0,0,1.17.2,3.36,3.36,0,0,0,1.11-6.54,3.46,3.46,0,0,0-1.17-.21"/><path class="cls-1" d="M30.1,347.05A3.36,3.36,0,0,0,29,353.6a3.45,3.45,0,0,0,1.17.21,3.36,3.36,0,0,0,1.11-6.54,3.47,3.47,0,0,0-1.17-.21"/><path class="cls-1" d="M51.2,306.45A3.36,3.36,0,0,0,50.1,313a3.47,3.47,0,0,0,1.17.21,3.36,3.36,0,0,0,1.11-6.55,3.46,3.46,0,0,0-1.17-.21"/><path class="cls-1" d="M137.56,339.76a3.36,3.36,0,0,0-1.11,6.55,3.45,3.45,0,0,0,1.17.21,3.36,3.36,0,0,0,1.1-6.55,3.46,3.46,0,0,0-1.17-.21"/><path class="cls-1" d="M101.72,456.87a3.36,3.36,0,0,0-1.1,6.55,3.45,3.45,0,0,0,1.17.21,3.36,3.36,0,0,0,1.11-6.55,3.46,3.46,0,0,0-1.17-.21"/><path class="cls-1" d="M59.35,405.42a3.36,3.36,0,0,0-1.1,6.55,3.46,3.46,0,0,0,1.17.21,3.36,3.36,0,0,0,1.11-6.55,3.47,3.47,0,0,0-1.17-.21"/><path class="cls-1" d="M156.21,399.7a3.36,3.36,0,0,0-1.1,6.55,3.48,3.48,0,0,0,1.17.2,3.36,3.36,0,0,0,1.11-6.54,3.46,3.46,0,0,0-1.17-.21"/><path class="cls-1" d="M198.1,425.35a3.36,3.36,0,0,0-1.1,6.55,3.48,3.48,0,0,0,1.17.2,3.36,3.36,0,0,0,1.11-6.54,3.46,3.46,0,0,0-1.17-.21"/><path class="cls-1" d="M315.27,146.76a3.36,3.36,0,0,0-1.11,6.55,3.44,3.44,0,0,0,1.17.21,3.36,3.36,0,0,0,1.1-6.55,3.47,3.47,0,0,0-1.17-.2"/><path class="cls-1" d="M145.05,436a3,3,0,0,0-1,5.91,3.12,3.12,0,0,0,1.06.18,3,3,0,0,0,1-5.9,3.15,3.15,0,0,0-1.06-.19"/><path class="cls-1" d="M304.68,481.54a3.36,3.36,0,0,0-1.11,6.55,3.47,3.47,0,0,0,1.17.2,3.36,3.36,0,0,0,1.1-6.54,3.46,3.46,0,0,0-1.17-.21"/><path class="cls-1" d="M396.11,369.92a3.36,3.36,0,0,0-1.11,6.54,3.46,3.46,0,0,0,1.17.2,3.36,3.36,0,0,0,1.1-6.54,3.47,3.47,0,0,0-1.17-.2"/><path class="cls-1" d="M229,476.32a3,3,0,0,0-1,5.91,3.11,3.11,0,0,0,1.06.18,3,3,0,0,0,1-5.91,3.14,3.14,0,0,0-1.06-.19"/><path class="cls-1" d="M251.19,439.66a3.36,3.36,0,0,0-1.11,6.55,3.46,3.46,0,0,0,1.17.21,3.36,3.36,0,0,0,1.1-6.55,3.45,3.45,0,0,0-1.17-.21"/><path class="cls-1" d="M174.59,297.36a3.36,3.36,0,0,0-1.11,6.55,3.45,3.45,0,0,0,1.17.2,3.36,3.36,0,0,0,1.11-6.55,3.47,3.47,0,0,0-1.17-.2"/><path class="cls-1" d="M88.45,266.86a3.36,3.36,0,0,0-1.1,6.55,3.45,3.45,0,0,0,1.17.21,3.36,3.36,0,0,0,1.11-6.55,3.47,3.47,0,0,0-1.17-.21"/><path class="cls-1" d="M212.44,170.11a3.36,3.36,0,0,0-1.1,6.55,3.45,3.45,0,0,0,1.17.2,3.36,3.36,0,0,0,1.11-6.55,3.47,3.47,0,0,0-1.17-.21"/><path class="cls-1" d="M399.16,183.72a3.36,3.36,0,0,0-1.1,6.55,3.48,3.48,0,0,0,1.17.2,3.36,3.36,0,0,0,1.11-6.54,3.47,3.47,0,0,0-1.17-.21"/><path class="cls-1" d="M434.3,81.34a3.36,3.36,0,0,0-1.11,6.55,3.47,3.47,0,0,0,1.17.2h.32V81.36l-.38,0"/><path class="cls-1" d="M435.18,81.45V88a3.48,3.48,0,0,0,.5-.16v-6.2l-.21-.08-.29-.09"/><path class="cls-1" d="M434.68,81.36v6.72a3.51,3.51,0,0,0,.5-.08V81.46a3.49,3.49,0,0,0-.5-.09"/><path class="cls-1" d="M224,235.42a3.36,3.36,0,0,0-1.11,6.55,3.46,3.46,0,0,0,1.17.2,3.36,3.36,0,0,0,1.11-6.54,3.46,3.46,0,0,0-1.17-.21"/><path class="cls-1" d="M153,181a3.36,3.36,0,0,0-1.11,6.55,3.47,3.47,0,0,0,1.17.2,3.36,3.36,0,0,0,1.11-6.54A3.46,3.46,0,0,0,153,181"/><path class="cls-1" d="M353.32,344.12a3.36,3.36,0,0,0-1.11,6.55,3.47,3.47,0,0,0,1.17.2,3.36,3.36,0,0,0,1.11-6.54,3.45,3.45,0,0,0-1.17-.21"/><path class="cls-1" d="M398.42,257.92a3.36,3.36,0,0,0-1.11,6.54,3.47,3.47,0,0,0,1.17.21,3.36,3.36,0,0,0,1.1-6.54,3.47,3.47,0,0,0-1.17-.2"/><path class="cls-1" d="M401.74,420.65a3.36,3.36,0,0,0-1.11,6.54,3.46,3.46,0,0,0,1.17.2,3.36,3.36,0,0,0,1.11-6.54,3.46,3.46,0,0,0-1.17-.21"/><path class="cls-1" d="M124.06,472.84a3.36,3.36,0,0,0-1.11,6.55,3.47,3.47,0,0,0,1.17.2,3.36,3.36,0,0,0,1.11-6.55,3.46,3.46,0,0,0-1.17-.21"/><path class="cls-1" d="M205.52,113a3.36,3.36,0,0,0-1.1,6.55,3.45,3.45,0,0,0,1.17.2,3.36,3.36,0,0,0,1.11-6.55,3.46,3.46,0,0,0-1.17-.21"/><path class="cls-1" d="M213.63,269.84a3.36,3.36,0,0,0-1.1,6.55,3.45,3.45,0,0,0,1.17.21A3.36,3.36,0,0,0,214.8,270a3.46,3.46,0,0,0-1.17-.21"/><path class="cls-1" d="M152.56,490.26h0Zm64.73,0h0"/><path class="cls-1" d="M182.9,432.92a38.42,38.42,0,0,0-36.29,25.22,38,38,0,0,0,2.52,31.12h2.81a35.59,35.59,0,0,1-3-30.29,36,36,0,0,1,34-23.62,36.87,36.87,0,0,1,12.48,2.18c18.93,6.8,28.9,27.48,22.21,46.1a35.42,35.42,0,0,1-2.6,5.63h2.81a37.84,37.84,0,0,0,2.11-4.8c7.14-19.88-3.5-42-23.72-49.22a39.35,39.35,0,0,0-13.32-2.33"/><path class="cls-1" d="M152.24,489.76h-2.83l.29.5h2.86l-.31-.5m65.32,0h-2.84l-.3.5h2.86l.28-.5"/><path class="cls-1" d="M151.94,489.26h-2.81l.28.5h2.84l-.3-.5m65.89,0H215l-.29.5h2.84l.27-.5"/><path class="cls-1" d="M193.05,442.82a1.21,1.21,0,0,0-.4,2.36,28.76,28.76,0,0,1,5.78,2.84l.25.13a1.24,1.24,0,0,0,1.45-.48,1.22,1.22,0,0,0-.37-1.69,31.32,31.32,0,0,0-6.29-3.08,1.26,1.26,0,0,0-.42-.07"/><path class="cls-1" d="M202.48,448.3a1.21,1.21,0,0,0-.79,2.13,27.62,27.62,0,0,1,8.15,30.41,1.22,1.22,0,0,0,.75,1.56,1.26,1.26,0,0,0,.42.07,1.21,1.21,0,0,0,1.15-.8,30,30,0,0,0-8.86-33.06,1.27,1.27,0,0,0-.82-.3"/><path class="cls-1" d="M244.4,490.26h0Zm50.39,0h0"/><path class="cls-1" d="M267.86,476.5a32.2,32.2,0,0,0-25.81,12.76h3.16a29.81,29.81,0,0,1,22.67-10.32q1.34,0,2.69.12a30.49,30.49,0,0,1,20.29,10.2H294a33,33,0,0,0-23.27-12.63q-1.46-.13-2.91-.13"/><path class="cls-1" d="M244.8,489.76h-3.11l-.35.5h3.06l.4-.5m49.62,0h-3.11l.41.5h3.07l-.36-.5"/><path class="cls-1" d="M245.22,489.26h-3.16l-.37.5h3.11l.42-.5m48.82,0h-3.17l.43.5h3.11l-.38-.5"/><path class="cls-1" d="M267.86,480.84a29.26,29.26,0,0,0-3,.15,1.21,1.21,0,0,0-1.08,1.34,1.25,1.25,0,0,0,.82,1,1.27,1.27,0,0,0,.43.07h.12a25.79,25.79,0,0,1,2.7-.14q1.18,0,2.36.1h.11a1.21,1.21,0,0,0,1.21-1.11,1.25,1.25,0,0,0-1.13-1.32c-.86-.08-1.72-.11-2.58-.11"/><path class="cls-1" d="M259.63,482.11a1.21,1.21,0,0,0-.38.06,24.67,24.67,0,0,0-9.24,5.35,1.2,1.2,0,0,0,0,1.72l0,0h1.75a22.26,22.26,0,0,1,8.29-4.78,1.2,1.2,0,0,0,.78-1.53,1.25,1.25,0,0,0-1.18-.84"/><path class="cls-1" d="M251.75,489.26H250a1.2,1.2,0,0,0,.46.29,1.24,1.24,0,0,0,1.26-.26l0,0"/><path class="cls-1" d="M121.15,338.2a39.8,39.8,0,0,1-13.45-2.36c-19.29-6.93-29.79-27-23.41-44.77,4.9-13.65,18.36-22,33.09-22a39.79,39.79,0,0,1,13.45,2.36c19.29,6.93,29.79,27,23.42,44.77-4.9,13.65-18.37,22-33.09,22m-3.79-71.58c-15.73,0-30.14,9-35.39,23.62a34.41,34.41,0,0,0-1,19.71h.25a1.24,1.24,0,0,1,1.25,1.16,1.2,1.2,0,0,1-.85,1.22,40.61,40.61,0,0,0,25.3,25.81,42.29,42.29,0,0,0,13.69,2.51q.35-.78.67-1.58l2.3.9-.1.24,1.49-.54q.15.39.29.79c14.11-1.4,26.55-10,31.35-23.42,6.83-19-4.35-40.5-24.91-47.89a42.29,42.29,0,0,0-14.29-2.51"/><path class="cls-1" d="M71,328.69q-.5.64-1,1.28a1.23,1.23,0,0,1,.88,1.08,1.21,1.21,0,0,1-1.13,1.3c-.39,0-.83,0-1.32,0a24.32,24.32,0,0,0-1.87,4l1.15-.29.57,2.37a23.85,23.85,0,0,0-2.49.71,15.19,15.19,0,0,0,1.23,9.76,17.71,17.71,0,0,0,3.77,5q.75-.09,1.54-.22h.19a1.26,1.26,0,0,1,1,.55,1.2,1.2,0,0,1-.33,1.68,27.38,27.38,0,0,0,6.55,3.36,35.11,35.11,0,0,0,11.2,2q1-.49,2-1a1.24,1.24,0,0,1,1.84.92,34.6,34.6,0,0,0,13.1-3.69q-.2-.57-.39-1.2l2.36-.66q.09.32.2.63a33,33,0,0,0,12.82-14.92q-.15-.44-.32-.88l.81-.3.1-.24-2.3-.9q-.32.81-.67,1.58c-5,11.08-15.27,17.87-27.78,18.26l-1.08,0c-10.08,0-19.21-4.43-22.42-11-2.7-5.5-1.21-11.88,4.29-18.5q-1.39-.34-2.58-.72"/><path class="cls-1" d="M124.93,339.64l-1.49.54-.81.3c.11.29.22.59.32.88,2.68,7.85.73,15-2.49,18.62a6.42,6.42,0,0,1-4.59,2.51,3.81,3.81,0,0,1-.83-.09c-2.08-.45-3.77-2.62-4.91-6.12q-.1-.31-.2-.63l-2.36.66c.12.42.25.82.39,1.2,1.59,4.53,3.88,6.35,5.79,7a6.58,6.58,0,0,0,.77.22,6.3,6.3,0,0,0,1.39.15,8.77,8.77,0,0,0,6.42-3.34c3.71-4.21,6-12.32,2.89-21.16q-.14-.39-.29-.79"/><path class="cls-1" d="M81.18,309.93h-.25c-11.15.54-19.66,4.91-19.82,10.2-.06,2.14,1.21,5.47,8.43,8.06q.69.25,1.45.48,1.2.37,2.59.72A74.71,74.71,0,0,0,82.36,331h.15a1.22,1.22,0,0,0,.12-2.42c-14.18-1.75-19.14-5.44-19.05-8.31.1-3.43,7.23-7.41,17.69-7.88a1.25,1.25,0,0,0,.31-.05,1.2,1.2,0,0,0,.85-1.22,1.24,1.24,0,0,0-1.25-1.16"/><path class="cls-1" d="M67.76,336.11l-1.15.29q-1.25.34-2.37.77a1.24,1.24,0,0,1,1.09,1.13,1.21,1.21,0,0,1-1.13,1.3c-.4,0-.86,0-1.37,0-.87,0-1.9,0-3.06-.13-4.2,2.94-5.9,6.92-5.21,10.21.5,2.41,2.31,4.69,5.82,6a19.64,19.64,0,0,0,6.63,1q.7,0,1.45,0A21.8,21.8,0,0,1,71.9,354a1.23,1.23,0,0,1,.48-.18q-.79.13-1.54.22a31.62,31.62,0,0,1-3.82.25c-6.54,0-9.52-2.48-10-5-.71-3.42,2.42-7.83,8.88-10.05a24.1,24.1,0,0,1,2.49-.71l-.57-2.37"/><path class="cls-1" d="M72.57,353.75l-.19,0a1.21,1.21,0,0,0-.48.18,21.77,21.77,0,0,0-3.43,2.68c-3.72,3.65-2.73,6.45-2,7.63A7.11,7.11,0,0,0,70.23,367a16.66,16.66,0,0,0,5.58.85c5.09,0,11.63-1.67,18.43-5.47a1.2,1.2,0,0,0,.61-1.2,1.21,1.21,0,0,0-.16-.46,1.25,1.25,0,0,0-1.68-.46q-1,.56-2,1a35.46,35.46,0,0,1-15.31,4.08c-3.64,0-6.23-.93-7.15-2.4-1.09-1.74.71-4.43,4.7-7h0a1.2,1.2,0,0,0,.33-1.68,1.26,1.26,0,0,0-1-.55"/><path class="cls-1" d="M28.47,310.35a4.82,4.82,0,0,0-.78.06,4.66,4.66,0,0,0-3.05,1.89c-3.88,5.43-2.76,9.94-1.13,12.76,2.13,3.69,6.73,6.84,13.69,9.33h0a90.51,90.51,0,0,0,22.57,5.09c1.16.09,2.19.13,3.06.13.51,0,1,0,1.37,0a1.21,1.21,0,0,0,1.13-1.3,1.24,1.24,0,0,0-1.09-1.12H64c-.35,0-.75,0-1.19,0-4.58,0-14.22-1.28-24.79-5.07h0c-6.38-2.29-10.54-5.06-12.37-8.23s-1.51-6.63,1-10.16a2.22,2.22,0,0,1,1.46-.91,2.26,2.26,0,0,1,.37,0,2.28,2.28,0,0,1,1.32.42,2.25,2.25,0,0,1,.93,1.45,2.18,2.18,0,0,1-.37,1.67c-1.93,2.7-1.37,4.36-.79,5.38,4.06,7,28.82,10.69,38.47,10.69h.44c.48,0,.92,0,1.31,0a1.21,1.21,0,0,0,1.13-1.3A1.23,1.23,0,0,0,70,330a1.28,1.28,0,0,0-.36-.05H69.6c-.5,0-1.07.05-1.69.05-9.68,0-33.07-4-36.2-9.45-.22-.38-.59-1,.67-2.78a4.55,4.55,0,0,0,.78-3.48,4.69,4.69,0,0,0-1.94-3,4.78,4.78,0,0,0-2.75-.87"/><path class="cls-1" d="M141.84,307.15l-1.15.42a16.91,16.91,0,0,1,.25,11.86,15.38,15.38,0,0,1-.63,1.49l1.11.53.13-1.21a6.18,6.18,0,0,0,.73,0,6.11,6.11,0,0,0,1-.08,19,19,0,0,0,.31-11.66,6,6,0,0,0-1.43-.17h-.25l-.06-1.22"/><path class="cls-1" d="M97.86,310.74h0l-1.09,0h-.14L96.41,312c-.31-.06-.63-.13-.94-.21.92,8.75,7.71,16.78,17.17,20.18a28.68,28.68,0,0,0,9.68,1.72c8.5,0,16.15-4,19.84-11a8.67,8.67,0,0,1-.88-.06l.13-1.21-1.12-.53c-3.09,6.48-10.28,10.27-18.2,10.27a25.62,25.62,0,0,1-8.65-1.52c-8.87-3.19-15.15-10.79-15.61-18.93"/><path class="cls-1" d="M117.49,290.08a24.72,24.72,0,0,0-12.06,3l-.67,1.86-.62-.22.17.14-.77.94.77,1a21.47,21.47,0,0,1,13.2-4.27,26,26,0,0,1,8.75,1.54c6.74,2.42,12.13,7.47,14.43,13.52l1.15-.42-.06-1.21h.35l.54,0a26.69,26.69,0,0,0-15.6-14.19,28.43,28.43,0,0,0-9.59-1.69"/><path class="cls-1" d="M103.54,295.81l-.77.94a7.6,7.6,0,0,0-1.27-.83,18.92,18.92,0,0,0-5,7.53,18.62,18.62,0,0,0-1.09,5.72l.3.12a7.83,7.83,0,0,0,1.17.31l-.22,1.19h.14l1.09,0h0a16.24,16.24,0,0,1,.93-6.45,16.67,16.67,0,0,1,5.53-7.52l-.77-1"/><path class="cls-1" d="M98.05,292.66a9.71,9.71,0,0,0-3.19,18.92l.61.2c.31.09.63.16.94.22l.22-1.19h0l.22-1.19a7.67,7.67,0,0,1-1.17-.31l-.3-.12a7.29,7.29,0,0,1,2.7-14.08,7.5,7.5,0,0,1,3.43.83,7.63,7.63,0,0,1,1.27.83l.77-.94.77-.94-.17-.14-1.7-.61.14-.38a10,10,0,0,0-4.52-1.09"/><path class="cls-1" d="M142.13,305.93h-.35l.06,1.22.06,1.21h.25a6,6,0,0,1,1.43.17,6.25,6.25,0,0,1,.62.19,6,6,0,0,1,3.69,7.65,5.9,5.9,0,0,1-4.61,3.83,6.11,6.11,0,0,1-1,.08,6.19,6.19,0,0,1-.73,0l-.13,1.21-.13,1.21a8.67,8.67,0,0,0,.88.06h.15a8.34,8.34,0,0,0,7.9-5.51A8.46,8.46,0,0,0,145,306.44a8.59,8.59,0,0,0-2.35-.49l-.54,0"/><path class="cls-1" d="M106.06,315.58c-.84,5.12,3.64,10.82,10.43,13.25A19.26,19.26,0,0,0,123,330a13,13,0,0,0,7.85-2.33l-1.52-1.93a10.46,10.46,0,0,1-6.33,1.85,16.85,16.85,0,0,1-5.65-1c-5.18-1.86-8.79-5.8-8.89-9.49a14.15,14.15,0,0,1-.92-1.23l-.22,0-1.22-.21"/><path class="cls-1" d="M117,308.26c-5,0-9.26,2.2-10.62,6a7.94,7.94,0,0,0-.33,1.33h0l1.22.21.22,0-.07-.1a1.2,1.2,0,0,1,.36-1.68,1.23,1.23,0,0,1,.66-.19,1.25,1.25,0,0,1,.74.24c1.35-2.2,4.29-3.43,7.76-3.43a17,17,0,0,1,5.69,1c5.8,2.08,9.55,6.71,8.81,10.65l.13-.1a1.21,1.21,0,0,1,.78-.28,1.26,1.26,0,0,1,1,.44,1.2,1.2,0,0,1-.14,1.71,7.64,7.64,0,0,1-3.78,1.52l-.11.08,1.52,1.93a7.93,7.93,0,0,0,2.74-3.65c1.92-5.35-2.6-11.9-10.09-14.58a19.16,19.16,0,0,0-6.44-1.15"/><path class="cls-1" d="M108.46,313.86a1.23,1.23,0,0,0-.66.19,1.2,1.2,0,0,0-.36,1.68l.07.1a13.94,13.94,0,0,0,.92,1.23,25,25,0,0,0,8.69,6.27q1.18.54,2.36,1a23.69,23.69,0,0,0,7.84,1.5,14.07,14.07,0,0,0,2.09-.15,7.64,7.64,0,0,0,3.78-1.52,1.2,1.2,0,0,0,.14-1.71,1.26,1.26,0,0,0-1-.43,1.21,1.21,0,0,0-.78.28l-.13.1a7.27,7.27,0,0,1-4.2,1,22.53,22.53,0,0,1-9.13-2.24c-3.8-1.74-7-4.24-8.62-6.7a1.25,1.25,0,0,0-.31-.33,1.26,1.26,0,0,0-.73-.24"/><path class="cls-1" d="M119,304.92a1.47,1.47,0,0,1-.55-.11,1.42,1.42,0,0,1,.53-2.74,1.47,1.47,0,0,1,.55.11,1.42,1.42,0,0,1-.53,2.74m-.68-4.45a3.18,3.18,0,0,0-1.18,6.15,3.29,3.29,0,0,0,1.24.25,3.18,3.18,0,0,0,1.18-6.15,3.29,3.29,0,0,0-1.24-.25"/><path class="cls-1" d="M133.39,310.8a1.45,1.45,0,0,1-.55-.11,1.42,1.42,0,0,1,.53-2.74,1.47,1.47,0,0,1,.55.11,1.42,1.42,0,0,1-.53,2.74m-.68-4.45a3.18,3.18,0,0,0-1.18,6.15,3.27,3.27,0,0,0,1.24.25A3.18,3.18,0,0,0,134,306.6a3.28,3.28,0,0,0-1.24-.25"/><path class="cls-1" d="M106.06,284l-3.48,9.71-.14.38,1.7.61.62.22.67-1.86,3-8.33a2.23,2.23,0,0,1-2.36-.72"/><path class="cls-1" d="M107.74,280.52a2.15,2.15,0,0,0-1.68,3.53,2.24,2.24,0,0,0,1.73.82,2.21,2.21,0,0,0,.63-.09,2.15,2.15,0,0,0,1.42-1.33,2.18,2.18,0,0,0-1.34-2.78,2.25,2.25,0,0,0-.75-.13"/><path class="cls-1" d="M120.69,311.61a1.24,1.24,0,0,0-.92.41l-.88,1a1.21,1.21,0,0,0,.11,1.72,1.24,1.24,0,0,0,.83.31,1.23,1.23,0,0,0,.91-.4l.88-1a1.21,1.21,0,0,0-.11-1.72,1.23,1.23,0,0,0-.82-.31"/><path class="cls-1" d="M124.49,313.35h0a1.21,1.21,0,0,0-1.18,1.25l.06,1.32a1.24,1.24,0,0,0,1.24,1.18h0a1.21,1.21,0,0,0,1.18-1.25l-.06-1.32a1.24,1.24,0,0,0-1.25-1.18"/><path class="cls-1" d="M95.66,352.35a6.33,6.33,0,0,1-2.15-.38,6.16,6.16,0,0,1,2-12,6.33,6.33,0,0,1,2.15.38,6.16,6.16,0,0,1-2,12m-.14-14.8a8.58,8.58,0,0,0-2.82,16.71,8.85,8.85,0,0,0,3,.52,8.58,8.58,0,0,0,2.82-16.71,8.83,8.83,0,0,0-3-.52"/><path class="cls-1" d="M140.72,282a1.22,1.22,0,0,0-.89.38,1.2,1.2,0,0,0,.06,1.72,31,31,0,0,1,2.31,2.4,30.43,30.43,0,0,1,2.26,3,28.34,28.34,0,0,1,4.8,13.59,1.24,1.24,0,0,0,.82,1.06,1.25,1.25,0,0,0,.42.07h.08a1.21,1.21,0,0,0,1.14-1.29,30.78,30.78,0,0,0-5.21-14.76,32.7,32.7,0,0,0-2.44-3.2,34.39,34.39,0,0,0-2.49-2.59,1.25,1.25,0,0,0-.86-.34"/><path class="cls-1" d="M129.1,275a1.21,1.21,0,0,0-.4,2.36,33.37,33.37,0,0,1,5.41,2.51l.2.1a1.26,1.26,0,0,0,.42.07,1.21,1.21,0,0,0,.6-2.26,35.63,35.63,0,0,0-5.82-2.7,1.25,1.25,0,0,0-.42-.07"/><path class="cls-1" d="M258.8,55.55h0m42.39-.19q-2.07.5-4.21.94a26.64,26.64,0,0,1-16.86,7.37q-.87.06-1.73.05a27.54,27.54,0,0,1-16.26-5.33q-2.19-.17-4.3-.43l.2.19a30,30,0,0,0,20.39,8q.94,0,1.88-.06a29,29,0,0,0,20.1-9.82l.8-.91h0"/><path class="cls-1" d="M253.58,25.75c-1.19.48-2.29,1-3.29,1.52A28.4,28.4,0,0,0,248.74,39q.05.71.14,1.4a27.73,27.73,0,0,0,2.65,1.1c-.15-.87-.27-1.76-.34-2.66a26,26,0,0,1,2.39-13.07m24.2-17.69c-.63,0-1.27,0-1.91.06A29.15,29.15,0,0,0,258,15.64l.18,0,.54,2.38q-1.91.4-3.74.86a28.72,28.72,0,0,0-3.26,5l.87-.36,1,2.24A26.62,26.62,0,0,1,276,10.55q.89-.06,1.76-.06A27.21,27.21,0,0,1,305,35.39a26.48,26.48,0,0,1,.05,3.12q1.35-.65,2.49-1.33,0-1-.08-2a28.85,28.85,0,0,0-3.58-11.88q-1.51-.49-3.23-.91l.56-2.36.67.17a29.77,29.77,0,0,0-3.58-4q-2.05-.25-4.2-.43l.18-2.42.55,0a29.81,29.81,0,0,0-17-5.34"/><path class="cls-1" d="M294.25,13.35l-.18,2.42q2.14.18,4.2.43c18.23,2.24,31,8.73,31.59,16.33.39,5.13-4.56,10.59-13.58,15-9.49,4.62-22.37,7.65-36.27,8.54-2.68.17-5.33.25-7.93.25a114.54,114.54,0,0,1-13.26-.75h0c-18-2.1-31.13-8.42-31.74-16.45s10.49-15.88,28-20.27q1.83-.46,3.74-.86l-.54-2.38-.18,0C237,20.13,223.84,29.39,224.59,39.27c.48,6.22,6.56,11.42,16.2,14.87a78.75,78.75,0,0,0,17,3.82q2.11.25,4.3.43c3.07.24,6.27.37,9.56.37,2.77,0,5.61-.09,8.5-.27A125.83,125.83,0,0,0,297,56.3q2.14-.43,4.21-.94a81.32,81.32,0,0,0,16.2-5.66c10.11-4.92,15.41-11.07,14.93-17.32-.72-9.46-15.77-17.06-37.51-19l-.55,0"/><path class="cls-1" d="M301.17,20.08l-.56,2.36q1.72.41,3.23.9c5.56,1.81,8.9,4.34,9.11,7,.17,2.21-1.78,4.62-5.45,6.81q-1.14.68-2.49,1.33c-5.93,2.84-14.9,5.13-25.91,5.83-2.13.14-4.24.2-6.3.2a70.38,70.38,0,0,1-19-2.33q-1.2-.35-2.27-.73a27.48,27.48,0,0,1-2.65-1.1c-3.34-1.61-5.26-3.54-5.41-5.57-.19-2.46,2.31-5.18,6.83-7.55,1-.52,2.1-1,3.29-1.52h0l-1-2.24-.87.36C244.5,27,240.69,30.91,241,35c.27,3.56,3.7,6.64,9.72,8.81q1.14.41,2.4.77A72.9,72.9,0,0,0,272.84,47c2.11,0,4.27-.07,6.45-.21,20.86-1.33,36.73-8.61,36.12-16.55-.33-4.3-5.14-7.82-13.56-10l-.67-.17"/><path class="cls-1" d="M278.53,15.53c-.44,0-.88,0-1.32,0a1.21,1.21,0,0,0-1.14,1.29A1.25,1.25,0,0,0,277.31,18h.08q.59,0,1.17,0a18,18,0,0,1,18,16.51,1.23,1.23,0,0,0,.82,1.06,1.25,1.25,0,0,0,.42.07h.08A1.21,1.21,0,0,0,299,34.31a20.53,20.53,0,0,0-20.49-18.78"/><path class="cls-1" d="M417.68,136.68l0,.27a29.38,29.38,0,0,0,11,20.71,30.2,30.2,0,0,0,6,3.7v-2.71a27.75,27.75,0,0,1-4.42-2.88,27,27,0,0,1-9.69-15.9q-1.51-1.6-2.89-3.2m2.39-1.1h0l0,0v0"/><path class="cls-1" d="M435.18,158.9v2.69l.5.22v-2.66l-.5-.24"/><path class="cls-1" d="M434.68,158.65v2.71l.5.23V158.9l-.5-.26"/><path class="cls-1" d="M433.19,109.32A28.82,28.82,0,0,0,424,116.8q-.45.55-.86,1.12a27.17,27.17,0,0,0,1.21,2.58,26.5,26.5,0,0,1,10.33-9.18v-1.57q-.76-.24-1.49-.42"/><path class="cls-1" d="M435.18,109.9v1.17l.5-.23v-.77l-.5-.17"/><path class="cls-1" d="M434.68,109.74v1.57l.5-.24V109.9l-.5-.16"/><path class="cls-1" d="M417.74,96.21c-5.22,0-9.31,1.51-11.82,4.59-5.91,7.28-.81,21.4,11.76,35.87q1.39,1.6,2.89,3.2a126.48,126.48,0,0,0,13.31,12.18l.8.63v-3.11a118,118,0,0,1-14.62-14l0,0c-11.86-13.57-17.27-27-12.2-33.24,2-2.49,5.46-3.71,9.89-3.71,4.7,0,10.51,1.37,16.94,4V100c-6.36-2.53-12.13-3.82-16.94-3.82"/><path class="cls-1" d="M435.18,150v3.09l.5.39v-3.08l-.26-.21-.24-.19m0-49.76v2.63l.5.21v-2.64l-.5-.21"/><path class="cls-1" d="M434.68,149.58v3.11l.5.39V150l-.5-.4m0-49.55v2.63l.5.21v-2.63l-.5-.2"/><path class="cls-1" d="M427.83,106.07c-3.06,0-5.37.88-6.79,2.62-2.53,3.12-1.69,8.48,2.39,15.1a69.43,69.43,0,0,0,11.25,13.42v-3.4a63.85,63.85,0,0,1-9.15-11.27q-.65-1.05-1.18-2.05a26.8,26.8,0,0,1-1.21-2.58c-1.37-3.41-1.46-6.11-.18-7.68.92-1.13,2.61-1.7,4.86-1.7a21.75,21.75,0,0,1,5.36.79q.73.19,1.49.42V107.2a24.81,24.81,0,0,0-6.85-1.12"/><path class="cls-1" d="M435.18,134.31v3.37l.5.46V134.8l-.5-.49m0-27v2.56l.5.17V107.5l-.5-.16"/><path class="cls-1" d="M434.68,133.81v3.4l.5.47v-3.37l-.5-.5m0-26.62v2.55l.5.16v-2.56l-.5-.15"/><path class="cls-1" d="M354.16,119.32A39.79,39.79,0,0,1,340.71,117c-19.29-6.92-29.79-27-23.42-44.77,4.9-13.65,18.37-22,33.09-22a39.79,39.79,0,0,1,13.45,2.36c19.29,6.92,29.79,27,23.41,44.77-4.9,13.65-18.36,22-33.09,22m-3.79-71.58c-15.73,0-30.14,9-35.39,23.62-4.8,13.37-.7,28,9.3,38l.72-.42.8,1.36.08-.25,2.34.77q-.27.82-.49,1.64a42.68,42.68,0,0,0,26.45,9.29,39.52,39.52,0,0,0,21.64-6.33,1.2,1.2,0,0,1,.12-1.48,1.24,1.24,0,0,1,1.74-.07l.15.14a34.41,34.41,0,0,0,11.74-15.87c6.83-19-4.34-40.5-24.91-47.89a42.25,42.25,0,0,0-14.29-2.51"/><path class="cls-1" d="M325.87,110.05l-.08.25.44.75-.81.48a33,33,0,0,0,.4,19.66l.55-.36,1.41,2q-.54.37-1.06.68a34.61,34.61,0,0,0,7.77,11.18,1.25,1.25,0,0,1,.84-.33,1.25,1.25,0,0,1,1.16.79q.41,1.06.86,2.06a35.08,35.08,0,0,0,9.91,5.59,27.42,27.42,0,0,0,7.19,1.57,1.2,1.2,0,0,1,.81-1.5,1.22,1.22,0,0,1,.36-.05,1.25,1.25,0,0,1,.93.42h0q.53.6,1,1.15a17.71,17.71,0,0,0,6.11-1.49,15.18,15.18,0,0,0,7.15-6.76l-.12-.19a1.22,1.22,0,0,1-.57-.86q-.37-.54-.79-1.08l2-1.47q.37.48.71,1a23.91,23.91,0,0,0,1-3.75h-.27a1.25,1.25,0,0,1-1.26-1.13,1.21,1.21,0,0,1,1.13-1.3l.75,0q.12-1.23.16-2.53-1.16-.47-2.45-1.09c0,8.61-2.88,14.48-8.46,17a15.61,15.61,0,0,1-6.47,1.3c-6,0-13-2.78-18.65-7.77-9.41-8.26-13-20-9.83-31.76q.22-.82.49-1.64l-2.34-.77"/><path class="cls-1" d="M325,108.94l-.72.42c-8,4.86-11.41,12.55-11.22,18.17.11,3.49,1.57,6.2,4,7.43a6.67,6.67,0,0,0,.73.31,7.1,7.1,0,0,0,2.41.4,12.78,12.78,0,0,0,6.53-2.15q.52-.31,1.06-.68l-1.41-2-.55.36a11.07,11.07,0,0,1-5.66,2,4.44,4.44,0,0,1-2-.45c-1.59-.8-2.55-2.74-2.64-5.32-.16-4.87,2.86-11.59,9.91-15.94l.81-.48-.44-.75-.8-1.36"/><path class="cls-1" d="M376.84,113.54a1.23,1.23,0,0,0-.91.39,1.2,1.2,0,0,0-.12,1.48,1.23,1.23,0,0,0,.2.24c7.77,7,10.75,14.62,8.64,17.33a4,4,0,0,1-3.32,1.23c-3.25,0-8.66-1.85-16.67-6.94a1.27,1.27,0,0,0-.68-.21,1.22,1.22,0,0,0-.64,2.25,74.42,74.42,0,0,0,7.77,4.38c.86.41,1.67.77,2.45,1.09q.74.3,1.42.55a19.22,19.22,0,0,0,6.39,1.32c2.86,0,4.41-1.1,5.24-2.17,3.25-4.18-.54-13-8.8-20.48l-.15-.14a1.24,1.24,0,0,0-.84-.32"/><path class="cls-1" d="M370.75,146l.12.19c3.57,5.82,3.18,11.22.46,13.4a4.88,4.88,0,0,1-3.11,1c-2.65,0-6.3-1.62-10.62-6.16q-.52-.54-1-1.14a1.26,1.26,0,0,1,.25.44,21.85,21.85,0,0,1,.94,4.25,21,21,0,0,0,6.86,4.4,10.75,10.75,0,0,0,3.63.68,7.32,7.32,0,0,0,4.66-1.57c3.33-2.67,4.39-8.64.78-15.35h-.54c-.6,0-1.14,0-1.63,0h-.07a1.28,1.28,0,0,1-.68-.19m.6-3.4-2,1.47q.42.54.79,1.08V145a1.21,1.21,0,0,1,1.13-1.3l.87,0-.12-.17q-.34-.48-.71-1"/><path class="cls-1" d="M335.33,144.37a1.23,1.23,0,0,0-.43.08,1.22,1.22,0,0,0-.41.25,1.2,1.2,0,0,0-.3,1.31c4,10.31,10.36,17,15.59,18.83a8.5,8.5,0,0,0,2.86.54,5.63,5.63,0,0,0,1.79-.28c1.32-.44,3.87-2,3.32-7.16a21.83,21.83,0,0,0-.94-4.25,1.25,1.25,0,0,0-1.19-.87,1.23,1.23,0,0,0-.36.05,1.2,1.2,0,0,0-.81,1.5h0c1.43,4.53,1.11,7.75-.84,8.4a3.16,3.16,0,0,1-1,.15c-3.82,0-10.69-5.48-15.25-15.74q-.45-1-.86-2.06a1.25,1.25,0,0,0-1.16-.79"/><path class="cls-1" d="M374.94,137.29l-1.53,0-.76,0a1.21,1.21,0,0,0-1.13,1.3,1.25,1.25,0,0,0,1.26,1.13h.27c.56,0,1.22,0,2,0,6,0,17.66,1.14,26.92,4.46,6.39,2.3,10.56,5.07,12.39,8.24s1.51,6.63-1,10.16a2.25,2.25,0,0,1-1.84.94,2.28,2.28,0,0,1-1.32-.42,2.25,2.25,0,0,1-.93-1.45,2.19,2.19,0,0,1,.38-1.67c1.93-2.71,1.38-4.36.79-5.38-4.11-7.14-28.29-10.92-37.52-10.92h-.7l-.87,0a1.21,1.21,0,0,0-1.13,1.3v.08a1.22,1.22,0,0,0,.57.86,1.29,1.29,0,0,0,.68.19h.07c.49,0,1,0,1.63,0h.54c9.75.15,31.4,4.14,34.59,9.67.22.38.58,1-.67,2.78a4.56,4.56,0,0,0-.78,3.48,4.71,4.71,0,0,0,1.95,3,4.8,4.8,0,0,0,2.76.87,4.69,4.69,0,0,0,3.83-2c3.88-5.43,2.76-9.94,1.13-12.76-2.13-3.7-6.74-6.84-13.71-9.34-10-3.6-21.86-4.61-27.82-4.61"/><path class="cls-1" d="M330.35,73.08a19,19,0,0,0-7.16,9.18,6.16,6.16,0,0,0,1.3,1.13l-.67,1h0l1.16.29c.13-.52.28-1,.46-1.55a16.91,16.91,0,0,1,7.74-9l-.51-.86-.2.56-.45-.16-.28.31a6.13,6.13,0,0,0-1.24-.86l-.19-.07"/><path class="cls-1" d="M323.83,84.4l-.67,1q-.37-.24-.71-.51c-2.16,10.6,5,21.63,16.91,25.91a28.3,28.3,0,0,0,9.55,1.68,23.48,23.48,0,0,0,16.54-6.33c-.29-.13-.58-.27-.86-.43l.59-1.06-.92-.83a20.76,20.76,0,0,1-15.36,6.21,25.84,25.84,0,0,1-8.72-1.53c-10.85-3.9-17.51-14.36-15.15-23.83h0l-1.16-.29h0"/><path class="cls-1" d="M344.22,68.95a25.21,25.21,0,0,0-10.78,2.34l-.26.71.24.2-.51.56-.19.53.51.86a22.28,22.28,0,0,1,11-2.79A25.88,25.88,0,0,1,353,72.91c7.77,2.79,13.6,8.95,15.2,16.06l1.2-.25V87.5q.49,0,1,.06c-2.06-7.55-8.32-14-16.56-16.94a28.39,28.39,0,0,0-9.56-1.67"/><path class="cls-1" d="M369.37,88.72l-1.2.25a16.67,16.67,0,0,1-.52,9.32,16.23,16.23,0,0,1-3.39,5.56l.91.83.59-1.06a7.65,7.65,0,0,0,1.1.51l.31.1a18.57,18.57,0,0,0,2.8-5.11,18.92,18.92,0,0,0,.9-9,7.55,7.55,0,0,0-1.51-.17V88.72"/><path class="cls-1" d="M369.37,87.5v2.43a7.61,7.61,0,0,1,1.51.17,7.3,7.3,0,0,1-1.47,14.46,7.48,7.48,0,0,1-2.24-.34l-.31-.1a7.87,7.87,0,0,1-1.1-.51l-.59,1.06-.59,1.06c.28.15.57.3.86.43l.6.24a10,10,0,0,0,3.38.59,9.71,9.71,0,0,0,3.19-18.92,9.9,9.9,0,0,0-2.27-.52c-.32,0-.65-.05-1-.06"/><path class="cls-1" d="M330.54,73.15a6.13,6.13,0,0,1,1.24.86l.28-.31-1.53-.55M333.18,72l-.27.76.51-.56-.24-.2m-5.5-2a8.33,8.33,0,0,0-5.24,14.89q.34.27.71.51l.67-1,.67-1a6.16,6.16,0,0,1-1.3-1.13,5.91,5.91,0,0,1-1.12-5.89,6,6,0,0,1,5.64-3.92,6.11,6.11,0,0,1,2.07.36l.44.17L331,70.7l-.44-.17a8.61,8.61,0,0,0-2.91-.51"/><path class="cls-1" d="M330.42,95.43l-2.34.51c1,4.19,5,8.12,10.3,10a19.16,19.16,0,0,0,6.44,1.15c4.42,0,8.26-1.69,10-4.74l-1.07-.61-.38-.22q-.55.16-1.15.28c-1.49,1.87-4.22,2.89-7.37,2.89a16.94,16.94,0,0,1-5.68-1c-4.45-1.6-7.85-4.79-8.69-8.15l-.08-.09"/><path class="cls-1" d="M338.91,85.39c-5,0-9.26,2.2-10.62,6a7.93,7.93,0,0,0-.21,4.57l2.34-.51a7.58,7.58,0,0,1-1.87-3.4,1.2,1.2,0,0,1,.95-1.43l.24,0a1.25,1.25,0,0,1,1.2.89c1.28-2.35,4.31-3.67,7.9-3.67a16.94,16.94,0,0,1,5.69,1c5.57,2,9.24,6.34,8.88,10.17h.14a1.25,1.25,0,0,1,1.18.82,1.2,1.2,0,0,1-.75,1.54l-.57.18.38.22,1.07.61a7.75,7.75,0,0,0,.59-1.24c1.92-5.35-2.6-11.9-10.09-14.58a19.15,19.15,0,0,0-6.44-1.15"/><path class="cls-1" d="M329.74,90.58l-.24,0a1.2,1.2,0,0,0-.95,1.43,7.57,7.57,0,0,0,1.87,3.39l.08.09a20.16,20.16,0,0,0,8,4.88,31,31,0,0,0,3.18,1,28.53,28.53,0,0,0,6.65.83,19.89,19.89,0,0,0,3.92-.37c.4-.08.78-.17,1.15-.28h0l.57-.18a1.2,1.2,0,0,0,.75-1.54,1.25,1.25,0,0,0-1.18-.82h-.14l-.26.06a15.33,15.33,0,0,1-4.84.69,26.15,26.15,0,0,1-6.07-.75c-6.66-1.63-10.76-5-11.28-7.43l0-.09a1.25,1.25,0,0,0-1.2-.89"/><path class="cls-1" d="M352.61,86.26a1.45,1.45,0,0,1-.44-.07,1.42,1.42,0,0,1,.41-2.79,1.48,1.48,0,0,1,.44.07,1.42,1.42,0,0,1-.41,2.79m.33-4.09a3.18,3.18,0,0,0-.91,6.24,3.3,3.3,0,0,0,1,.15,3.18,3.18,0,0,0,.91-6.24,3.26,3.26,0,0,0-1-.15"/><path class="cls-1" d="M337.74,81.63a1.47,1.47,0,0,1-.44-.07,1.44,1.44,0,0,1-1-1.79,1.42,1.42,0,0,1,1.37-1,1.48,1.48,0,0,1,.44.07,1.44,1.44,0,0,1,1,1.79,1.42,1.42,0,0,1-1.37,1m.33-4.09a3.18,3.18,0,0,0-.91,6.24,3.3,3.3,0,0,0,1,.15A3.18,3.18,0,0,0,339,77.7a3.27,3.27,0,0,0-1-.15"/><path class="cls-1" d="M332.31,67.16,331,70.7,330.21,73v0l.15.05.19.07,1.53.55.45.16.2-.56.19-.53.27-.76.26-.72,1.15-3.19A2.21,2.21,0,0,1,333.4,68a2.22,2.22,0,0,1-1.1-.86"/><path class="cls-1" d="M334.11,63.8a2.15,2.15,0,0,0-1.81,3.35,2.24,2.24,0,0,0,1.85,1,2.18,2.18,0,0,0,.43,0,2.16,2.16,0,0,0,1.62-1.38,2.18,2.18,0,0,0-1.34-2.78,2.25,2.25,0,0,0-.75-.13"/><path class="cls-1" d="M345.29,89.71h0A1.21,1.21,0,0,0,344.08,91l.05,1.32a1.24,1.24,0,0,0,1.24,1.18h0a1.21,1.21,0,0,0,1.18-1.25l-.05-1.32a1.24,1.24,0,0,0-1.25-1.18"/><path class="cls-1" d="M341.25,88.64a1.23,1.23,0,0,0-.91.4l-.88,1a1.21,1.21,0,0,0,.11,1.72,1.24,1.24,0,0,0,.83.31,1.23,1.23,0,0,0,.91-.4l.88-1a1.21,1.21,0,0,0-.11-1.72,1.25,1.25,0,0,0-.83-.31"/><path class="cls-1" d="M343.53,138.81a6.33,6.33,0,0,1-2.15-.37,6.16,6.16,0,0,1,2-12,6.33,6.33,0,0,1,2.15.38,6.16,6.16,0,0,1-2,12m-.14-14.8a8.58,8.58,0,0,0-2.82,16.71,8.83,8.83,0,0,0,3,.52,8.58,8.58,0,0,0,2.82-16.71,8.82,8.82,0,0,0-3-.52"/><path class="cls-1" d="M348.65,54.16h-.08a33.31,33.31,0,0,0-7.49,1.33,30.88,30.88,0,0,0-13.41,8.08,1.21,1.21,0,0,0,.05,1.72,1.24,1.24,0,0,0,.43.27,1.26,1.26,0,0,0,.42.07,1.23,1.23,0,0,0,.89-.37,28.42,28.42,0,0,1,12.35-7.44,31.6,31.6,0,0,1,3.63-.85,32.15,32.15,0,0,1,3.31-.38,1.2,1.2,0,0,0,1.14-1.29,1.24,1.24,0,0,0-1.24-1.14"/><path class="cls-1" d="M356.11,54.55a1.21,1.21,0,0,0-1.2,1,1.23,1.23,0,0,0,.81,1.34l.22.06a33.23,33.23,0,0,1,5.77,1.51,1.25,1.25,0,0,0,.42.07,1.21,1.21,0,0,0,.4-2.36,35.53,35.53,0,0,0-6.21-1.62l-.21,0"/><path class="cls-1" d="M434.64,316.27l0,.08v-.07l0,0"/><path class="cls-1" d="M435.18,316.47v.94q.26.59.5,1.19v-1.95l-.5-.18"/><path class="cls-1" d="M434.68,316.29v.07c.17.35.34.7.5,1.05v-.94l-.5-.18"/><path class="cls-1" d="M416.86,298.22a19.31,19.31,0,0,1-5.86.9l-1.1.07c-1,.07-2,.1-2.85.1a17.3,17.3,0,0,1-4.56-.49l-1.55,1.05-.31,3.54a26.29,26.29,0,0,0-16.29,26.19,26.3,26.3,0,0,0,9.22,18,26.88,26.88,0,0,0,17.56,6.5q.9,0,1.81-.06a26.44,26.44,0,0,0,3.19-.41l2.41,2.24,1.64,0a12.72,12.72,0,0,1,2.85-1.45l.87-.37a12.83,12.83,0,0,1,4.62-1.3h.21l1.23-1.54-1.16-3.93a26.23,26.23,0,0,0,5.89-7.58v-7.72a23.37,23.37,0,0,1-8.1,14l-.38,1.26,1,3.23a18.7,18.7,0,0,0-4.29,1.4l-.83.35a22.15,22.15,0,0,0-2.57,1.2l-2-1.85-1.26-.46a23.58,23.58,0,0,1-3.52.5q-.82.05-1.64.05a24.38,24.38,0,0,1-15.93-5.9,23.86,23.86,0,0,1-8.37-16.35,23.47,23.47,0,0,1,6.64-18.26,23,23,0,0,1,8.78-5.76l.79-1,.25-2.92a23.36,23.36,0,0,0,3.79.27c.93,0,1.93,0,3-.11l1.08-.07a28.1,28.1,0,0,0,5.39-.66l1.17,3.63.78.79a24.49,24.49,0,0,1,16.18,18.85v-7.8l0-.08a26.91,26.91,0,0,0-14.76-13.05L418.52,299l-1.66-.77"/><path class="cls-1" d="M435.18,317.41v21.33q.27-.58.5-1.17v-19q-.24-.6-.5-1.19"/><path class="cls-1" d="M434.68,316.36v7.8q.18,1,.26,2.1a23.41,23.41,0,0,1-.26,5.8v7.72q.26-.51.5-1V317.41c-.16-.35-.33-.7-.5-1.05"/><path class="cls-1" d="M428.52,318.65a4.37,4.37,0,0,1-2.47-2,4.68,4.68,0,0,1-1.1-3H425a.88.88,0,0,1,.28.06,5.22,5.22,0,0,1,2.2,1.92,4.27,4.27,0,0,1,1,3M425,311.27a2.41,2.41,0,0,0-1.39.42c-1.58,1.09-1.39,3.76.46,6.37a7.5,7.5,0,0,0,3.36,2.81,3.48,3.48,0,0,0,1.17.22,2.4,2.4,0,0,0,1.38-.41h0c1.58-1.08,1.39-3.76-.46-6.36-1.37-1.93-3.09-3-4.54-3"/><path class="cls-1" d="M392.3,328.81c-.32-.38-.82-2-.45-4.44a7.61,7.61,0,0,1,1.66-4.16c.31.21.92,1.85.52,4.51-.37,2.47-1.32,3.84-1.73,4.1m1.27-11c-2.22,0-3.7,3.13-4.16,6.19s0,6.42,2.08,7.15a2.49,2.49,0,0,0,.44.11h0l.38,0c2.21,0,3.7-3.13,4.16-6.19a11.73,11.73,0,0,0-.12-4.48c-.55-2.18-1.75-2.68-2.41-2.79l-.38,0"/><path class="cls-1" d="M419,340.64l-.43,0a2.3,2.3,0,0,1-1.74-1c-.74-1.19,0-3.06,1.73-4.08a4.6,4.6,0,0,1,2.33-.68,3.23,3.23,0,0,1,1.09.18,2.06,2.06,0,0,1,1.07.82,2.21,2.21,0,0,1,.1,2,4.27,4.27,0,0,1-1.84,2.11h0a4.52,4.52,0,0,1-2.32.68m1.85-8.19a7,7,0,0,0-3.59,1c-2.87,1.73-4,5.06-2.52,7.42a4.49,4.49,0,0,0,2.33,1.85,5.62,5.62,0,0,0,1.23.29,6.1,6.1,0,0,0,.72,0,7,7,0,0,0,3.6-1,6.68,6.68,0,0,0,2.86-3.33,4.56,4.56,0,0,0-.33-4.09,4.93,4.93,0,0,0-4.29-2.17"/><path class="cls-1" d="M410.65,321.13a2.41,2.41,0,0,1-.81-.14,2.33,2.33,0,0,1,.77-4.54,2.41,2.41,0,0,1,.81.14,2.33,2.33,0,0,1-.77,4.54m-.07-7.11a4.75,4.75,0,0,0-1.56,9.26,4.9,4.9,0,0,0,1.65.29,4.75,4.75,0,0,0,1.56-9.26,4.9,4.9,0,0,0-1.65-.29"/><path class="cls-1" d="M100.12,445.71A27,27,0,0,1,73,419.28a26,26,0,0,1,8.71-19.73,25.58,25.58,0,0,1,10.16-5.74l.86-1,.51-3.34a32.9,32.9,0,0,0,7.57.69h2.31a25.32,25.32,0,0,0,5-.36l1,4.19.73.84a26.79,26.79,0,0,1,16.67,24.36,25.76,25.76,0,0,1-10.72,21.26l-.46,1.23.85,3.77a20.24,20.24,0,0,0-4.94,1.23l-.92.33a23.19,23.19,0,0,0-3,1.18L105.31,446l-1.23-.55a27.14,27.14,0,0,1-3.94.3h0M92.66,386.8l-1.62,1-.6,4a28.45,28.45,0,0,0-10,5.72l.29.06-.51,2.37-1.9-.41a28.5,28.5,0,0,0-5.59,8.63L74,410.13,72,411.41,71.7,411a28.34,28.34,0,0,0-1.13,8.28A29.35,29.35,0,0,0,90.12,446.4a29.65,29.65,0,0,0,10,1.74h0a29.48,29.48,0,0,0,3.59-.23l2.54,2.68,1.64.16a14.11,14.11,0,0,1,3.31-1.42l1-.33a15.71,15.71,0,0,1,4.89-1.13,5.3,5.3,0,0,1,.6,0l1.33-1.46L118,442a28.1,28.1,0,0,0,11.07-22.74,29.24,29.24,0,0,0-17.62-26.35l-1.21-4.82-1.61-.87a18.28,18.28,0,0,1-5.6.58h-2.24a25.82,25.82,0,0,1-8.15-1"/><path class="cls-1" d="M74.46,396.11l-1.48,1a16.77,16.77,0,0,1-3.71,8.44L69.18,407l2.52,4,.26.41L74,410.13l-1.31-2.07-1-1.59a19.91,19.91,0,0,0,3.5-7.71l3.1.68,1.9.42.51-2.37-.29-.07-6-1.3"/><path class="cls-1" d="M96.46,412.56a3.54,3.54,0,0,1-3.55-3.46,3.45,3.45,0,0,1,3.47-3.47,3.58,3.58,0,0,1,1.21.21,3.52,3.52,0,0,1,2.35,3.25,3.45,3.45,0,0,1-3.47,3.47h0m-.1-9.37h0a5.88,5.88,0,0,0-5.91,5.91,6,6,0,0,0,6,5.89h0a5.92,5.92,0,0,0,4.21-1.73,5.76,5.76,0,0,0,1.7-4.17,6,6,0,0,0-6-5.9"/><path class="cls-1" d="M122.8,418.84a13.32,13.32,0,0,1-2.94-5.43c-1-3.06-1.06-5.25-.85-6.08a13.22,13.22,0,0,1,2.94,5.43c1,3.06,1.06,5.24.86,6.08m-4-14.1a2,2,0,0,0-.59.09,2.14,2.14,0,0,0-1.27,1.12c-.95,1.83-.31,5.44.6,8.2,1,3.11,2.78,6.46,4.75,7.17a2.2,2.2,0,0,0,.74.13,2,2,0,0,0,.61-.1h0c2.5-.78,1.92-5.51.66-9.32-.91-2.77-2.55-6.06-4.41-7a2.42,2.42,0,0,0-1.1-.28"/><path class="cls-1" d="M90.67,435a4,4,0,0,1-1.95-.78,18.33,18.33,0,0,1-4.4-4.24c-3.15-4.12-3.5-7.25-3.05-7.58a.39.39,0,0,1,.2,0,2.21,2.21,0,0,1,.72.15,6.37,6.37,0,0,1,1.23.63,18.36,18.36,0,0,1,4.4,4.24,18.05,18.05,0,0,1,2.92,5.33c.48,1.57.22,2.18.13,2.25a.42.42,0,0,1-.2,0m-9.23-15.07a2.73,2.73,0,0,0-1.66.52c-2.44,1.81-.54,6.89,2.58,11a20.63,20.63,0,0,0,5,4.84,9,9,0,0,0,1.74.87,4.59,4.59,0,0,0,1.55.3,2.73,2.73,0,0,0,1.67-.52c.83-.61,1.63-2,.74-4.87a20.26,20.26,0,0,0-3.32-6.11,20.64,20.64,0,0,0-5.05-4.84,6.36,6.36,0,0,0-3.29-1.17"/><path class="cls-1" d="M143.4,153.47A19.86,19.86,0,0,0,141,149l-.54-.82a23.25,23.25,0,0,0-1.89-2.63l1.73-2.53.23-1.3a25.27,25.27,0,0,1-1.24-3.71,25.87,25.87,0,0,1,3-20,26.22,26.22,0,0,1,16.49-11.86,26.94,26.94,0,0,1,6.16-.71,27.38,27.38,0,0,1,15.38,4.74,26.13,26.13,0,0,1,8.1,8.5l1.17.61L193,119a31.9,31.9,0,0,0,1.15,7.47l.29,1.16a29.36,29.36,0,0,0,1.82,5.76l-3.88,1.93-.65.89a26.21,26.21,0,0,1-20,21.38A26.93,26.93,0,0,1,148.22,152l-1.33-.17-3.5,1.64M165,103a29.44,29.44,0,0,0-6.75.78,28.64,28.64,0,0,0-18,13,28.26,28.26,0,0,0-3.32,21.83A27.8,27.8,0,0,0,138,142l-2,3,.24,1.61a14.44,14.44,0,0,1,2.19,2.87l.56.85a13.31,13.31,0,0,1,2.4,5l1.76,1,4.18-2A29.37,29.37,0,0,0,172.35,160a28.61,28.61,0,0,0,21.73-22.73l4.46-2.22.47-1.74a21,21,0,0,1-2.15-6.18l-.29-1.17a25,25,0,0,1-1-8.09l-1.33-1.35-4,.29a29,29,0,0,0-8-8.35v.29l-2.46,0,0-1.92a29.8,29.8,0,0,0-9.84-3.47l-1.72,1.72-1.76-1.72.35-.34q-.84,0-1.69,0"/><path class="cls-1" d="M171.39,99.53l-1.43.22-3.31,3.3-.34.34,1.76,1.72,1.72-1.72,1.32-1.32a20.77,20.77,0,0,0,8,1.67h.41l.08,3.13,0,1.92,2.46,0v-.29l-.16-6-1.39-1.19a13.34,13.34,0,0,1-1.51.08,18,18,0,0,1-7.7-1.79"/><path class="cls-1" d="M171.25,153.87h0c.39-.76,1.87-2.38,4.64-4a13.51,13.51,0,0,1,5.74-2.16h0c-.39.76-1.87,2.38-4.64,4a13.53,13.53,0,0,1-5.75,2.16m10.31-8.6a7.62,7.62,0,0,0-1.74.23,20,20,0,0,0-5.25,2.26c-2.51,1.49-5.36,3.78-5.85,5.78a2.07,2.07,0,0,0,1.35,2.56l.27.08a3.91,3.91,0,0,0,.94.1c2,0,4.85-1.22,7-2.49a19.64,19.64,0,0,0,4.47-3.51c1.76-2,1.6-3.23,1.16-4a2.53,2.53,0,0,0-2.36-1.07"/><path class="cls-1" d="M147.9,126.79a.49.49,0,0,1-.26,0h0c-.09-.07-.32-.69.22-2.23a17.62,17.62,0,0,1,3.12-5.16,17.82,17.82,0,0,1,4.55-4,4.2,4.2,0,0,1,1.91-.67.72.72,0,0,1,.23,0l0,0c.09.07.32.69-.21,2.23a17.66,17.66,0,0,1-3.12,5.16,17.88,17.88,0,0,1-4.55,4,4.25,4.25,0,0,1-1.92.66m9.51-14.53a6.48,6.48,0,0,0-3.12,1,22,22,0,0,0-8.78,10.45c-1,2.86-.25,4.24.55,4.9a2.7,2.7,0,0,0,.8.45,3.11,3.11,0,0,0,1.06.17,6.49,6.49,0,0,0,3.12-1,22,22,0,0,0,8.78-10.45c1-2.86.24-4.25-.56-4.91a2.86,2.86,0,0,0-1.86-.63"/><path class="cls-1" d="M178,128.39a4.81,4.81,0,0,1-3.43-1.72,4.91,4.91,0,0,1-1.29-2.92,2.55,2.55,0,0,1,.79-2.14,2.42,2.42,0,0,1,1.6-.55h.23a5.25,5.25,0,0,1,4.49,4.63,2.54,2.54,0,0,1-.79,2.14,2.38,2.38,0,0,1-1.59.54m-2.37-9.76a4.72,4.72,0,0,0-4.82,5.23,7.38,7.38,0,0,0,1.9,4.4,7.76,7.76,0,0,0,3.16,2.17,6.4,6.4,0,0,0,2.16.39,4.82,4.82,0,0,0,3.19-1.13,4.87,4.87,0,0,0,1.62-4.1,7.71,7.71,0,0,0-6.79-6.94l-.41,0"/><path class="cls-1" d="M41.19,235.44A26,26,0,0,1,44.84,234a27.15,27.15,0,0,1,33.89,17.09,26.11,26.11,0,0,1-2.16,21.47,25.33,25.33,0,0,1-7.87,8.54l-.52,1.19.55,3.34a32.46,32.46,0,0,0-7.44,1.63l-1.14.36a29.73,29.73,0,0,0-5.66,2.18l-2.29-3.69-.95-.58a27.08,27.08,0,0,1-23.35-18.26,25.8,25.8,0,0,1,3.61-23.54l.06-1.31-2-3.35a19.81,19.81,0,0,0,4.31-2.67l.79-.59a22.74,22.74,0,0,0,2.48-2l2.7,1.52,1.33.15M53,230.25a29.46,29.46,0,0,0-9,1.4,28.58,28.58,0,0,0-3.35,1.3l-3.25-1.8-1.6.35a13.9,13.9,0,0,1-2.69,2.35l-.82.61a13.27,13.27,0,0,1-4.87,2.7l-.81,1.8,2.35,4A28.14,28.14,0,0,0,25.54,268a29.56,29.56,0,0,0,24.87,19.87L53,292.11l1.79.35a21.22,21.22,0,0,1,6.06-2.53l1.16-.36A26.94,26.94,0,0,1,69.78,288h.34l1.25-1.4-.65-4a28.17,28.17,0,0,0,8-8.89,28.5,28.5,0,0,0,2.36-23.45,29.22,29.22,0,0,0-14.67-16.86A29.68,29.68,0,0,0,53,230.25"/><path class="cls-1" d="M38.79,276.32a13.46,13.46,0,0,1-4.47-4.3c-1.9-2.62-2.63-4.69-2.69-5.55a13.45,13.45,0,0,1,4.47,4.3c1.9,2.62,2.63,4.69,2.69,5.55m-7.51-12.37a2,2,0,0,0-1.21.38c-.69.49-1.34,1.59-.49,4.09a20,20,0,0,0,2.74,5c1.65,2.26,3.84,4.53,5.74,5.21a3.21,3.21,0,0,0,1.08.21,2,2,0,0,0,1.21-.37c2.13-1.5.12-5.84-2.25-9.1-2-2.71-4.72-5.42-6.82-5.42"/><path class="cls-1" d="M69.25,250.74c-1.21,0-3.82-.69-7.07-3a18.33,18.33,0,0,1-4.42-4.22c-.94-1.36-.88-2-.81-2.1s.32-.18.7-.18a8.09,8.09,0,0,1,2.55.55,19.41,19.41,0,0,1,4.51,2.42c4.26,3,5.57,5.87,5.24,6.32-.08.11-.32.18-.69.18M57.67,238.86A3.17,3.17,0,0,0,54.92,240c-.59.83-.94,2.36.8,4.88a20.59,20.59,0,0,0,5,4.84,22.46,22.46,0,0,0,5.13,2.73,10.14,10.14,0,0,0,3.33.68A3.17,3.17,0,0,0,72,252c1.75-2.46-1.62-6.75-5.85-9.72-2.82-2-6.07-3.4-8.45-3.4"/><path class="cls-1" d="M60.41,273.64a2.5,2.5,0,0,1-1.78-.65c-1.17-1.13-.83-3.43.75-5a4.92,4.92,0,0,1,2.84-1.47l.45,0a2.87,2.87,0,0,1,1,.16,2.22,2.22,0,0,1,.81.5,2.58,2.58,0,0,1,.68,2.19,5.09,5.09,0,0,1-4.72,4.32m2.23-9.6a6.38,6.38,0,0,0-.76,0,7.35,7.35,0,0,0-4.27,2.17c-2.55,2.57-2.86,6.36-.7,8.46a4.69,4.69,0,0,0,1.69,1,5.42,5.42,0,0,0,1.84.31,7.51,7.51,0,0,0,7.14-6.47A4.84,4.84,0,0,0,62.65,264"/><path class="cls-1" d="M434.68,359.27q-3.43,2-6.95,3.81a45.27,45.27,0,0,0-17.17,17.56,44.79,44.79,0,0,0-3.51,34.82,46.27,46.27,0,0,0,22.49,27.33,47.55,47.55,0,0,0,5.14,2.39v-2.62q-2-.84-4-1.9a43.81,43.81,0,0,1-21.3-25.88,42.73,42.73,0,0,1,19.53-49.57q2.9-1.51,5.74-3.11v-2.83"/><path class="cls-1" d="M435.18,442.77v2.61l.5.19V443l-.5-.2m.5-84.07-.5.29v2.83l.5-.29v-2.84"/><path class="cls-1" d="M434.68,442.56v2.62l.5.19v-2.61l-.5-.21m.5-83.58-.5.29v2.83l.5-.28V359"/><path class="cls-1" d="M434.68,370.39a35.22,35.22,0,0,0-17.78,41.75,36.1,36.1,0,0,0,17.54,21.31l.24.13v-2.77a33.6,33.6,0,0,1-15.42-19.35,32.81,32.81,0,0,1,15.42-38.3v-2.78"/><path class="cls-1" d="M435.18,431.1v2.75l.5.25v-2.73l-.07,0-.43-.23m.5-61.19-.5.24v2.75l.5-.26v-2.73"/><path class="cls-1" d="M434.68,430.81v2.78l.5.26V431.1l-.5-.28m.5-60.67-.5.25v2.78l.5-.27v-2.75"/><path class="cls-1" d="M427.46,388a1.19,1.19,0,0,0-1.05.65,28.08,28.08,0,0,0,8.27,36v-3.1a25.62,25.62,0,0,1-6.1-31.76,1.22,1.22,0,0,0-.5-1.65,1.27,1.27,0,0,0-.62-.17"/><path class="cls-1" d="M435.18,422v3l.5.34v-3l-.5-.39"/><path class="cls-1" d="M434.68,421.58v3.1l.5.36v-3l-.5-.41"/><path class="cls-1" d="M434.68,191.56a50.19,50.19,0,0,0-32.07,30.8c-9.42,26.23,4.62,55.36,31.29,64.93l.79.28V285c-25.37-9.13-38.71-36.85-29.75-61.8a47.75,47.75,0,0,1,29.75-29.06v-2.57"/><path class="cls-1" d="M435.18,285.16v2.56l.5.16v-2.55l-.5-.17m.5-93.92-.5.15V194l.5-.16v-2.55"/><path class="cls-1" d="M434.68,285v2.57l.5.17v-2.56l-.46-.16h0m.5-93.59-.5.16v2.57l.5-.17V191.4"/><path class="cls-1" d="M390.41,436.47l-.07-.5,2.44-.32.15,1a16.52,16.52,0,0,1,14,14.31,15,15,0,0,1-3.26,11.25,15.2,15.2,0,0,1-6.35,4.63l.26,1.79-2.44.32-.2-1.4a15.88,15.88,0,0,1-1.66.26L333.77,474l-.32,0a3.21,3.21,0,0,1-3.19-2.81l-2.93-25.11a3.06,3.06,0,0,1,.66-2.3,3.13,3.13,0,0,1,2.12-1.14l58.64-6.07c.56-.06,1.11-.09,1.65-.09m0-2.43a19.22,19.22,0,0,0-2,.1L370.83,436l.25,2.16-10.1,1-.25-2.16-30.9,3.2a5.54,5.54,0,0,0-3.77,2,5.43,5.43,0,0,0-1.18,4.08l.21,1.83,2.39-.25L330,469.25l-2.39.25.22,1.93a5.7,5.7,0,0,0,5.66,5,5.77,5.77,0,0,0,.59,0l30.9-3.2-.27-2.29,10.1-1,.27,2.3,18.5-1.92a17.71,17.71,0,0,0,12-6.48,17.34,17.34,0,0,0,3.78-13A19.05,19.05,0,0,0,390.44,434"/><path class="cls-1" d="M321.53,467.68l-1.93-16.51,5.71-.59,1.93,16.51Zm5.95-19.78-2.39.25-5.78.6,2.49,21.35,5.78-.6,2.39-.25-2.49-21.35"/><path class="cls-1" d="M311.81,476.16a12.84,12.84,0,0,1-8-2.81,12.59,12.59,0,0,1-4.74-8.46l-.84-7.22a11.58,11.58,0,0,1,10.39-12.82l7.69-.8,3.66,31.34-6.78.7a13.35,13.35,0,0,1-1.35.07m6.64-34.78-10.14,1a14,14,0,0,0-12.56,15.5l.84,7.22a15,15,0,0,0,5.65,10.1,15.55,15.55,0,0,0,4.4,2.45,15.37,15.37,0,0,0,5.19.9,15.65,15.65,0,0,0,1.6-.08l9.23-1-.87-7.46-2.49-21.35-.86-7.36"/><path class="cls-1" d="M363.15,436.49l-1.61-13.8,5.21-.54,1.61,13.8Zm6-14.65-10.11,1L360.73,437l.25,2.16,10.1-1-.25-2.16-1.65-14.12"/><path class="cls-1" d="M369.14,487.82l-1.72-14.76,5.21-.54,1.73,14.76Zm5.65-18-10.1,1,.27,2.3,1.76,15.07,10.1-1-1.76-15.07-.27-2.3"/><path class="cls-1" d="M348.86,421.48a3.47,3.47,0,0,1-2.16-.75,3.38,3.38,0,0,1-1.27-2.27L339,363a3.36,3.36,0,0,1,3-3.71L370,356.4l.36,0a3.46,3.46,0,0,1,3.44,3l6.47,55.43a3.35,3.35,0,0,1-3,3.71l-28.07,2.9-.36,0M370.37,354a6.19,6.19,0,0,0-.62,0l-28.07,2.9a5.77,5.77,0,0,0-5.18,6.39L343,418.7a5.84,5.84,0,0,0,2.19,3.91,6,6,0,0,0,1.7,1,6,6,0,0,0,2.63.31l9.57-1,10.11-1,8.39-.87a5.77,5.77,0,0,0,5.17-6.38l-6.47-55.43a5.94,5.94,0,0,0-5.9-5.21"/><path class="cls-1" d="M370.93,490.26h0m20.5,0h0"/><path class="cls-1" d="M385.82,486.3a5.8,5.8,0,0,0-.62,0l-8.39.87-10.1,1-9.57,1-.18,0h23.64l4.89-.51.35,0a3.49,3.49,0,0,1,1.84.53H391a6,6,0,0,0-5.16-3"/><path class="cls-1" d="M375.76,489.76H355.24a5.82,5.82,0,0,0-.86.5h16.55l4.83-.5m15.47,0H388.3a3.43,3.43,0,0,1,.41.5h2.72c-.06-.17-.13-.34-.2-.5"/><path class="cls-1" d="M380.59,489.26H356.95a5.88,5.88,0,0,0-1.7.5h20.52l4.83-.5m10.38,0h-3.3a3.54,3.54,0,0,1,.63.5h2.93q-.12-.26-.26-.5"/><path class="cls-1" d="M344.45,462.42a5.64,5.64,0,0,1-3.52-1.23,5.49,5.49,0,0,1,2.84-9.79l.58,0a5.67,5.67,0,0,1,5.62,5,5.4,5.4,0,0,1-1.17,4.06,5.52,5.52,0,0,1-3.75,2,5.74,5.74,0,0,1-.6,0m-.11-13.49a8.42,8.42,0,0,0-.85,0,7.9,7.9,0,0,0-7.08,8.74,8,8,0,0,0,3,5.35,8.25,8.25,0,0,0,2.33,1.3,8.12,8.12,0,0,0,2.74.48,8.23,8.23,0,0,0,.86,0,7.94,7.94,0,0,0,5.39-2.9,7.78,7.78,0,0,0,1.69-5.84,8.14,8.14,0,0,0-8.08-7.13"/><path class="cls-1" d="M367.87,460a5.64,5.64,0,0,1-3.52-1.24,5.53,5.53,0,0,1-2.08-3.72,5.4,5.4,0,0,1,1.17-4.06,5.52,5.52,0,0,1,3.74-2l.58,0a5.67,5.67,0,0,1,5.62,4.95,5.41,5.41,0,0,1-1.17,4.06,5.52,5.52,0,0,1-3.75,2,5.68,5.68,0,0,1-.6,0m-.13-13.48a8.28,8.28,0,0,0-.84,0,7.93,7.93,0,0,0-5.39,2.9,7.77,7.77,0,0,0-1.69,5.84,8,8,0,0,0,3,5.35,8.22,8.22,0,0,0,2.33,1.3,8.13,8.13,0,0,0,2.75.48,8.41,8.41,0,0,0,.85,0,7.93,7.93,0,0,0,5.39-2.9,7.78,7.78,0,0,0,1.69-5.84,8.15,8.15,0,0,0-8.09-7.13"/><path class="cls-1" d="M344.36,452.09a4.82,4.82,0,0,0-3.76,1.77,1.21,1.21,0,0,0,.2,1.71,1.29,1.29,0,0,0,.36.2,1.26,1.26,0,0,0,.42.07,1.22,1.22,0,0,0,1-.45,2.38,2.38,0,0,1,1.85-.87,2.45,2.45,0,0,1,1.52.52,1.23,1.23,0,0,0,1.73-.18,1.21,1.21,0,0,0-.2-1.71,4.92,4.92,0,0,0-3.07-1.07"/><path class="cls-1" d="M367.9,450.2a4.83,4.83,0,0,0-3.77,1.77,1.21,1.21,0,0,0,.2,1.71,1.26,1.26,0,0,0,.36.2,1.24,1.24,0,0,0,.42.07,1.22,1.22,0,0,0,1-.45,2.38,2.38,0,0,1,1.86-.88,2.43,2.43,0,0,1,1.52.53,1.24,1.24,0,0,0,.77.27,1.23,1.23,0,0,0,1-.45,1.21,1.21,0,0,0-.2-1.71,4.91,4.91,0,0,0-3.06-1.07"/><polygon class="cls-1" points="392.78 435.65 390.34 435.97 390.41 436.47 394.93 467.55 395.13 468.95 397.57 468.63 397.31 466.84 392.92 436.65 392.78 435.65"/><path class="cls-1" d="M274.41,153.42a8.2,8.2,0,0,1-2.78-.48c-5-1.8-7.36-8.17-5.2-14.18,1.77-4.93,6-8.12,10.26-8.12a8.18,8.18,0,0,1,2.78.48c5,1.8,7.36,8.17,5.2,14.18-1.77,4.93-6,8.12-10.26,8.12m2.27-25.21c-5.26,0-10.45,3.8-12.57,9.71-2.61,7.27.39,15,6.7,17.3a10.64,10.64,0,0,0,3.61.63c5.26,0,10.45-3.8,12.57-9.71,2.61-7.27-.4-15-6.7-17.3a10.65,10.65,0,0,0-3.61-.63"/><path class="cls-1" d="M256.68,183.26a44.78,44.78,0,0,1-15.15-2.66c-18.75-6.73-30.65-25.26-29-44.6a117.82,117.82,0,0,0,35.5,19.83,119.11,119.11,0,0,0,39.51,7.27c1.95,0,3.87-.06,5.75-.18a42.9,42.9,0,0,1-36.66,20.34m-43.77-50c0,.21-.06.41-.09.62l-2.34-.34c-3,21.2,9.76,41.93,30.26,49.29a47.19,47.19,0,0,0,16,2.8,45.2,45.2,0,0,0,39.82-23.45l1.06-1.93h-.07q-.48,1-1,1.93L294.45,161l.29-.54q-3.51.3-7.19.3a116.64,116.64,0,0,1-38.68-7.13c-13.82-5-26.23-12-36-20.42m-2.13-1.87-.3,2.15q.15-1.06.35-2.11l0,0"/><path class="cls-1" d="M255.61,94.72a45.06,45.06,0,0,0-44.79,36.67q-.2,1.05-.35,2.11l2.34.34c0-.21.06-.41.09-.62a42.52,42.52,0,0,1,2-7.86,43.11,43.11,0,0,1,40.72-28.3,44.15,44.15,0,0,1,14.95,2.61c22.69,8.14,34.63,32.92,26.61,55.23a43,43,0,0,1-2.46,5.57l-.29.54,2.08,1.13q.52-.95,1-1.93a45.27,45.27,0,0,0,1.9-4.51c8.44-23.52-4.14-49.64-28.05-58.23a46.56,46.56,0,0,0-15.76-2.76"/><path class="cls-1" d="M275,139.07a2.78,2.78,0,0,0-.91,5.4,2.87,2.87,0,0,0,1,.17,2.77,2.77,0,0,0,.91-5.4,2.86,2.86,0,0,0-1-.17"/><path class="cls-1" d="M277.87,388.69c-14.55,12.89-25.88,22.73-29.33,25.72l.16.11-1.39,2-.26.38,1.34.92.72-.62.3-.26-.52-.71-.65-.88,29.64-26.63m-84.13-9.06-.26.38L245,415.48l.26-.38-51.53-35.47M316,357.76,279.6,390.45c11-9.71,23.74-21.15,36.36-32.68m-114.23-4.18L192.5,376.5l-1.06-.29-1-.27-.26.68-.34.88,1.6,1.1.26-.37,1.13-1.62h0c1-2.68,4.28-11.21,8.89-23m23-63.89c-9.42,22.69-18.66,46.06-25.21,62.85l25.29-62.81-.08,0m23.37-47.37a35.71,35.71,0,0,1-5.55,6.1c-1.64,3.59-3.34,7.38-5.06,11.31l.22-.12,1.22,2.13q-1.46.81-3,1.51c-3.36,7.7-6.83,15.89-10.28,24.19.42.17.84.36,1.26.56l1,.47q1.74-4.19,3.48-8.32l-1.24-.85,1.4-2,.81.56c5.53-13.07,11-25.41,15.75-35.55m87.53-62.71a81.06,81.06,0,0,0-17.91,2.11c-26.74,6.07-53.08,24.19-64.05,44.06-2.28,4.13-4.89,9.33-7.71,15.29l.41-.58,2,1.34C251,236,253.58,231,255.81,227a62.42,62.42,0,0,1,6.71-9.7L260.73,216a82.74,82.74,0,0,1,7.77-8l1.74,1.2a100.41,100.41,0,0,1,9.66-7.77l-.27-.18,1.39-2,1,.7a109.55,109.55,0,0,1,36.22-15.87,83.44,83.44,0,0,1,11.22-1.78l-2.24-1.57,8.31-.66,2.93,2c9.53.42,18,3,24.63,7.57s12.19,11.63,16.09,20.45l2.7,1.86,1.58,8.18-.91-.64a88.91,88.91,0,0,1,2.58,12.56,110,110,0,0,1-1.72,37.69l2,1.36-1.39,2-1.17-.81A97.77,97.77,0,0,1,379.21,284l1.94,1.33a78.6,78.6,0,0,1-4.68,10.14l-2-1.35a57.77,57.77,0,0,1-6.83,9.84c-8.38,9.6-23.34,24.15-39.92,39.59l.89.61-1.4,2-1.31-.9c-3.82,3.55-7.73,7.14-11.64,10.72l4.77-4.29.83.8q.45.43.88.88c20-18.37,38.91-36.48,48.78-47.8C384,289,391.3,259.31,387.62,231.79c-2.55-19.06-10.09-34.16-21.34-42.82a2.44,2.44,0,0,1-1.84.83,2.49,2.49,0,0,1-.84-.15,2.53,2.53,0,0,1-.58-.29,2.43,2.43,0,0,1-.79-3.13c-7.39-4.37-16.48-6.6-26.62-6.6"/><path class="cls-1" d="M375.56,291.91l-111.17-76.3q2-2.26,4.37-4.46l109.39,75.07c-.8,2-1.67,3.87-2.58,5.69M268.5,208a82.72,82.72,0,0,0-7.77,8l1.78,1.22,112,76.85,2,1.35a78.71,78.71,0,0,0,4.68-10.14L379.21,284l-109-74.78L268.5,208"/><path class="cls-1" d="M335.57,180.1l-8.31.66,2.24,1.57,5.13,3.59a36.14,36.14,0,0,1,4.48-.83l.28,2.42s-.76.09-2,.33L374.66,214c-.23-1.57-.45-2.45-.46-2.49l2.38-.59a36.83,36.83,0,0,1,.85,5l5.18,3.63.91.64L381.93,212l-2.7-1.86-40.73-28-2.93-2"/><path class="cls-1" d="M281,199.28l-1.4,2,.27.18,103,70.86,1.17.81,1.4-2-2-1.36-15.87-10.92-.77,1.3-2.12-1.26q.44-.73.85-1.45l-66.62-45.86-1.07,1.3-1.93-1.53,1-1.17L282,200l-1-.7"/><path class="cls-1" d="M339.1,185.08a36.27,36.27,0,0,0-4.48.83c-7.64,1.84-23.66,7.5-37.73,24.28l-1,1.17,1.93,1.53,1.07-1.3c15-17.76,32.58-22.59,38.44-23.75,1.26-.25,2-.33,2-.33l-.28-2.42"/><path class="cls-1" d="M376.58,210.88l-2.38.59s.23.92.47,2.49c.94,6.33,2.13,23.9-9.11,43.49q-.42.72-.85,1.45l2.12,1.26.77-1.3c10.69-18.48,10.71-35,9.84-43a36.84,36.84,0,0,0-.84-5"/><polygon class="cls-1" points="231.52 277.32 230.12 279.31 231.36 280.16 325.92 345.25 327.24 346.15 328.63 344.16 327.75 343.55 310.67 331.8 310.19 332.48 308.16 331.08 308.63 330.4 251.51 291.08 251.03 291.76 249 290.37 249.48 289.68 232.32 277.87 231.52 277.32"/><polygon class="cls-1" points="287.88 234.88 249.48 289.68 249 290.37 251.03 291.76 251.51 291.08 289.91 236.28 287.88 234.88"/><polygon class="cls-1" points="347.04 275.59 308.63 330.4 308.16 331.08 310.19 332.48 310.67 331.8 349.07 276.99 347.04 275.59"/><path class="cls-1" d="M245.13,394.61a4.57,4.57,0,0,1-2.6-.81l-28-19.25a4.45,4.45,0,0,1-1.28-6l36.6-58a4.42,4.42,0,0,1,2.91-2,4.66,4.66,0,0,1,.9-.09,4.53,4.53,0,0,1,2.59.81l33.39,23a4.48,4.48,0,0,1,1.9,3,4.34,4.34,0,0,1-.86,3.4l-42,54.24a4.49,4.49,0,0,1-3.56,1.73m8.55-88.6a7.16,7.16,0,0,0-1.39.14,6.83,6.83,0,0,0-4.5,3.07l-36.6,58a6.87,6.87,0,0,0,2,9.34l28,19.25a7.17,7.17,0,0,0,1.64.84,7.08,7.08,0,0,0,2.39.42,6.93,6.93,0,0,0,5.49-2.67l42-54.24a6.73,6.73,0,0,0,1.33-5.26,6.91,6.91,0,0,0-2.94-4.62l-33.39-23a7,7,0,0,0-4-1.26"/><path class="cls-1" d="M193.48,380l.26-.37,51.53,35.47-.26.38-2.83,4-2.07-1.43-2.93,4.18-2.3-1.58-3.21,4.58a1.9,1.9,0,0,1-1.56.81,1.93,1.93,0,0,1-.66-.11,1.9,1.9,0,0,1-.45-.23l-39.63-27.28a1.89,1.89,0,0,1-.49-2.64l3.21-4.58-2.3-1.58,2.93-4.18-2.08-1.43,2.84-4m-.37-3.76-.26.38-1.13,1.62-.26.38-2.83,4-1.39,2,2,1.4,0,0-1.54,2.19-1.39,2,2,1.4.27.18-1.82,2.59a4.23,4.23,0,0,0-.7,3.23,4.36,4.36,0,0,0,1.83,2.8l39.63,27.28a4.46,4.46,0,0,0,2.52.79,4.36,4.36,0,0,0,3.57-1.84l1.82-2.59.27.18,2,1.4,1.39-2,1.54-2.19,0,0,2,1.4,1.4-2,2.83-4,.26-.37,1.39-2-.16-.11-1.87-1.29-51.53-35.47-2-1.4"/><path class="cls-1" d="M377,167a2.44,2.44,0,0,0-2,1l-12.59,18a2.41,2.41,0,0,0,.63,3.39,2.52,2.52,0,0,0,.58.29,2.49,2.49,0,0,0,.84.15,2.44,2.44,0,0,0,1.84-.83l.16-.21,12.6-18a2.42,2.42,0,0,0-.64-3.39A2.47,2.47,0,0,0,377,167"/><path class="cls-1" d="M146.21,392.24c-4-14.72-1.74-38.55,10.64-56.67a187.91,187.91,0,0,1,27.39-31c12.39-10.92,23.28-16.41,32.53-16.41a21.08,21.08,0,0,1,7.18,1.22l.75.29.08,0-25.29,62.81-8.48,21a52,52,0,0,0-13-1.83c-13.13,0-23.11,6.56-31.79,20.48m70.63-106.46c-28.64,0-61.67,47.88-62,48.42-11.92,17.45-16.27,43.85-10.11,61.42l.89,2.54,1.34-2.32c9.81-16.94,20.74-21.69,31.26-21.69a48.53,48.53,0,0,1,12.26,1.79l1,.27,1.06.29,9.23-22.92,26.21-65.08-.06,0-1-.47c-.42-.2-.84-.38-1.26-.55a23.25,23.25,0,0,0-8.78-1.67"/><path class="cls-1" d="M316,357.76l3-2.73c20.73,22.13-19.21,78.53-19.62,79.1-12.47,17.41-30.94,28.36-49.88,29.71,13.26-16.9,13.85-31.48,2-48.16l28.08-25.24L316,357.76m3.09-6.08L314.28,356l-36.41,32.72-29.64,26.64.65.88.52.71c8.35,11.66,14.12,26.42-3.53,47.49l-1.73,2.06,2.72-.06c20.64-.45,41-12,54.54-30.85.42-.59,41.51-58.63,19.37-82.2q-.42-.45-.88-.88l-.83-.8"/><path class="cls-1" d="M259.26,355.33a15.18,15.18,0,0,1-8.62-2.69,14.87,14.87,0,0,1-6.25-9.55,14.44,14.44,0,0,1,2.38-11A14.86,14.86,0,0,1,259,325.76a15.14,15.14,0,0,1,8.61,2.68,14.69,14.69,0,0,1-8.34,26.89m-.3-31.6a16.89,16.89,0,0,0-13.89,7.15,16.43,16.43,0,0,0-2.71,12.56,16.91,16.91,0,0,0,7.1,10.86,17.25,17.25,0,0,0,9.8,3.05,16.7,16.7,0,0,0,9.49-30.57,17.24,17.24,0,0,0-9.8-3"/><path class="cls-1" d="M345,232.24a14.55,14.55,0,0,1-8.27-2.58,14.29,14.29,0,0,1-6-9.18A13.88,13.88,0,0,1,333,209.87a14.27,14.27,0,0,1,11.73-6,14.55,14.55,0,0,1,8.27,2.57A14.09,14.09,0,0,1,347.5,232a14.7,14.7,0,0,1-2.5.22m-.27-30.35a16.23,16.23,0,0,0-13.34,6.86,15.78,15.78,0,0,0-2.6,12.06,16.26,16.26,0,0,0,6.82,10.43,16.81,16.81,0,0,0,3.84,2,16.45,16.45,0,0,0,5.56,1,16.76,16.76,0,0,0,2.85-.25,16,16,0,0,0,6.27-29.12,16.55,16.55,0,0,0-9.41-2.93"/><path class="cls-1" d="M270,339h0a1,1,0,0,0-1,1.07,9.5,9.5,0,0,1-1.72,6.11,9.7,9.7,0,0,1-6.35,4,10,10,0,0,1-7.41-1.63,1.05,1.05,0,0,0-.59-.18,1,1,0,0,0-.57,1.84,12.18,12.18,0,0,0,2.8,1.44,12,12,0,0,0,4.06.71,12.31,12.31,0,0,0,2.08-.18,11.73,11.73,0,0,0,7.67-4.84,11.49,11.49,0,0,0,2.08-7.38,1,1,0,0,0-1.06-1"/><path class="cls-1" d="M265.29,330.71a1,1,0,0,0-.57,1.84,9.91,9.91,0,0,1,3.61,4.5,1,1,0,0,0,.61.59,1,1,0,0,0,.72,0,1,1,0,0,0,.58-1.31,12,12,0,0,0-4.35-5.44,1.06,1.06,0,0,0-.59-.18"/><path class="cls-1" d="M355.7,216.53h0a1,1,0,0,0-1,1.07,9.47,9.47,0,0,1-1.72,6.11,9.7,9.7,0,0,1-6.35,4,10,10,0,0,1-7.41-1.63,1.07,1.07,0,0,0-.59-.18,1,1,0,0,0-.57,1.84,12.24,12.24,0,0,0,2.8,1.44,12,12,0,0,0,4.07.71,12.24,12.24,0,0,0,2.08-.18,11.73,11.73,0,0,0,7.67-4.84,11.47,11.47,0,0,0,2.08-7.38,1,1,0,0,0-1.06-1"/><path class="cls-1" d="M351,208.26a1,1,0,0,0-.57,1.84A9.88,9.88,0,0,1,354,214.6a1,1,0,0,0,.61.59,1.05,1.05,0,0,0,.35.06,1,1,0,0,0,.36-.07,1,1,0,0,0,.58-1.31,11.92,11.92,0,0,0-4.35-5.44,1.08,1.08,0,0,0-.6-.18"/><path class="cls-1" d="M166.57,247.17l-1.65,1.4q1.09,0,2.17-.14l.24,2.42-.63.05a55.21,55.21,0,0,0,9.39,7.68q1.51-.27,3-.6l.28,1.19.61-1a52.89,52.89,0,0,1-13.41-11"/><path class="cls-1" d="M98.09,214.2q-1.1.68-2.23,1.27c3.34,14.1,12,26,25.22,34.55a73.7,73.7,0,0,0,15.11,7.44,80.15,80.15,0,0,0,27,4.68,76.73,76.73,0,0,0,16-1.67l-.42-.24.61-1-.28-1.19q-1.49.33-3,.6A76.28,76.28,0,0,1,122.42,248c-12.87-8.32-21.27-20-24.33-33.79"/><path class="cls-1" d="M180,258.13h0l-.62,1-.61,1,.42.24a60.82,60.82,0,0,0,9.49,4.35,65.66,65.66,0,0,0,22.09,3.82,59.52,59.52,0,0,0,25.16-5.37q1.52-.71,3-1.51l-1.22-2.12-.22.12a56.17,56.17,0,0,1-26.68,6.36,62.14,62.14,0,0,1-30.79-8"/><path class="cls-1" d="M187,176c-13.91,0-28.05,7.19-32.37,25-5.67,23.29,2.23,38.75,9.93,47.66h.36l1.65-1.4c-10.56-12.11-13.86-27.9-9.54-45.66,4-16.46,17.13-23.12,30.06-23.12a38.56,38.56,0,0,1,8.49,1c15.05,3.4,29.49,16.16,25.48,36.08-4.29,21.31-17.26,32.09-27.59,37.42l.52.2-.43,1.13L194,253q1.26.49,2.58.91c10.43-5.89,22.69-17.11,26.91-38,4.33-21.52-11.15-35.29-27.37-38.95a41.29,41.29,0,0,0-9.1-1"/><path class="cls-1" d="M246.34,240.5l-.41.58c-7.8,10.73-20.88,15.29-33.59,15.29A52.15,52.15,0,0,1,196.57,254q-1.32-.42-2.58-.91l-.43,1.13-.43,1.13.89.33a54.89,54.89,0,0,0,18.36,3.11c10.84,0,21.92-3.14,30.16-10.32a35.71,35.71,0,0,0,5.55-6.1l.31-.44-.08-.05-2-1.34"/><path class="cls-1" d="M109.48,203.35l-.2.29q-1.07,1.53-2.26,2.92a40.69,40.69,0,0,0,13.18,28.5,58,58,0,0,0,20.24,12.12,65.51,65.51,0,0,0,22,3.89q2.16,0,4.3-.16l.63,0-.24-2.42q-1.08.09-2.17.14h-.36q-1.11,0-2.22,0c-14.91,0-30.37-5.77-40.45-15.32a38.33,38.33,0,0,1-12.41-30"/><path class="cls-1" d="M182.29,246.38q-1,.35-2.11.66l-.66.19a45,45,0,0,0,13.6,8.08l.43-1.13L194,253l-.52-.2a42.72,42.72,0,0,1-11.18-6.46"/><path class="cls-1" d="M180.13,244.51c-9.66-9-13.52-22-10.87-36.7a20.49,20.49,0,0,1,20.3-17.33,19.68,19.68,0,0,1,3.43.3,18.05,18.05,0,0,1,3,.79c7.25,2.6,13.75,10.17,11.42,24.63-2.93,18.17-18,25.5-27.25,28.31M189.54,188a22.87,22.87,0,0,0-22.7,19.31C164,223.13,168.3,237.13,179,246.77l.52.47h0l.66-.19q1.07-.31,2.11-.66c15.3-5.1,25.28-15.85,27.52-29.78,2.93-18.18-7-26.58-16.42-28.23a22.14,22.14,0,0,0-3.86-.34"/><path class="cls-1" d="M77.42,217.6a37,37,0,0,1-21-6.54c-16.63-11.43-20.88-34-9.47-50.29A35.55,35.55,0,0,1,57,151.08a36.57,36.57,0,0,1,19.65-5.71,37,37,0,0,1,12.51,2.18,37.42,37.42,0,0,1,8.57,4.4A36.65,36.65,0,0,1,107.7,162l.48.75a35.73,35.73,0,0,1-.93,39.44A36.27,36.27,0,0,1,77.42,217.6m-.75-74.66a39.06,39.06,0,0,0-15.82,3.34l-2.72,3.62a1.23,1.23,0,0,1-1.4.41,1.2,1.2,0,0,1-.32-.17l0,0-.24-.06-.06,0-1.16-.48a38,38,0,0,0-10,9.83C32.73,176.76,37.26,200.84,55,213a39.57,39.57,0,0,0,40.85,2.43q1.13-.6,2.23-1.27a38,38,0,0,0,8.94-7.65q1.19-1.39,2.26-2.92l.2-.29a37.9,37.9,0,0,0,6.34-26.29l-2.33-1.79a1.21,1.21,0,0,1,.73-2.18,1.25,1.25,0,0,1,.77.26l.21.16a38.65,38.65,0,0,0-4.92-12l-.51-.8a39,39,0,0,0-4-5.08,1.22,1.22,0,0,1-1.14.78h0a1.24,1.24,0,0,1-1.24-1.22l0-1.95a40.13,40.13,0,0,0-4.2-3.32,39.72,39.72,0,0,0-22.5-7"/><path class="cls-1" d="M83.89,122.68a16.89,16.89,0,0,0-4.18.53q.19.23.39.44a1.2,1.2,0,0,1-.07,1.72,1.22,1.22,0,0,1-.82.32,1.26,1.26,0,0,1-.92-.4,11.49,11.49,0,0,1-1-1.26,16.46,16.46,0,0,0-6.69,5.2L66,135.31h0a1.22,1.22,0,0,1,.63,1.61,1.17,1.17,0,0,1-1.08.71,1.43,1.43,0,0,1-.54-.11l-.51-.23-7.8,10.36.3.13a1.21,1.21,0,0,1-.46,2.33h-.19l0,0a1.18,1.18,0,0,0,.32.17,1.25,1.25,0,0,0,.42.07,1.22,1.22,0,0,0,1-.48l2.72-3.62,11.73-15.58a14.3,14.3,0,0,1,12.84-5.5l7,.74a12.33,12.33,0,0,1,10.81,9.77l.17,17.56,0,1.95a1.24,1.24,0,0,0,1.24,1.22h0a1.21,1.21,0,0,0,1.14-.78,1.18,1.18,0,0,0,.08-.43l-.06-5.93L104.21,148a1.21,1.21,0,0,1-.21-1.71,1.24,1.24,0,0,1,1-.46,1.22,1.22,0,0,1,.77.27l0,0-.11-10.66a14.56,14.56,0,0,0-3.8-7.43,1.21,1.21,0,0,1-1.18.93,1.25,1.25,0,0,1-.27,0l-.16,0a1.23,1.23,0,0,1-.79-1.41q.14-.67.3-1.28a14.87,14.87,0,0,0-5.59-2.48c0,.24,0,.48,0,.72A1.21,1.21,0,0,1,93,125.75H93a1.24,1.24,0,0,1-1.25-1.15,9.75,9.75,0,0,1,0-1.18l-2.76-.29a1.2,1.2,0,0,1-.77,1.41,1.24,1.24,0,0,1-.42.07,1.26,1.26,0,0,1-.42-.07,1.24,1.24,0,0,1-.74-.73c0-.07-.16-.42-.34-1l-.6-.06a16.89,16.89,0,0,0-1.77-.09"/><path class="cls-1" d="M86.16,107.4a1.17,1.17,0,0,0-1.08.76c-1.9,4.52.28,12,1.17,14.68.18.55.32.9.34,1a1.24,1.24,0,0,0,1.59.73,1.2,1.2,0,0,0,.77-1.42,1.29,1.29,0,0,0,0-.14,34.52,34.52,0,0,1-2.11-10.21,10.45,10.45,0,0,1-1.5-1.49,1.2,1.2,0,0,1,.15-1.71,1.24,1.24,0,0,1,.78-.27,1.25,1.25,0,0,1,.93.41,5.65,5.65,0,0,1,.21-.6,1.22,1.22,0,0,0-.67-1.59,1.33,1.33,0,0,0-.53-.12"/><path class="cls-1" d="M83.89,97.31A7.09,7.09,0,0,0,79,99.41c-5.05,4.9-6.49,17.78-1.74,24.63a11.39,11.39,0,0,0,1,1.26,1.25,1.25,0,0,0,.92.4,1.21,1.21,0,0,0,.89-2l-.39-.44c-4.6-5.66-3.41-17.73,1-22.06a4.45,4.45,0,0,1,3.14-1.41c1.46,0,3,.79,4.74,2.38A5.53,5.53,0,0,1,89.73,104c.66,2.66.14,7.09-.64,7.35h0c-.07,0-.67-.08-1.92-1.56l0,0a1.25,1.25,0,0,0-1.71-.14,1.2,1.2,0,0,0-.15,1.71,10.45,10.45,0,0,0,1.5,1.49,3.83,3.83,0,0,0,2.32,1,2.5,2.5,0,0,0,1.11-.26c3-1.45,2.34-8.36,1.91-10.08a7.75,7.75,0,0,0-1.8-3c-2.46-2.3-4.63-3.06-6.43-3.06"/><path class="cls-1" d="M105,145.87a1.23,1.23,0,0,0-1,.46,1.21,1.21,0,0,0,.21,1.71l1.59,1.24,25.63,20.07c5.17,4.08,7.53,9.7,5.25,12.52a4.94,4.94,0,0,1-4,1.57,16.45,16.45,0,0,1-9.53-3.83l-7.94-6.09-.21-.16a1.25,1.25,0,0,0-.77-.26,1.21,1.21,0,0,0-.73,2.18l2.33,1.79,5.81,4.45a21.93,21.93,0,0,0,6.1,3.44,14.74,14.74,0,0,0,4.93.93,7.36,7.36,0,0,0,5.95-2.49c3.17-3.94.68-10.94-5.67-15.95l-27.18-21.28,0,0a1.22,1.22,0,0,0-.77-.27"/><path class="cls-1" d="M36.17,123.77a14.62,14.62,0,0,0-1.61.09c-3.32.36-5.73,1.84-6.78,4.15-1.84,4.05,1.17,9.36,7,12.84a24.09,24.09,0,0,0,2.49,1.3l.54.22,17.13,7.17,1.15.48.06,0,.24.06h.18a1.21,1.21,0,0,0,.46-2.34l-.3-.12-18.49-7.74c-6-2.71-9.69-7.6-8.19-10.9.68-1.5,2.4-2.48,4.82-2.75a12.51,12.51,0,0,1,1.37-.07,18.42,18.42,0,0,1,7.44,1.74l20.85,9.36.51.23a1.43,1.43,0,0,0,.54.11,1.17,1.17,0,0,0,1.08-.71,1.22,1.22,0,0,0-.62-1.61h0l-18.83-8.46-2.51-1.13-.62-.27a20.87,20.87,0,0,0-7.88-1.69"/><path class="cls-1" d="M106.45,109.41a11.11,11.11,0,0,0-2,.18c-6.54,1.21-12.4,7.71-12.74,13.82a9.75,9.75,0,0,0,0,1.18A1.24,1.24,0,0,0,93,125.76H93a1.21,1.21,0,0,0,1.15-1.28,6.82,6.82,0,0,1,0-.71c.17-5,5.36-10.78,10.76-11.77a9.1,9.1,0,0,1,1.64-.15c4.45,0,8.08,3.52,10.32,10.08,1,3,.85,5.16-.46,5.64a2,2,0,0,1-.68.11,3.8,3.8,0,0,1-3.28-2.19l-.45-1.1c-.75-1.87-1.41-3.49-2.83-4.27a6.84,6.84,0,0,0-3.3-1,4.51,4.51,0,0,0-1.85.39c-1.92.85-3.33,3.06-4.28,6.72-.11.41-.21.84-.3,1.28a1.23,1.23,0,0,0,.8,1.41l.16,0,.27,0a1.21,1.21,0,0,0,1.18-.93v0c1-4.46,2.27-5.9,3.21-6.31a2.07,2.07,0,0,1,.85-.17,4.47,4.47,0,0,1,2.09.66c.64.36,1.17,1.66,1.72,3l.47,1.14a6.29,6.29,0,0,0,5.56,3.71,4.51,4.51,0,0,0,1.54-.26c1-.37,4.17-2.09,1.92-8.68-3.41-10-9.13-11.75-12.76-11.75"/><path class="cls-1" d="M89.39,139.17,82.45,138l2.94-8,6.51,1.21-2.5,7.93m-4.82-11.74a1.21,1.21,0,0,0-1.14.79l-3.81,10.28a1.2,1.2,0,0,0,.09,1,1.25,1.25,0,0,0,.65.54l.21.05,9.48,1.62.21,0a1.21,1.21,0,0,0,1.16-.84l3.23-10.25a1.2,1.2,0,0,0-.12-1,1.25,1.25,0,0,0-.84-.57l-8.9-1.65-.23,0"/><path class="cls-1" d="M82.71,180.64l.63.58a1.27,1.27,0,0,0,.86.34l.2,0a1.26,1.26,0,0,0,.36-.12,1.23,1.23,0,0,1-.55.13,1.28,1.28,0,0,1-.87-.34l-.63-.58m-4.35-5.95h0m-.11-.06.06,0-.06,0m-6.47-.2q.85.29,1.7.63c-.56-.23-1.13-.44-1.7-.63m2.62-1.61a39,39,0,0,1,3.83,1.8,38.94,38.94,0,0,0-3.83-1.8h0m2.07-24.42a27.46,27.46,0,0,0-8.69,1.39,21.68,21.68,0,0,0-13.61,12.3,20.71,20.71,0,0,0-1.32,10.51c.21-.16.43-.31.66-.45l.06,0a16,16,0,0,1,8.27-1.93h0a17.89,17.89,0,0,0-6.63,1.13A17.92,17.92,0,0,1,56.47,163,19.3,19.3,0,0,1,68.6,152.09a25,25,0,0,1,7.91-1.26,27.86,27.86,0,0,1,9.41,1.67l1.13.43c7.82,3.17,13.55,9.38,15.47,16.55a10.1,10.1,0,0,0-3.4-.56c-4,0-8.57,2-12.27,5.74a21,21,0,0,0-3,3.76q.61.51,1.17,1.05a1.21,1.21,0,0,1,.27,1.38,18.54,18.54,0,0,1,3.3-4.48c3.2-3.22,7.22-5,10.54-5a6.52,6.52,0,0,1,4.3,1.41l.15.11a1.34,1.34,0,0,1-.17-1.72,1.29,1.29,0,0,1,.95-.49,1,1,0,0,1,.66.25l.36.3c-1.43-8.9-8.07-16.74-17.44-20.54a30.62,30.62,0,0,0-11.49-2.28"/><path class="cls-1" d="M104.38,170.67a1.29,1.29,0,0,0-.95.49,1.34,1.34,0,0,0,.17,1.71l.11.11c3.3,3.2,1.9,9.92-3.13,15-3.05,3.08-9.06,4.21-13.08,4.21A14.38,14.38,0,0,1,85,192l-.23,0a1.22,1.22,0,0,0-1,.52,11.78,11.78,0,0,1-9.86,4.67,16.64,16.64,0,0,1-7.39-1.79c-9.59-4.78-15.6-14.3-13.79-18.75a5.15,5.15,0,0,1,2.15-2.4l0,0,0,0a1.23,1.23,0,0,1-.65.18,1.25,1.25,0,0,1-1.05-.57,1.2,1.2,0,0,1,.38-1.67l.06,0-.06,0c-.23.14-.45.29-.66.45a7.26,7.26,0,0,0-2.44,3.08c-2.5,6.15,4.78,16.76,15,21.85a19.9,19.9,0,0,0,2.13.91,18.8,18.8,0,0,0,6.33,1.12,14.44,14.44,0,0,0,11.45-5.07,19,19,0,0,0,2.14.11c4.58,0,11.31-1.32,14.89-4.92,6-6,7.35-14.28,3.08-18.42l0,0-.36-.3a1,1,0,0,0-.66-.26"/><path class="cls-1" d="M61.85,170.18a16,16,0,0,0-8.27,1.93l-.06,0a1.2,1.2,0,0,0-.38,1.67,1.23,1.23,0,0,0,.63.5,1.25,1.25,0,0,0,.42.07,1.23,1.23,0,0,0,.65-.18l0,0a13.49,13.49,0,0,1,6.92-1.57,31.11,31.11,0,0,1,10,1.82c.57.2,1.13.41,1.7.63h0a32.34,32.34,0,0,1,9.22,5.57l.63.58a1.27,1.27,0,0,0,.87.34,1.23,1.23,0,0,0,.55-.13,1.19,1.19,0,0,0,.32-.24,1.18,1.18,0,0,0,.23-.34,1.21,1.21,0,0,0-.27-1.38q-.56-.54-1.17-1.05a33,33,0,0,0-5.5-3.72h0l-.05,0-.06,0h0a38.89,38.89,0,0,0-3.83-1.8,34.41,34.41,0,0,0-12.12-2.64h-.44"/><path class="cls-1" d="M86.67,168.23a3.84,3.84,0,0,1-3.76-3.1,3.67,3.67,0,0,1,.6-2.8,3.7,3.7,0,0,1,2.43-1.54,3.92,3.92,0,0,1,.66-.06,3.79,3.79,0,0,1,3.82,3.78,2.27,2.27,0,0,1-2,3.45l-.34,0a3.84,3.84,0,0,1-.79.23,3.93,3.93,0,0,1-.66.06m-.09-9.92a6.36,6.36,0,0,0-1.09.09,6.13,6.13,0,0,0-4,2.54,6,6,0,0,0-1,4.61,6.22,6.22,0,0,0,2.61,4,6.37,6.37,0,0,0,1.46.75,6.28,6.28,0,0,0,2.13.37,6.41,6.41,0,0,0,1.09-.1,6.15,6.15,0,0,0,4-2.54,6,6,0,0,0,1-4.61,6.21,6.21,0,0,0-2.61-4,6.33,6.33,0,0,0-3.6-1.12"/><path class="cls-1" d="M70.43,168.41a3.79,3.79,0,0,1-2.17-.68,3.72,3.72,0,0,1,2.11-6.8,3.85,3.85,0,0,1,1.3.23,3.93,3.93,0,0,1,.88.45,3.78,3.78,0,0,1,1.64,3.33,2.27,2.27,0,0,1,.15,1.86,2.29,2.29,0,0,1-2.17,1.51,2.35,2.35,0,0,1-.56-.07,3.86,3.86,0,0,1-1.17.18m-.09-9.92a6.13,6.13,0,0,0-3.48,11.23,6.33,6.33,0,0,0,3.6,1.12,6.2,6.2,0,0,0,5.1-2.62h0a6.17,6.17,0,0,0-1.62-8.6,6.35,6.35,0,0,0-3.6-1.12"/><path class="cls-1" d="M77.32,152.37a6.24,6.24,0,0,0-4.44,1.76,1.21,1.21,0,0,0,0,1.72,1.26,1.26,0,0,0,.88.36,1.23,1.23,0,0,0,.86-.35,3.81,3.81,0,0,1,2.72-1.06,5.44,5.44,0,0,1,3.76,1.62,1.25,1.25,0,0,0,1.74,0,1.2,1.2,0,0,0,0-1.72,8,8,0,0,0-5.52-2.33"/><path class="cls-1" d="M58.82,206.36a1.21,1.21,0,0,0-.68,2.22,34.08,34.08,0,0,0,19.32,6,33.56,33.56,0,0,0,17.22-4.73,1.2,1.2,0,0,0,.4-1.67,1.25,1.25,0,0,0-1.06-.59,1.23,1.23,0,0,0-.63.17,31.08,31.08,0,0,1-16,4.38,31.57,31.57,0,0,1-17.89-5.55,1.26,1.26,0,0,0-.71-.22"/><path class="cls-1" d="M103.68,198.57a1.21,1.21,0,0,0-1,.52,30.34,30.34,0,0,1-4.06,4.7,1.21,1.21,0,0,0,0,1.72,1.24,1.24,0,0,0,.48.31,1.26,1.26,0,0,0,.42.07,1.23,1.23,0,0,0,.84-.33,32.8,32.8,0,0,0,4.38-5.07,1.21,1.21,0,0,0-.32-1.69,1.25,1.25,0,0,0-.72-.23"/><path class="cls-1" d="M72.12,163.71a2.29,2.29,0,0,0-.75,4.45l.24.07a2.35,2.35,0,0,0,.56.07,2.29,2.29,0,0,0,2.17-1.51,2.27,2.27,0,0,0-.15-1.86,2.36,2.36,0,0,0-2.07-1.22"/><path class="cls-1" d="M88.41,163.38a2.29,2.29,0,0,0-.75,4.45,2.42,2.42,0,0,0,.46.12l.34,0a2.29,2.29,0,0,0,2.17-1.51,2.27,2.27,0,0,0-.19-1.94,2.37,2.37,0,0,0-2-1.14"/><path class="cls-1" d="M113.28,87.53c17.59-13.37,57.47-31.74,90.39-31.74,1.38,0,2.76,0,4.11.1h0a20.68,20.68,0,0,1,20.27,18.22A20.07,20.07,0,0,1,210,96.27q-1,.1-2.06.1a20.71,20.71,0,0,1-8.75-1.93c-16.43-8.53-35-11.71-51.75-11.71a116.91,116.91,0,0,0-34.15,4.8m90.42-34.17c-37.43,0-83.74,23.36-97.38,36.89L101.57,95l6.15-2.74c9.09-4,23.55-7.08,39.72-7.08,16.41,0,34.58,3.12,50.67,11.48A23.27,23.27,0,0,0,208,98.8q1.15,0,2.3-.11a22.6,22.6,0,0,0,15.4-8.2,22.12,22.12,0,0,0,4.9-16.61,23.13,23.13,0,0,0-22.69-20.41c-1.37-.07-2.76-.1-4.16-.1"/><path class="cls-1" d="M207.65,91.62A15.74,15.74,0,0,1,192,77.77a15.27,15.27,0,0,1,13.78-16.84q.78-.08,1.56-.08A15.77,15.77,0,0,1,223,74.7a15.27,15.27,0,0,1-13.78,16.84q-.79.08-1.57.08m-.33-33.21c-.6,0-1.2,0-1.81.09a17.83,17.83,0,0,0-12.32,6.73l1,0,.15,2.43-1.23.06-1.53.09a17.42,17.42,0,0,0-2,10.25,17.8,17.8,0,0,0,.74,3.45l1.62.77,1.11.54L192,84.95l-.15-.07a18.35,18.35,0,0,0,15.87,9.18q.9,0,1.8-.09a17.68,17.68,0,0,0,16-19.51,18.24,18.24,0,0,0-18.12-16"/><path class="cls-1" d="M208.38,64q-.61,0-1.23.06a1.2,1.2,0,0,0-1.09,1.33,1.24,1.24,0,0,0,1.23,1.09h.12q.5,0,1,0a10,10,0,0,1,9.91,8.78,9.67,9.67,0,0,1-8.72,10.67,1.2,1.2,0,0,0-1.09,1.33,1.24,1.24,0,0,0,1.23,1.1h.12a12.08,12.08,0,0,0,10.9-13.33,12.46,12.46,0,0,0-12.39-11"/><path class="cls-1" d="M194.15,65.19l-1,0h-.28c-17.11.85-33.31,5.52-44,9L139,77.4l10.45-.83c1.69-.13,3.72-.23,6-.23a81,81,0,0,1,35.41,8.07l1,.47.15.07L193,82.77l-1.11-.54-1.62-.77a83.64,83.64,0,0,0-32.2-7.51,160.19,160.19,0,0,1,33.44-6.18l1.53-.09,1.23-.06-.15-2.43"/></g></g></svg>