<?xml version="1.0" encoding="utf-8"?>
<!-- Generator: Adobe Illustrator 21.0.2, SVG Export Plug-In . SVG Version: 6.00 Build 0)  -->
<svg version="1.1" id="Capa_1" xmlns="http://www.w3.org/2000/svg" xmlns:xlink="http://www.w3.org/1999/xlink" x="0px" y="0px"
	 viewBox="0 0 435.7 490.3" style="enable-background:new 0 0 435.7 490.3;" xml:space="preserve">
<style type="text/css">
	.st0{fill:#FFFFFF;}
</style>
<title>fondo-booking</title>
<g id="Capa_2">
	<g id="Capa_1-2">
		<path class="st0" d="M158.1,490.3c30.7,0,61.3-5,90.4-14.8c59-20,109.8-59.2,143.2-110.7l-0.6-0.3l-2.5-1.1
			c-33,50.6-83.1,89.2-141.2,108.9c-28.8,9.7-58.9,14.7-89.3,14.6c-55.9,0-110.6-16.6-157-47.7v4
			C47.6,473.9,102.2,490.3,158.1,490.3"/>
		<path class="st0" d="M0.5,442.9v-4L0,438.6v4L0.5,442.9"/>
		<path class="st0" d="M1,443.3v-4l-0.5-0.3v4L1,443.3"/>
		<path class="st0" d="M326.6,0L326.6,0z"/>
		<path class="st0" d="M400.9,349.4c7.4-13.2,13.7-26.9,18.8-41.1C460,195.9,421.7,73.9,333.1,1h-5.3
			c89.7,71.7,128.9,193.8,88.6,306.1c-5.1,14.1-11.3,27.7-18.6,40.8l0.5,0.2C399.3,348.5,400.1,348.9,400.9,349.4"/>
		<path class="st0" d="M327.2,0.5h5.3L331.9,0h-5.3L327.2,0.5"/>
		<path class="st0" d="M327.9,1h5.3l-0.6-0.5h-5.3L327.9,1"/>
		<path class="st0" d="M354.6,261.4c2,0,3.7-1.6,3.7-3.6c0-1.6-1-3-2.5-3.5c-0.4-0.1-0.8-0.2-1.3-0.2c-2,0-3.7,1.6-3.7,3.6
			c0,1.6,1,3,2.5,3.5C353.7,261.3,354.1,261.4,354.6,261.4"/>
		<path class="st0" d="M301.4,119.3c2,0,3.7-1.6,3.7-3.6c0-1.6-1-3-2.5-3.5c-0.4-0.1-0.8-0.2-1.3-0.2c-2,0-3.7,1.6-3.7,3.6
			c0,1.6,1,3,2.5,3.5C300.5,119.2,300.9,119.3,301.4,119.3"/>
		<path class="st0" d="M345.8,120.8c2,0,3.7-1.6,3.7-3.6c0-1.6-1-3-2.5-3.5c-0.4-0.1-0.8-0.2-1.3-0.2c-2,0-3.7,1.6-3.7,3.6
			c0,1.6,1,3,2.5,3.5C345,120.7,345.4,120.8,345.8,120.8"/>
		<path class="st0" d="M370.1,195.2c2,0,3.7-1.6,3.7-3.6c0-1.6-1-3-2.5-3.5c-0.4-0.1-0.8-0.2-1.3-0.2c-2,0-3.7,1.6-3.7,3.6
			c0,1.6,1,3,2.5,3.5C369.3,195.1,369.7,195.2,370.1,195.2"/>
		<path class="st0" d="M382.2,111.5c2,0,3.7-1.6,3.7-3.6c0-1.6-1-3-2.5-3.5c-0.4-0.1-0.8-0.2-1.3-0.2c-2,0-3.7,1.6-3.7,3.6
			c0,1.6,1,3,2.5,3.5C381.3,111.4,381.7,111.5,382.2,111.5"/>
		<path class="st0" d="M296.3,39.4c2,0,3.7-1.6,3.7-3.6c0-1.6-1-3-2.5-3.5c-0.4-0.1-0.8-0.2-1.3-0.2c-2,0-3.7,1.6-3.7,3.6
			c0,1.6,1,3,2.5,3.5C295.5,39.4,295.9,39.4,296.3,39.4"/>
		<path class="st0" d="M268.5,72.9c2,0,3.7-1.6,3.7-3.6c0-1.6-1-3-2.5-3.5c-0.4-0.1-0.8-0.2-1.3-0.2c-2,0-3.7,1.6-3.7,3.6
			c0,1.6,1,3,2.5,3.5C267.6,72.8,268,72.9,268.5,72.9"/>
		<path class="st0" d="M17.7,28.2c2,0,3.7-1.6,3.7-3.6c0-1.6-1-3-2.5-3.5c-0.4-0.1-0.8-0.2-1.3-0.2c-2,0-3.7,1.6-3.7,3.6
			c0,1.6,1,3,2.5,3.5C16.8,28.1,17.2,28.2,17.7,28.2"/>
		<polyline class="st0" points="23.3,0 25.8,0 25.8,0 23.3,0 23.3,0 		"/>
		<path class="st0" d="M24.6,0.3c0.4,0,0.9-0.1,1.3-0.2h-2.5C23.7,0.2,24.2,0.3,24.6,0.3"/>
		<path class="st0" d="M95.2,66.1c2,0,3.7-1.6,3.7-3.6c0-1.6-1-3-2.5-3.5c-0.4-0.1-0.8-0.2-1.3-0.2c-2,0-3.7,1.6-3.7,3.6
			c0,1.6,1,3,2.5,3.5C94.3,66.1,94.7,66.1,95.2,66.1"/>
		<path class="st0" d="M103.2,106.3c2,0,3.7-1.6,3.7-3.6c0-1.6-1-3-2.5-3.5c-0.4-0.1-0.8-0.2-1.3-0.2c-2,0-3.7,1.6-3.7,3.6
			c0,1.6,1,3,2.5,3.5C102.3,106.2,102.8,106.3,103.2,106.3"/>
		<path class="st0" d="M120.2,69.5c2,0,3.7-1.6,3.7-3.6c0-1.6-1-3-2.5-3.5c-0.4-0.1-0.8-0.2-1.3-0.2c-2,0-3.7,1.6-3.7,3.6
			c0,1.6,1,3,2.5,3.5C119.3,69.4,119.7,69.5,120.2,69.5"/>
		<path class="st0" d="M257.5,216.1c2,0,3.7-1.6,3.7-3.6c0-1.6-1-3-2.5-3.5c-0.4-0.1-0.8-0.2-1.3-0.2c-2,0-3.7,1.6-3.7,3.6
			c0,1.6,1,3,2.5,3.5C256.6,216,257.1,216.1,257.5,216.1"/>
		<path class="st0" d="M258.9,107.9c2,0,3.7-1.6,3.7-3.6c0-1.6-1-3-2.5-3.5c-0.4-0.1-0.8-0.2-1.3-0.2c-2,0-3.7,1.6-3.7,3.6
			c0,1.6,1,3,2.5,3.5C258,107.8,258.5,107.9,258.9,107.9"/>
		<path class="st0" d="M195.2,276.6c2,0,3.7-1.6,3.7-3.6c0-1.6-1-3-2.5-3.5c-0.4-0.1-0.8-0.2-1.3-0.2c-2,0-3.7,1.6-3.7,3.6
			c0,1.6,1,3,2.5,3.5C194.4,276.6,194.8,276.7,195.2,276.6"/>
		<path class="st0" d="M178.4,293.1c2,0,3.7-1.6,3.7-3.6c0-1.6-1-3-2.5-3.5c-0.4-0.1-0.8-0.2-1.3-0.2c-2,0-3.7,1.6-3.7,3.6
			c0,1.6,1,3,2.5,3.5C177.6,293,178,293.1,178.4,293.1"/>
		<path class="st0" d="M238.8,277.3c2,0,3.7-1.6,3.7-3.6c0-1.6-1-3-2.5-3.5c-0.4-0.1-0.8-0.2-1.3-0.2c-2,0-3.7,1.6-3.7,3.6
			c0,1.6,1,3,2.5,3.5C237.9,277.2,238.3,277.3,238.8,277.3"/>
		<path class="st0" d="M302.8,267c2,0,3.7-1.6,3.7-3.6c0-1.6-1-3-2.5-3.5c-0.4-0.1-0.8-0.2-1.3-0.2c-2,0-3.7,1.6-3.7,3.6
			c0,1.6,1,3,2.5,3.5C302,267,302.4,267,302.8,267"/>
		<path class="st0" d="M305.2,384c2,0,3.7-1.6,3.7-3.6c0-1.6-1-3-2.5-3.5c-0.4-0.1-0.8-0.2-1.3-0.2c-2,0-3.7,1.6-3.7,3.6
			c0,1.6,1,3,2.5,3.5C304.3,383.9,304.8,384,305.2,384"/>
		<path class="st0" d="M146.7,415.7c2,0,3.7-1.6,3.7-3.6c0-1.6-1-3-2.5-3.5c-0.4-0.1-0.8-0.2-1.3-0.2c-2,0-3.7,1.6-3.7,3.6
			c0,1.6,1,3,2.5,3.5C145.9,415.6,146.3,415.7,146.7,415.7"/>
		<path class="st0" d="M217.5,470.3c2,0,3.7-1.6,3.7-3.6c0-1.6-1-3-2.5-3.5c-0.4-0.1-0.8-0.2-1.3-0.2c-2,0-3.7,1.6-3.7,3.6
			c0,1.6,1,3,2.5,3.5C216.6,470.2,217.1,470.3,217.5,470.3"/>
		<path class="st0" d="M237,454c2,0,3.7-1.6,3.7-3.6c0-1.6-1-3-2.5-3.5c-0.4-0.1-0.8-0.2-1.3-0.2c-2,0-3.7,1.6-3.7,3.6
			c0,1.6,1,3,2.5,3.5C236.2,453.9,236.6,454,237,454"/>
		<path class="st0" d="M272.7,451c2,0,3.7-1.6,3.7-3.6c0-1.6-1-3-2.5-3.5c-0.4-0.1-0.8-0.2-1.3-0.2c-2,0-3.7,1.6-3.7,3.6
			c0,1.6,1,3,2.5,3.5C271.8,450.9,272.2,451,272.7,451"/>
		<path class="st0" d="M86.7,472.1c2,0,3.7-1.6,3.7-3.6c0-1.6-1-3-2.5-3.5c-0.4-0.1-0.8-0.2-1.3-0.2c-2,0-3.7,1.6-3.7,3.6
			c0,1.6,1,3,2.5,3.5C85.8,472,86.2,472.1,86.7,472.1"/>
		<path class="st0" d="M26.3,419.3c2,0,3.7-1.6,3.7-3.6c0-1.6-1-3-2.5-3.5c-0.4-0.1-0.8-0.2-1.3-0.2c-2,0-3.7,1.6-3.7,3.6
			c0,1.6,1,3,2.5,3.5C25.5,419.2,25.9,419.3,26.3,419.3"/>
		<path class="st0" d="M41.4,332.2c2,0,3.7-1.6,3.7-3.6c0-1.6-1-3-2.5-3.5c-0.4-0.1-0.8-0.2-1.3-0.2c-2,0-3.7,1.6-3.7,3.6
			c0,1.6,1,3,2.5,3.5C40.5,332.1,41,332.2,41.4,332.2"/>
		<path class="st0" d="M19.2,204.7c2,0,3.7-1.6,3.7-3.6c0-1.6-1-3-2.5-3.5c-0.4-0.1-0.8-0.2-1.3-0.2c-2,0-3.7,1.6-3.7,3.6
			c0,1.6,1,3,2.5,3.5C18.4,204.6,18.8,204.7,19.2,204.7"/>
		<path class="st0" d="M61.2,457.5c2,0,3.7-1.6,3.7-3.6c0-1.6-1-3-2.5-3.5c-0.4-0.1-0.8-0.2-1.3-0.2c-2,0-3.7,1.6-3.7,3.6
			c0,1.6,1,3,2.5,3.5C60.3,457.4,60.8,457.5,61.2,457.5"/>
		<path class="st0" d="M54.3,186.7c2,0,3.7-1.6,3.7-3.6c0-1.6-1-3-2.5-3.5c-0.4-0.1-0.8-0.2-1.3-0.2c-2,0-3.7,1.6-3.7,3.6
			c0,1.6,1,3,2.5,3.5C53.4,186.7,53.9,186.7,54.3,186.7"/>
		<path class="st0" d="M114.3,325.4c2,0,3.7-1.6,3.7-3.6c0-1.6-1-3-2.5-3.5c-0.4-0.1-0.8-0.2-1.3-0.2c-2,0-3.7,1.6-3.7,3.6
			c0,1.6,1,3,2.5,3.5C113.4,325.3,113.9,325.4,114.3,325.4"/>
		<path class="st0" d="M282.4,324.8c1.9,0,3.4-1.5,3.4-3.3c0-1.5-0.9-2.8-2.3-3.2c-0.4-0.1-0.8-0.2-1.2-0.2c-1.9,0-3.4,1.4-3.4,3.3
			c0,1.5,0.9,2.8,2.3,3.2C281.6,324.8,282,324.8,282.4,324.8"/>
		<path class="st0" d="M74,169c1.9,0,3.4-1.4,3.4-3.3c0-1.5-0.9-2.8-2.3-3.2c-0.4-0.1-0.8-0.2-1.2-0.2c-1.9,0-3.4,1.4-3.4,3.3
			c0,1.5,0.9,2.8,2.3,3.2C73.2,168.9,73.6,169,74,169"/>
		<path class="st0" d="M41.8,278c1.9,0,3.4-1.5,3.4-3.3c0-1.5-0.9-2.8-2.3-3.2c-0.4-0.1-0.8-0.2-1.2-0.2c-1.9,0-3.4,1.5-3.4,3.3
			c0,1.4,0.9,2.7,2.3,3.2C41,277.9,41.4,278,41.8,278"/>
		<path class="st0" d="M25,354.6c1.9,0,3.4-1.5,3.4-3.3c0-1.5-0.9-2.8-2.3-3.2c-0.4-0.1-0.8-0.2-1.2-0.2c-1.9,0-3.4,1.5-3.4,3.3
			c0,1.4,0.9,2.7,2.3,3.2C24.2,354.6,24.6,354.6,25,354.6"/>
		<path class="st0" d="M37.7,456.3c1.9,0,3.4-1.5,3.4-3.3c0-1.5-0.9-2.8-2.3-3.2c-0.4-0.1-0.8-0.2-1.2-0.2c-1.9,0-3.4,1.4-3.4,3.3
			c0,1.5,0.9,2.8,2.3,3.2C36.9,456.2,37.3,456.3,37.7,456.3"/>
		<path class="st0" d="M130.4,393.3c1.9,0,3.4-1.4,3.4-3.3c0-1.5-0.9-2.8-2.3-3.2c-0.4-0.1-0.8-0.2-1.2-0.2c-1.9,0-3.4,1.5-3.4,3.3
			c0,1.4,0.9,2.7,2.3,3.2C129.6,393.2,130,393.3,130.4,393.3"/>
		<path class="st0" d="M183,415.6c1.9,0,3.4-1.5,3.4-3.3c0-1.5-0.9-2.8-2.3-3.2c-0.4-0.1-0.8-0.2-1.2-0.2c-1.9,0-3.4,1.5-3.4,3.3
			c0,1.4,0.9,2.7,2.3,3.2C182.2,415.5,182.6,415.6,183,415.6"/>
		<path class="st0" d="M286.4,397.8c1.9,0,3.4-1.5,3.4-3.3c0-1.5-0.9-2.8-2.3-3.2c-0.4-0.1-0.8-0.2-1.2-0.2c-1.9,0-3.4,1.4-3.4,3.3
			c0,1.5,0.9,2.8,2.3,3.2C285.6,397.7,286,397.8,286.4,397.8"/>
		<path class="st0" d="M308,356.7c1.9,0,3.4-1.5,3.4-3.3c0-1.5-0.9-2.8-2.3-3.2c-0.4-0.1-0.8-0.2-1.2-0.2c-1.9,0-3.4,1.5-3.4,3.3
			c0,1.4,0.9,2.7,2.3,3.2C307.2,356.7,307.6,356.7,308,356.7"/>
		<path class="st0" d="M367.3,371c1.9,0,3.4-1.5,3.4-3.3c0-1.5-0.9-2.8-2.3-3.2c-0.4-0.1-0.8-0.2-1.2-0.2c-1.9,0-3.4,1.5-3.4,3.3
			c0,1.4,0.9,2.7,2.3,3.2C366.5,370.9,366.9,371,367.3,371"/>
		<path class="st0" d="M415.3,245.5c1.9,0,3.4-1.5,3.4-3.3c0-1.5-0.9-2.8-2.3-3.2c-0.4-0.1-0.8-0.2-1.2-0.2c-1.9,0-3.4,1.5-3.4,3.3
			c0,1.4,0.9,2.7,2.3,3.2C414.5,245.5,414.9,245.5,415.3,245.5"/>
		<path class="st0" d="M425.8,198c1.9,0,3.4-1.4,3.4-3.3c0-1.5-0.9-2.8-2.3-3.2c-0.4-0.1-0.8-0.2-1.2-0.2c-1.9,0-3.4,1.5-3.4,3.3
			c0,1.4,0.9,2.7,2.3,3.2C425,197.9,425.4,198,425.8,198"/>
		<path class="st0" d="M415.1,222c1.9,0,3.4-1.5,3.4-3.3c0-1.5-0.9-2.8-2.3-3.2c-0.4-0.1-0.8-0.2-1.2-0.2c-1.9,0-3.4,1.4-3.4,3.3
			c0,1.5,0.9,2.8,2.3,3.2C414.3,221.9,414.7,222,415.1,222"/>
		<path class="st0" d="M407.3,281.8c1.9,0,3.3-1.6,3.3-3.4c0-1.4-0.9-2.6-2.2-3.1c-0.4-0.1-0.8-0.2-1.2-0.2c-1.9,0-3.4,1.5-3.4,3.3
			c0,1.4,0.9,2.7,2.3,3.2C406.6,281.7,406.9,281.8,407.3,281.8"/>
		<path class="st0" d="M405.6,143.2c1.9,0,3.4-1.5,3.4-3.3c0-1.5-0.9-2.8-2.3-3.2c-0.4-0.1-0.8-0.2-1.2-0.2c-1.9,0-3.4,1.5-3.4,3.3
			c0,1.4,0.9,2.7,2.3,3.2C404.8,143.1,405.2,143.2,405.6,143.2"/>
		<path class="st0" d="M384.5,183.8c1.9,0,3.4-1.5,3.4-3.3c0-1.5-0.9-2.8-2.3-3.2c-0.4-0.1-0.8-0.2-1.2-0.2c-1.9,0-3.4,1.4-3.4,3.3
			c0,1.5,0.9,2.8,2.3,3.2C383.7,183.7,384.1,183.8,384.5,183.8"/>
		<path class="st0" d="M298.1,150.5c1.9,0,3.4-1.4,3.4-3.3c0-1.5-0.9-2.8-2.3-3.2c-0.4-0.1-0.8-0.2-1.2-0.2c-1.9,0-3.4,1.5-3.4,3.3
			c0,1.5,0.9,2.8,2.3,3.2C297.3,150.4,297.7,150.5,298.1,150.5"/>
		<path class="st0" d="M333.9,33.4c1.9,0,3.4-1.5,3.4-3.3c0-1.5-0.9-2.8-2.3-3.2c-0.4-0.1-0.8-0.2-1.2-0.2c-1.9,0-3.4,1.4-3.4,3.3
			c0,1.5,0.9,2.8,2.3,3.2C333.1,33.3,333.5,33.4,333.9,33.4"/>
		<path class="st0" d="M376.3,84.8c1.9,0,3.4-1.5,3.4-3.3c0-1.5-0.9-2.8-2.3-3.2c-0.4-0.1-0.8-0.2-1.2-0.2c-1.9,0-3.4,1.4-3.4,3.3
			c0,1.5,0.9,2.8,2.3,3.2C375.5,84.8,375.9,84.8,376.3,84.8"/>
		<path class="st0" d="M279.5,90.6c1.9,0,3.4-1.5,3.4-3.3c0-1.5-0.9-2.8-2.3-3.2c-0.4-0.1-0.8-0.2-1.2-0.2c-1.9,0-3.4,1.5-3.4,3.3
			c0,1.4,0.9,2.7,2.3,3.2C278.7,90.5,279,90.6,279.5,90.6"/>
		<path class="st0" d="M237.6,64.9c1.9,0,3.4-1.5,3.4-3.3c0-1.5-0.9-2.8-2.3-3.2c-0.4-0.1-0.8-0.2-1.2-0.2c-1.9,0-3.4,1.5-3.4,3.3
			c0,1.4,0.9,2.7,2.3,3.2C236.8,64.8,237.2,64.9,237.6,64.9"/>
		<path class="st0" d="M120.4,343.5c1.9,0,3.4-1.4,3.4-3.3c0-1.5-0.9-2.8-2.3-3.2c-0.4-0.1-0.8-0.2-1.2-0.2c-1.9,0-3.4,1.5-3.4,3.3
			c0,1.5,0.9,2.8,2.3,3.2C119.6,343.4,120,343.5,120.4,343.5"/>
		<path class="st0" d="M290.6,54.3c1.6,0.2,3.1-1,3.3-2.6c0.2-1.5-0.8-3-2.3-3.3c-0.3-0.1-0.7-0.2-1.1-0.2c-1.6-0.2-3.1,1.1-3.3,2.7
			c-0.1,1.5,0.8,2.8,2.3,3.2C289.9,54.2,290.3,54.3,290.6,54.3"/>
		<path class="st0" d="M131,8.7c1.9,0,3.4-1.4,3.4-3.3c0-1.5-0.9-2.8-2.3-3.2C131.7,2,131.3,2,130.9,2c-1.9,0-3.4,1.5-3.4,3.3
			c0,1.4,0.9,2.7,2.3,3.2C130.2,8.6,130.6,8.7,131,8.7"/>
		<path class="st0" d="M39.6,120.3c1.9,0,3.4-1.5,3.4-3.3c0-1.4-0.9-2.7-2.3-3.2c-0.4-0.1-0.8-0.2-1.2-0.2c-1.9,0-3.4,1.5-3.4,3.3
			c0,1.4,0.9,2.7,2.3,3.2C38.8,120.3,39.2,120.3,39.6,120.3"/>
		<path class="st0" d="M206.7,13.9c1.6,0.2,3.1-1,3.3-2.6c0.2-1.5-0.8-3-2.3-3.3c-0.3-0.1-0.7-0.2-1.1-0.2c-1.6-0.2-3.1,1-3.3,2.6
			c-0.2,1.5,0.8,3,2.3,3.3C205.9,13.9,206.3,13.9,206.7,13.9"/>
		<path class="st0" d="M184.5,50.6c1.9,0,3.4-1.4,3.4-3.3c0-1.5-0.9-2.8-2.3-3.2c-0.4-0.1-0.8-0.2-1.2-0.2c-1.9,0-3.4,1.5-3.4,3.3
			c0,1.5,0.9,2.8,2.3,3.2C183.7,50.5,184.1,50.6,184.5,50.6"/>
		<path class="st0" d="M261.1,192.9c1.9,0,3.4-1.4,3.4-3.3c0-1.5-0.9-2.8-2.3-3.2c-0.4-0.1-0.8-0.2-1.2-0.2c-1.9,0-3.4,1.4-3.4,3.3
			c0,1.5,0.9,2.8,2.3,3.2C260.3,192.8,260.7,192.9,261.1,192.9"/>
		<path class="st0" d="M347.2,223.4c1.9,0,3.4-1.5,3.4-3.3c0-1.5-0.9-2.8-2.3-3.2c-0.4-0.1-0.8-0.2-1.2-0.2c-1.9,0-3.4,1.4-3.4,3.3
			c0,1.5,0.9,2.8,2.3,3.2C346.4,223.3,346.8,223.4,347.2,223.4"/>
		<path class="st0" d="M223.2,320.1c1.9,0,3.4-1.5,3.4-3.3c0-1.5-0.9-2.8-2.3-3.2c-0.4-0.1-0.8-0.2-1.2-0.2c-1.9,0-3.4,1.4-3.4,3.3
			c0,1.5,0.9,2.8,2.3,3.2C222.4,320.1,222.8,320.2,223.2,320.1"/>
		<path class="st0" d="M36.5,306.5c1.9,0,3.4-1.5,3.4-3.3c0-1.5-0.9-2.8-2.3-3.2c-0.4-0.1-0.8-0.2-1.2-0.2c-1.9,0-3.4,1.5-3.4,3.3
			c0,1.4,0.9,2.7,2.3,3.2C35.7,306.5,36.1,306.5,36.5,306.5"/>
		<path class="st0" d="M1.4,408.9c1.9,0,3.4-1.4,3.4-3.3c0-1.5-0.9-2.8-2.3-3.2c-0.4-0.1-0.8-0.2-1.2-0.2H1v6.7L1.4,408.9"/>
		<path class="st0" d="M0.5,408.8v-6.5c-0.2,0-0.3,0.1-0.5,0.2v6.2l0.2,0.1L0.5,408.8"/>
		<path class="st0" d="M1,408.9v-6.7c-0.2,0-0.3,0-0.5,0.1v6.5C0.7,408.8,0.8,408.9,1,408.9"/>
		<path class="st0" d="M211.7,254.8c1.9,0,3.4-1.4,3.4-3.3c0-1.5-0.9-2.8-2.3-3.2c-0.4-0.1-0.8-0.2-1.2-0.2c-1.9,0-3.4,1.5-3.4,3.3
			c0,1.4,0.9,2.7,2.3,3.2C210.9,254.8,211.3,254.8,211.7,254.8"/>
		<path class="st0" d="M282.7,309.3c1.9,0,3.4-1.4,3.4-3.3c0-1.5-0.9-2.8-2.3-3.2c-0.4-0.1-0.8-0.2-1.2-0.2c-1.9,0-3.4,1.5-3.4,3.3
			c0,1.4,0.9,2.7,2.3,3.2C281.9,309.2,282.3,309.3,282.7,309.3"/>
		<path class="st0" d="M82.3,146.1c1.9,0,3.4-1.4,3.4-3.3c0-1.5-0.9-2.8-2.3-3.2c-0.4-0.1-0.8-0.2-1.2-0.2c-1.9,0-3.4,1.5-3.4,3.3
			c0,1.4,0.9,2.7,2.3,3.2C81.6,146.1,81.9,146.1,82.3,146.1"/>
		<path class="st0" d="M37.2,232.3c1.9,0,3.4-1.5,3.4-3.3c0-1.4-0.9-2.7-2.3-3.2c-0.4-0.1-0.8-0.2-1.2-0.2c-1.9,0-3.4,1.5-3.4,3.3
			c0,1.4,0.9,2.7,2.3,3.2C36.5,232.3,36.9,232.3,37.2,232.3"/>
		<path class="st0" d="M33.9,69.6c1.9,0,3.4-1.5,3.4-3.3c0-1.4-0.9-2.7-2.3-3.2c-0.4-0.1-0.8-0.2-1.2-0.2c-1.9,0-3.4,1.5-3.4,3.3
			c0,1.4,0.9,2.7,2.3,3.2C33.1,69.5,33.5,69.6,33.9,69.6"/>
		<path class="st0" d="M311.6,17.4c1.9,0,3.4-1.4,3.4-3.3c0-1.5-0.9-2.8-2.3-3.2c-0.4-0.1-0.8-0.2-1.2-0.2c-1.9,0-3.4,1.4-3.4,3.3
			c0,1.5,0.9,2.8,2.3,3.2C310.8,17.4,311.2,17.4,311.6,17.4"/>
		<path class="st0" d="M230.1,377.3c1.9,0,3.4-1.5,3.4-3.3c0-1.5-0.9-2.8-2.3-3.2c-0.4-0.1-0.8-0.2-1.2-0.2c-1.9,0-3.4,1.4-3.4,3.3
			c0,1.5,0.9,2.8,2.3,3.2C229.3,377.2,229.7,377.3,230.1,377.3"/>
		<path class="st0" d="M222,220.4c1.9,0,3.4-1.5,3.4-3.3c0-1.5-0.9-2.8-2.3-3.2c-0.4-0.1-0.8-0.2-1.2-0.2c-1.9-0.1-3.5,1.3-3.6,3.1
			c-0.1,1.6,0.9,3.1,2.5,3.5C221.2,220.4,221.6,220.5,222,220.4"/>
		<path class="st0" d="M283.1,0L283.1,0z M218.4,0L218.4,0"/>
		<path class="st0" d="M252.8,57.3c16.2,0.1,30.7-10,36.3-25.2c3.7-10.3,2.7-21.6-2.5-31.1h-2.8c5.5,9.1,6.6,20.3,3,30.3
			c-5.2,14.3-18.8,23.7-34,23.6c-4.3,0-8.5-0.7-12.5-2.2c-18.9-6.8-28.9-27.5-22.2-46.1c0.7-1.9,1.6-3.8,2.6-5.6h-2.8
			c-0.8,1.5-1.5,3.2-2.1,4.8c-7.1,19.9,3.5,42,23.7,49.2C243.7,56.6,248.2,57.3,252.8,57.3"/>
		<path class="st0" d="M283.4,0.5h2.8L286,0h-2.9L283.4,0.5 M218.1,0.5h2.8l0.3-0.5h-2.9L218.1,0.5"/>
		<path class="st0" d="M283.7,1h2.8l-0.3-0.5h-2.8L283.7,1 M217.8,1h2.8l0.3-0.5h-2.8L217.8,1"/>
		<path class="st0" d="M242.6,47.4c0.7,0,1.2-0.5,1.2-1.2c0-0.5-0.3-1-0.8-1.2c-2-0.7-4-1.7-5.8-2.8l-0.2-0.1
			c-0.5-0.2-1.1,0-1.4,0.5c-0.4,0.6-0.2,1.3,0.4,1.7c0,0,0,0,0,0c2,1.3,4.1,2.3,6.3,3.1C242.3,47.4,242.5,47.4,242.6,47.4"/>
		<path class="st0" d="M233.2,42c0.7,0,1.2-0.5,1.2-1.2c0-0.4-0.2-0.7-0.4-0.9c-8.8-7.4-12-19.6-8.1-30.4c0.2-0.6-0.1-1.3-0.7-1.6
			c0,0,0,0,0,0c-0.1,0-0.3-0.1-0.4-0.1c-0.5,0-1,0.3-1.1,0.8c-4.2,11.8-0.7,25,8.9,33.1C232.6,41.8,232.9,41.9,233.2,42"/>
		<path class="st0" d="M191.3,0L191.3,0z M140.9,0L140.9,0"/>
		<path class="st0" d="M167.8,13.8c10.1,0,19.7-4.7,25.8-12.8h-3.2c-5.7,6.6-14,10.4-22.7,10.3c-0.9,0-1.8,0-2.7-0.1
			C157.3,10.5,150,6.9,144.8,1h-3.1c5.7,7.3,14.1,11.9,23.3,12.6C165.9,13.7,166.9,13.8,167.8,13.8"/>
		<path class="st0" d="M190.9,0.5h3.1l0.4-0.5h-3.1L190.9,0.5 M141.2,0.5h3.1L143.9,0h-3.1L141.2,0.5"/>
		<path class="st0" d="M190.4,1h3.2l0.4-0.5h-3.1L190.4,1 M141.6,1h3.2l-0.4-0.5h-3.1L141.6,1"/>
		<path class="st0" d="M167.8,9.4c1,0,2,0,3-0.1c0.7-0.1,1.1-0.7,1.1-1.3c0,0,0,0,0,0c-0.1-0.5-0.4-0.8-0.8-1
			c-0.1,0-0.3-0.1-0.4-0.1h-0.1C169.6,7,168.7,7,167.8,7c-0.8,0-1.6,0-2.4-0.1h-0.1c-0.6,0-1.2,0.5-1.2,1.1c0,0.7,0.5,1.3,1.1,1.3
			C166.1,9.4,167,9.4,167.8,9.4"/>
		<path class="st0" d="M176,8.1c0.1,0,0.3,0,0.4-0.1c3.4-1.1,6.6-2.9,9.2-5.4c0.5-0.5,0.5-1.2,0-1.7c0,0,0,0,0,0l0,0h-1.8
			c-2.4,2.2-5.2,3.8-8.3,4.8c-0.6,0.2-1,0.9-0.8,1.5c0,0,0,0,0,0C175,7.8,175.5,8.2,176,8.1"/>
		<path class="st0" d="M183.9,1h1.8c-0.1-0.1-0.3-0.2-0.5-0.3C184.8,0.6,184.3,0.7,183.9,1L183.9,1"/>
		<path class="st0" d="M314.5,152.1c4.6,0,9.1,0.8,13.4,2.4c19.3,6.9,29.8,27,23.4,44.8c-4.9,13.6-18.4,22-33.1,22
			c-4.6,0-9.1-0.8-13.5-2.4c-19.3-6.9-29.8-27-23.4-44.8C286.3,160.4,299.8,152.1,314.5,152.1 M318.3,223.6c15.7,0,30.1-9,35.4-23.6
			c2.3-6.3,2.6-13.2,1-19.7h-0.2c-0.7,0-1.2-0.5-1.2-1.2c0-0.6,0.3-1.1,0.9-1.2c-3.9-12.1-13.3-21.6-25.3-25.8
			c-4.4-1.6-9-2.4-13.7-2.5c-0.2,0.5-0.5,1-0.7,1.6l-2.3-0.9l0.1-0.2l-1.5,0.5c-0.1-0.3-0.2-0.5-0.3-0.8
			c-14.1,1.4-26.5,10-31.4,23.4c-6.8,19,4.4,40.5,24.9,47.9C308.5,222.8,313.4,223.6,318.3,223.6"/>
		<path class="st0" d="M364.7,161.6c0.3-0.4,0.7-0.9,1-1.3c-0.5-0.1-0.8-0.6-0.9-1.1c-0.1-0.7,0.4-1.2,1.1-1.3c0,0,0,0,0,0
			c0.4,0,0.8,0,1.3,0c0.7-1.3,1.4-2.6,1.9-4l-1.1,0.3l-0.6-2.4c0.8-0.2,1.7-0.4,2.5-0.7c0.7-3.3,0.3-6.7-1.2-9.8
			c-0.9-1.9-2.2-3.6-3.8-5c-0.5,0.1-1,0.1-1.5,0.2h-0.2c-0.4,0-0.8-0.2-1-0.5c-0.4-0.5-0.2-1.3,0.3-1.7c0,0,0,0,0,0
			c-2-1.4-4.2-2.5-6.6-3.4c-3.6-1.3-7.4-1.9-11.2-2c-0.7,0.3-1.3,0.7-2,1c-0.6,0.3-1.4,0.1-1.7-0.5c-0.1-0.1-0.1-0.3-0.2-0.5
			c-4.6,0.4-9,1.6-13.1,3.7c0.1,0.4,0.3,0.8,0.4,1.2l-2.4,0.7c-0.1-0.2-0.1-0.4-0.2-0.6c-5.7,3.6-10.2,8.8-12.8,14.9
			c0.1,0.3,0.2,0.6,0.3,0.9l-0.8,0.3l-0.1,0.2l2.3,0.9c0.2-0.5,0.4-1.1,0.7-1.6c5-11.1,15.3-17.9,27.8-18.3h1.1
			c10.1,0,19.2,4.4,22.4,11c2.7,5.5,1.2,11.9-4.3,18.5C363.1,161.1,364,161.4,364.7,161.6"/>
		<path class="st0" d="M310.7,150.6l1.5-0.5l0.8-0.3c-0.1-0.3-0.2-0.6-0.3-0.9c-2.7-7.9-0.7-15,2.5-18.6c1.1-1.5,2.8-2.4,4.6-2.5
			c0.3,0,0.6,0,0.8,0.1c2.1,0.5,3.8,2.6,4.9,6.1c0.1,0.2,0.1,0.4,0.2,0.6l2.4-0.7c-0.1-0.4-0.2-0.8-0.4-1.2c-1.6-4.5-3.9-6.3-5.8-7
			c-0.3-0.1-0.5-0.2-0.8-0.2c-0.5-0.1-0.9-0.2-1.4-0.1c-2.5,0.1-4.9,1.4-6.4,3.3c-3.7,4.2-6,12.3-2.9,21.2
			C310.5,150.1,310.6,150.4,310.7,150.6"/>
		<path class="st0" d="M354.5,180.3h0.2c11.1-0.5,19.7-4.9,19.8-10.2c0.1-2.1-1.2-5.5-8.4-8.1c-0.5-0.2-0.9-0.3-1.4-0.5
			c-0.8-0.2-1.7-0.5-2.6-0.7c-2.9-0.7-5.8-1.2-8.8-1.6h-0.1c-0.7,0-1.2,0.6-1.1,1.3c0,0.6,0.5,1,1,1.1c14.2,1.8,19.1,5.4,19,8.3
			c-0.1,3.4-7.2,7.4-17.7,7.9c-0.1,0-0.2,0-0.3,0c-0.5,0.2-0.9,0.7-0.8,1.2C353.3,179.8,353.8,180.3,354.5,180.3"/>
		<path class="st0" d="M367.9,154.1l1.1-0.3c0.8-0.2,1.6-0.5,2.4-0.8c-0.6-0.1-1-0.5-1.1-1.1c-0.1-0.7,0.4-1.2,1.1-1.3c0,0,0,0,0,0
			c0.4,0,0.9,0,1.4,0c0.9,0,1.9,0,3.1,0.1c4.2-2.9,5.9-6.9,5.2-10.2c-0.5-2.4-2.3-4.7-5.8-6c-2.1-0.7-4.4-1-6.6-1
			c-0.5,0-0.9,0-1.4,0c-1.1,1-2.2,1.9-3.4,2.7c-0.1,0.1-0.3,0.2-0.5,0.2c0.5-0.1,1-0.2,1.5-0.2c1.3-0.2,2.5-0.2,3.8-0.2
			c6.5,0,9.5,2.5,10,5c0.7,3.4-2.4,7.8-8.9,10c-0.8,0.3-1.6,0.5-2.5,0.7L367.9,154.1"/>
		<path class="st0" d="M363.1,136.5h0.2c0.2,0,0.3-0.1,0.5-0.2c1.2-0.8,2.4-1.7,3.4-2.7c3.7-3.6,2.7-6.5,2-7.6
			c-0.9-1.3-2.2-2.3-3.8-2.8c-1.8-0.6-3.7-0.9-5.6-0.9c-5.1,0-11.6,1.7-18.4,5.5c-0.4,0.2-0.7,0.7-0.6,1.2c0,0.2,0.1,0.3,0.2,0.5
			c0.3,0.6,1.1,0.8,1.7,0.5c0.7-0.4,1.3-0.7,2-1c4.7-2.5,10-3.9,15.3-4.1c3.6,0,6.2,0.9,7.1,2.4c1.1,1.7-0.7,4.4-4.7,7l0,0
			c-0.6,0.4-0.7,1.1-0.3,1.7c0,0,0,0,0,0C362.3,136.3,362.7,136.5,363.1,136.5"/>
		<path class="st0" d="M407.2,179.9c0.3,0,0.5,0,0.8-0.1c1.2-0.2,2.3-0.9,3-1.9c3.9-5.4,2.8-9.9,1.1-12.8c-2.1-3.7-6.7-6.8-13.7-9.3
			l0,0c-7.3-2.7-14.9-4.4-22.6-5.1c-1.2-0.1-2.2-0.1-3.1-0.1c-0.5,0-1,0-1.4,0c-0.7,0-1.2,0.6-1.1,1.3c0,0,0,0,0,0
			c0.1,0.6,0.5,1.1,1.1,1.1h0.2c0.4,0,0.8,0,1.2,0c4.6,0,14.2,1.3,24.8,5.1l0,0c6.4,2.3,10.5,5.1,12.4,8.2c1.8,3.2,1.5,6.6-1,10.2
			c-0.3,0.5-0.9,0.8-1.5,0.9c-0.1,0-0.2,0-0.4,0c-0.5,0-0.9-0.1-1.3-0.4c-0.5-0.3-0.8-0.9-0.9-1.5c-0.1-0.6,0-1.2,0.4-1.7
			c1.9-2.7,1.4-4.4,0.8-5.4c-4.1-7-28.8-10.7-38.5-10.7h-0.4c-0.5,0-0.9,0-1.3,0c-0.7,0-1.2,0.6-1.1,1.3c0,0,0,0,0,0
			c0,0.5,0.4,1,0.9,1.1c0.1,0,0.2,0.1,0.4,0h0c0.5,0,1.1,0,1.7,0c9.7,0,33.1,4,36.2,9.5c0.2,0.4,0.6,1-0.7,2.8c-0.7,1-1,2.3-0.8,3.5
			c0.2,1.2,0.9,2.3,1.9,3C405.3,179.5,406.2,179.8,407.2,179.9"/>
		<path class="st0" d="M293.8,183.1l1.1-0.4c-1.5-3.8-1.6-8-0.2-11.9c0.2-0.5,0.4-1,0.6-1.5l-1.1-0.5l-0.1,1.2c-0.2,0-0.5,0-0.7,0
			c-0.3,0-0.7,0-1,0.1c-1.3,3.8-1.4,7.8-0.3,11.7c0.5,0.1,0.9,0.2,1.4,0.2h0.2L293.8,183.1"/>
		<path class="st0" d="M337.8,179.5L337.8,179.5h1.1h0.1l0.2-1.3c0.3,0.1,0.6,0.1,0.9,0.2c-0.9-8.8-7.7-16.8-17.2-20.2
			c-3.1-1.1-6.4-1.7-9.7-1.7c-8.5,0-16.1,4-19.8,11c0.3,0,0.6,0,0.9,0.1l-0.1,1.2l1.1,0.5c3.1-6.5,10.3-10.3,18.2-10.3
			c2.9,0,5.9,0.5,8.7,1.5C331.1,163.8,337.4,171.4,337.8,179.5"/>
		<path class="st0" d="M318.2,200.2c4.2,0,8.4-1,12.1-3l0.7-1.9l0.6,0.2l-0.2-0.1l0.8-0.9l-0.8-1c-3.8,2.8-8.4,4.3-13.2,4.3
			c-3,0-5.9-0.5-8.8-1.5c-6.7-2.4-12.1-7.5-14.4-13.5l-1.1,0.4l0.1,1.2h-0.4H293c3,6.7,8.7,11.8,15.6,14.2
			C311.7,199.6,314.9,200.2,318.2,200.2"/>
		<path class="st0" d="M332.1,194.4l0.8-0.9c0.4,0.3,0.8,0.6,1.3,0.8c2.3-2.1,4-4.7,5-7.5c0.7-1.8,1-3.8,1.1-5.7L340,181
			c-0.4-0.1-0.8-0.2-1.2-0.3l0.2-1.2h-0.1h-1.1l0,0c0.1,2.2-0.2,4.4-0.9,6.5c-1.1,3-3,5.6-5.5,7.5L332.1,194.4"/>
		<path class="st0" d="M337.6,197.6c5.4,0.1,9.8-4.2,9.8-9.6c0.1-4.2-2.6-8-6.6-9.3l-0.6-0.2c-0.3-0.1-0.6-0.2-0.9-0.2l-0.2,1.2l0,0
			l-0.2,1.2c0.4,0.1,0.8,0.2,1.2,0.3l0.3,0.1c3.8,1.5,5.6,5.7,4.1,9.4c-1.1,2.8-3.8,4.7-6.8,4.6c-1.2,0-2.4-0.3-3.4-0.8
			c-0.4-0.2-0.9-0.5-1.3-0.8l-0.8,0.9l-0.8,0.9l0.2,0.1l1.7,0.6l-0.1,0.4C334.5,197.2,336,197.6,337.6,197.6"/>
		<path class="st0" d="M293.5,184.3h0.4l-0.1-1.2l-0.1-1.2h-0.2c-0.5,0-1-0.1-1.4-0.2c-0.2-0.1-0.4-0.1-0.6-0.2
			c-3.1-1.1-4.8-4.5-3.7-7.6c0,0,0,0,0,0c0.7-2,2.5-3.5,4.6-3.8c0.3-0.1,0.7-0.1,1-0.1c0.2,0,0.5,0,0.7,0l0.1-1.2l0.1-1.2
			c-0.3,0-0.6-0.1-0.9-0.1h-0.1c-3.5,0-6.7,2.2-7.9,5.5c-1.6,4.4,0.8,9.2,5.2,10.8c0,0,0,0,0.1,0c0.8,0.3,1.5,0.4,2.4,0.5
			L293.5,184.3"/>
		<path class="st0" d="M329.6,174.7c0.8-5.1-3.6-10.8-10.4-13.2c-2.1-0.8-4.3-1.2-6.5-1.2c-2.8-0.1-5.6,0.7-7.9,2.3l1.5,1.9
			c1.9-1.3,4.1-1.9,6.3-1.9c1.9,0,3.8,0.3,5.6,1c5.2,1.9,8.8,5.8,8.9,9.5c0.3,0.4,0.6,0.8,0.9,1.2h0.2L329.6,174.7"/>
		<path class="st0" d="M318.7,182c5,0,9.3-2.2,10.6-6c0.1-0.4,0.3-0.9,0.3-1.3l0,0l-1.2-0.2h-0.2l0.1,0.1c0.4,0.6,0.2,1.3-0.3,1.7
			c0,0,0,0,0,0c-0.2,0.1-0.4,0.2-0.7,0.2c-0.3,0-0.5-0.1-0.7-0.2c-1.4,2.2-4.3,3.4-7.8,3.4c-1.9,0-3.9-0.3-5.7-1
			c-5.8-2.1-9.6-6.7-8.8-10.6l-0.1,0.1c-0.2,0.2-0.5,0.3-0.8,0.3c-0.4,0-0.8-0.1-1-0.4c-0.4-0.5-0.4-1.3,0.1-1.7c0,0,0,0,0,0
			c1.1-0.8,2.4-1.4,3.8-1.5l0.1-0.1l-1.5-1.9c-1.3,0.9-2.2,2.2-2.7,3.6c-1.9,5.4,2.6,11.9,10.1,14.6
			C314.2,181.6,316.4,182,318.7,182"/>
		<path class="st0" d="M327.2,176.4c0.2,0,0.5-0.1,0.7-0.2c0.6-0.4,0.7-1.1,0.4-1.7c0,0,0,0,0,0l-0.1-0.1c-0.3-0.4-0.6-0.8-0.9-1.2
			c-2.4-2.7-5.4-4.8-8.7-6.3c-0.8-0.4-1.6-0.7-2.4-1c-2.5-0.9-5.2-1.4-7.8-1.5c-0.7,0-1.4,0-2.1,0.1c-1.4,0.2-2.7,0.7-3.8,1.5
			c-0.5,0.4-0.6,1.2-0.2,1.7c0,0,0,0,0,0c0.3,0.3,0.6,0.4,1,0.4c0.3,0,0.6-0.1,0.8-0.3l0.1-0.1c1.3-0.8,2.7-1.1,4.2-1
			c3.2,0.1,6.3,0.9,9.1,2.2c3.8,1.7,7,4.2,8.6,6.7c0.1,0.1,0.2,0.2,0.3,0.3C326.7,176.3,327,176.4,327.2,176.4"/>
		<path class="st0" d="M316.7,185.3c0.2,0,0.4,0,0.5,0.1c0.7,0.3,1.1,1.1,0.8,1.8c-0.2,0.5-0.7,0.9-1.3,0.9c-0.2,0-0.4,0-0.5-0.1
			c-0.7-0.3-1.1-1.1-0.8-1.8C315.6,185.7,316.1,185.3,316.7,185.3 M317.3,189.8c1.8,0,3.2-1.4,3.2-3.1c0-1.3-0.8-2.5-2-3
			c-0.4-0.2-0.8-0.2-1.2-0.2c-1.8,0-3.2,1.4-3.2,3.1c0,1.3,0.8,2.5,2,3C316.5,189.7,316.9,189.8,317.3,189.8"/>
		<path class="st0" d="M302.3,179.5c0.2,0,0.4,0,0.6,0.1c0.7,0.3,1.1,1.1,0.8,1.8c-0.2,0.5-0.7,0.9-1.3,0.9c-0.2,0-0.4,0-0.6-0.1
			c-0.7-0.3-1.1-1.1-0.8-1.8C301.2,179.8,301.7,179.5,302.3,179.5 M303,183.9c1.8,0,3.2-1.4,3.2-3.1c0-1.3-0.8-2.5-2-3
			c-0.4-0.2-0.8-0.2-1.2-0.2c-1.8-0.1-3.2,1.3-3.3,3.1c0,1.4,0.8,2.6,2,3.1C302.1,183.8,302.5,183.9,303,183.9"/>
		<path class="st0" d="M329.6,206.3l3.5-9.7l0.1-0.4l-1.7-0.6l-0.6-0.2l-0.7,1.9l-3,8.3C328.1,205.3,329,205.6,329.6,206.3"/>
		<path class="st0" d="M327.9,209.7c1.2,0,2.2-0.9,2.2-2.1c0-0.5-0.2-1-0.5-1.4c-0.4-0.5-1.1-0.8-1.7-0.8c-0.2,0-0.4,0-0.6,0.1
			c-0.7,0.2-1.2,0.7-1.4,1.3c-0.4,1.1,0.2,2.4,1.3,2.8c0,0,0,0,0,0C327.4,209.7,327.7,209.7,327.9,209.7"/>
		<path class="st0" d="M315,178.6c0.4,0,0.7-0.1,0.9-0.4l0.9-1c0.4-0.5,0.4-1.3-0.1-1.7c0,0,0,0,0,0c-0.2-0.2-0.5-0.3-0.8-0.3
			c-0.3,0-0.7,0.1-0.9,0.4l-0.9,1c-0.4,0.5-0.4,1.3,0.1,1.7c0,0,0,0,0,0C314.4,178.5,314.7,178.6,315,178.6"/>
		<path class="st0" d="M311.2,176.9L311.2,176.9c0.7,0,1.2-0.6,1.2-1.2c0,0,0,0,0,0l-0.1-1.3c0-0.7-0.6-1.2-1.2-1.2l0,0
			c-0.7,0-1.2,0.6-1.2,1.2c0,0,0,0,0,0l0.1,1.3C310,176.4,310.5,176.9,311.2,176.9"/>
		<path class="st0" d="M340,137.9c0.7,0,1.5,0.1,2.1,0.4c3.2,1.1,5,4.6,3.9,7.8c-0.8,2.5-3.2,4.2-5.9,4.2c-0.7,0-1.5-0.1-2.1-0.4
			c-3.2-1.1-5-4.6-3.9-7.8C335,139.6,337.3,137.9,340,137.9 M340.1,152.7c4.7,0,8.6-3.8,8.7-8.5c0-3.7-2.3-7-5.8-8.2
			c-1-0.3-2-0.5-3-0.5c-4.7,0-8.6,3.8-8.7,8.5c0,3.7,2.3,7,5.8,8.2C338.1,152.5,339.1,152.7,340.1,152.7"/>
		<path class="st0" d="M294.9,208.3c0.3,0,0.7-0.1,0.9-0.4c0.5-0.5,0.4-1.2,0-1.7c0,0,0,0,0,0c-0.8-0.8-1.6-1.6-2.3-2.4
			c-0.8-1-1.6-2-2.3-3c-2.7-4-4.4-8.7-4.8-13.6c0-0.5-0.4-0.9-0.8-1.1c-0.1,0-0.3-0.1-0.4-0.1h-0.1c-0.7,0-1.2,0.6-1.1,1.3
			c0,0,0,0,0,0c0.4,5.3,2.2,10.4,5.2,14.8c0.7,1.1,1.6,2.2,2.4,3.2c0.8,0.9,1.6,1.8,2.5,2.6C294.3,208.1,294.6,208.2,294.9,208.3"/>
		<path class="st0" d="M306.6,215.3c0.7,0,1.2-0.5,1.2-1.2c0-0.5-0.3-1-0.8-1.2c-1.9-0.7-3.7-1.5-5.4-2.5l-0.2-0.1
			c-0.1,0-0.3-0.1-0.4-0.1c-0.7,0-1.2,0.5-1.2,1.2c0,0.4,0.2,0.8,0.6,1c1.9,1.1,3.8,2,5.8,2.7C306.3,215.2,306.4,215.3,306.6,215.3"
			/>
		<path class="st0" d="M176.9,434.7L176.9,434.7 M134.5,434.9c1.4-0.3,2.8-0.6,4.2-0.9c4.6-4.4,10.5-7,16.9-7.4c0.6,0,1.2-0.1,1.7,0
			c5.8,0,11.5,1.9,16.3,5.3c1.5,0.1,2.9,0.3,4.3,0.4l-0.2-0.2c-5.5-5.1-12.8-8-20.4-8c-0.6,0-1.3,0-1.9,0.1c-7.7,0.5-15,4-20.1,9.8
			L134.5,434.9L134.5,434.9"/>
		<path class="st0" d="M182.1,464.5c1.2-0.5,2.3-1,3.3-1.5c1.3-3.8,1.9-7.8,1.6-11.7c0-0.5-0.1-0.9-0.1-1.4
			c-0.9-0.4-1.7-0.8-2.6-1.1c0.1,0.9,0.3,1.8,0.3,2.7C184.8,455.9,184,460.4,182.1,464.5 M157.9,482.2c0.6,0,1.3,0,1.9-0.1
			c6.6-0.4,12.9-3,17.9-7.5h-0.2l-0.5-2.4c1.3-0.3,2.5-0.6,3.7-0.9c1.3-1.5,2.3-3.2,3.3-5l-0.9,0.4l-1-2.2
			c-4.1,8.8-12.7,14.6-22.4,15.2c-0.6,0-1.2,0.1-1.8,0.1c-14.2,0.1-26-10.8-27.2-24.9c-0.1-1-0.1-2.1,0-3.1
			c-0.9,0.4-1.7,0.9-2.5,1.3c0,0.7,0,1.3,0.1,2c0.3,4.2,1.5,8.2,3.6,11.9c1,0.3,2.1,0.6,3.2,0.9l-0.6,2.4l-0.7-0.2
			c1.1,1.4,2.3,2.8,3.6,4c1.4,0.2,2.8,0.3,4.2,0.4l-0.2,2.4h-0.5C145.8,480.4,151.8,482.2,157.9,482.2"/>
		<path class="st0" d="M141.4,476.9l0.2-2.4c-1.4-0.1-2.8-0.3-4.2-0.4c-18.2-2.2-31-8.7-31.6-16.3c-0.4-5.1,4.6-10.6,13.6-15
			c9.5-4.6,22.4-7.7,36.3-8.5c2.7-0.2,5.3-0.2,7.9-0.2c4.4,0,8.9,0.2,13.3,0.8l0,0c18,2.1,31.1,8.4,31.7,16.5
			c0.6,8-10.5,15.9-28,20.3c-1.2,0.3-2.5,0.6-3.7,0.9l0.5,2.4h0.2c21.1-4.5,34.3-13.8,33.5-23.7c-0.5-6.2-6.6-11.4-16.2-14.9
			c-5.5-1.9-11.2-3.2-17-3.8c-1.4-0.2-2.8-0.3-4.3-0.4c-3.1-0.2-6.3-0.4-9.6-0.4c-2.8,0-5.6,0.1-8.5,0.3c-5.7,0.3-11.3,1.1-16.9,2.2
			c-1.4,0.3-2.8,0.6-4.2,0.9c-5.6,1.3-11,3.2-16.2,5.7c-10.1,4.9-15.4,11.1-14.9,17.3c0.7,9.5,15.8,17.1,37.5,19L141.4,476.9"/>
		<path class="st0" d="M134.5,470.2l0.6-2.4c-1.1-0.3-2.2-0.6-3.2-0.9c-5.6-1.8-8.9-4.3-9.1-7c-0.2-2.2,1.8-4.6,5.5-6.8
			c0.8-0.5,1.6-0.9,2.5-1.3c5.9-2.8,14.9-5.1,25.9-5.8c2.1-0.1,4.2-0.2,6.3-0.2c6.4-0.1,12.8,0.7,19,2.3c0.8,0.2,1.6,0.5,2.3,0.7
			c0.9,0.3,1.8,0.7,2.6,1.1c3.3,1.6,5.3,3.5,5.4,5.6c0.2,2.5-2.3,5.2-6.8,7.6c-1,0.5-2.1,1-3.3,1.5l0,0l1,2.2l0.9-0.4
			c7.2-3.2,11-7.1,10.7-11.2c-0.3-3.6-3.7-6.6-9.7-8.8c-0.8-0.3-1.6-0.5-2.4-0.8c-6.4-1.7-13.1-2.5-19.7-2.4c-2.1,0-4.3,0.1-6.5,0.2
			c-20.9,1.3-36.7,8.6-36.1,16.5c0.3,4.3,5.1,7.8,13.6,10L134.5,470.2"/>
		<path class="st0" d="M157.1,474.7c0.4,0,0.9,0,1.3,0c0.7,0,1.2-0.6,1.1-1.3c0,0,0,0,0,0c0-0.7-0.6-1.2-1.2-1.2h-0.1
			c-0.4,0-0.8,0-1.2,0c-9.4,0-17.2-7.2-18-16.5c0-0.5-0.4-0.9-0.8-1.1c-0.1,0-0.3-0.1-0.4-0.1h-0.1c-0.7,0-1.2,0.6-1.1,1.3
			c0,0,0,0,0,0C137.6,466.6,146.5,474.7,157.1,474.7"/>
		<path class="st0" d="M18,353.6v-0.3c-0.6-8.1-4.6-15.6-11-20.7c-1.8-1.5-3.9-2.7-6-3.7v2.7c1.6,0.8,3,1.8,4.4,2.9
			c5,4,8.4,9.6,9.7,15.9C16.1,351.5,17.1,352.5,18,353.6 M15.6,354.7L15.6,354.7L15.6,354.7L15.6,354.7"/>
		<path class="st0" d="M0.5,331.4v-2.7L0,328.4v2.7L0.5,331.4"/>
		<path class="st0" d="M1,331.6v-2.7l-0.5-0.2v2.7L1,331.6"/>
		<path class="st0" d="M2.5,380.9c3.5-1.8,6.7-4.4,9.2-7.5c0.3-0.4,0.6-0.7,0.9-1.1c-0.4-0.9-0.8-1.7-1.2-2.6
			c-2.6,3.9-6.1,7.1-10.3,9.2v1.6C1.5,380.7,2,380.8,2.5,380.9"/>
		<path class="st0" d="M0.5,380.4v-1.2L0,379.4v0.8L0.5,380.4"/>
		<path class="st0" d="M1,380.5v-1.6l-0.5,0.2v1.2L1,380.5"/>
		<path class="st0" d="M17.9,394c5.2,0,9.3-1.5,11.8-4.6c5.9-7.3,0.8-21.4-11.8-35.9c-0.9-1.1-1.9-2.1-2.9-3.2
			c-4.1-4.4-8.6-8.4-13.3-12.2L1,337.6v3.1c5.3,4.2,10.2,8.9,14.6,14l0,0c11.9,13.6,17.3,27,12.2,33.2c-2,2.5-5.5,3.7-9.9,3.7
			c-4.7,0-10.5-1.4-16.9-4v2.6C7.3,392.8,13.1,394.1,17.9,394"/>
		<path class="st0" d="M0.5,340.3v-3.1L0,336.8v3.1l0.3,0.2L0.5,340.3 M0.5,390v-2.6L0,387.2v2.6L0.5,390"/>
		<path class="st0" d="M1,340.7v-3.1l-0.5-0.4v3.1L1,340.7 M1,390.2v-2.6l-0.5-0.2v2.6L1,390.2"/>
		<path class="st0" d="M7.8,384.2c3.1,0,5.4-0.9,6.8-2.6c2.5-3.1,1.7-8.5-2.4-15.1C9.1,361.5,5.3,357,1,353v3.4
			c3.5,3.4,6.5,7.2,9.1,11.3c0.4,0.7,0.8,1.4,1.2,2c0.4,0.8,0.9,1.7,1.2,2.6c1.4,3.4,1.5,6.1,0.2,7.7c-0.9,1.1-2.6,1.7-4.9,1.7
			c-1.8,0-3.6-0.3-5.4-0.8c-0.5-0.1-1-0.3-1.5-0.4v2.5C3.2,383.8,5.5,384.1,7.8,384.2"/>
		<path class="st0" d="M0.5,355.9v-3.4L0,352.1v3.3L0.5,355.9 M0.5,382.9v-2.6L0,380.2v2.5L0.5,382.9"/>
		<path class="st0" d="M1,356.4V353l-0.5-0.5v3.4L1,356.4 M1,383.1v-2.6l-0.5-0.2v2.6L1,383.1"/>
		<path class="st0" d="M81.5,370.9c4.6,0,9.1,0.8,13.5,2.3c19.3,6.9,29.8,27,23.4,44.8c-4.9,13.6-18.4,22-33.1,22
			c-4.6,0-9.1-0.8-13.5-2.4c-19.3-6.9-29.8-27-23.4-44.8C53.3,379.2,66.8,370.9,81.5,370.9 M85.3,442.5c15.7,0,30.1-9,35.4-23.6
			c4.8-13.4,0.7-28-9.3-38l-0.7,0.4l-0.8-1.4l-0.1,0.2l-2.3-0.8c0.2-0.5,0.3-1.1,0.5-1.6c-7.5-6-16.8-9.3-26.5-9.3
			c-7.7,0-15.2,2.2-21.6,6.3c0.3,0.5,0.3,1.1-0.1,1.5c-0.5,0.5-1.2,0.5-1.7,0.1l-0.1-0.1c-5.4,4-9.5,9.5-11.7,15.9
			c-6.8,19,4.3,40.5,24.9,47.9C75.6,441.6,80.4,442.5,85.3,442.5"/>
		<path class="st0" d="M109.8,380.2l0.1-0.2l-0.4-0.8l0.8-0.5c1.9-6.4,1.7-13.3-0.4-19.7l-0.5,0.4l-1.4-2c0.4-0.2,0.7-0.5,1.1-0.7
			c-1.8-4.2-4.5-8-7.8-11.2c-0.2,0.2-0.5,0.3-0.8,0.3c-0.5,0-1-0.3-1.2-0.8c-0.3-0.7-0.6-1.4-0.9-2.1c-3-2.4-6.3-4.3-9.9-5.6
			c-2.3-0.8-4.7-1.4-7.2-1.6c0.2,0.6-0.2,1.3-0.8,1.5c0,0,0,0,0,0c-0.1,0-0.2,0.1-0.4,0c-0.4,0-0.7-0.2-0.9-0.4l0,0
			c-0.4-0.4-0.7-0.8-1-1.1c-2.1,0.1-4.2,0.6-6.1,1.5c-3.1,1.4-5.6,3.8-7.1,6.8l0.1,0.2c0.3,0.2,0.5,0.5,0.6,0.9
			c0.2,0.4,0.5,0.7,0.8,1.1l-2,1.5c-0.2-0.3-0.5-0.7-0.7-1c-0.4,1.2-0.8,2.5-1,3.8h0.3c0.6,0,1.2,0.5,1.3,1.1
			c0.1,0.7-0.4,1.2-1.1,1.3c0,0,0,0,0,0h-0.8c-0.1,0.8-0.1,1.7-0.2,2.5c0.8,0.3,1.6,0.7,2.5,1.1c0-8.6,2.9-14.5,8.5-17
			c2-0.9,4.2-1.3,6.5-1.3c6,0,13,2.8,18.6,7.8c9.4,8.3,13,20,9.8,31.8c-0.1,0.5-0.3,1.1-0.5,1.6L109.8,380.2"/>
		<path class="st0" d="M110.7,381.3l0.7-0.4c8-4.9,11.4-12.5,11.2-18.2c-0.1-3.5-1.6-6.2-4-7.4c-0.2-0.1-0.5-0.2-0.7-0.3
			c-0.8-0.3-1.6-0.4-2.4-0.4c-2.3,0.1-4.6,0.9-6.5,2.1c-0.3,0.2-0.7,0.4-1.1,0.7l1.4,2l0.5-0.4c1.7-1.2,3.6-1.9,5.7-2
			c0.7,0,1.4,0.1,2,0.5c1.6,0.8,2.5,2.7,2.6,5.3c0.2,4.9-2.9,11.6-9.9,15.9l-0.8,0.5l0.4,0.8L110.7,381.3"/>
		<path class="st0" d="M58.8,376.7c0.3,0,0.7-0.1,0.9-0.4c0.4-0.4,0.4-1,0.1-1.5c-0.1-0.1-0.1-0.2-0.2-0.2
			c-7.8-7-10.8-14.6-8.6-17.3c0.9-0.9,2.1-1.4,3.3-1.2c3.2,0,8.7,1.9,16.7,6.9c0.2,0.1,0.4,0.2,0.7,0.2c0.7,0,1.2-0.6,1.2-1.2
			c0-0.4-0.2-0.8-0.6-1c-2.5-1.6-5.1-3.1-7.8-4.4c-0.9-0.4-1.7-0.8-2.5-1.1c-0.5-0.2-1-0.4-1.4-0.6c-2-0.8-4.2-1.2-6.4-1.3
			c-2.9,0-4.4,1.1-5.2,2.2c-3.2,4.2,0.5,13,8.8,20.5l0.1,0.1C58.2,376.6,58.5,376.7,58.8,376.7"/>
		<path class="st0" d="M64.9,344.3l-0.1-0.2c-3.6-5.8-3.2-11.2-0.5-13.4c0.9-0.7,2-1,3.1-1c2.6,0,6.3,1.6,10.6,6.2
			c0.3,0.4,0.7,0.7,1,1.1c-0.1-0.1-0.2-0.3-0.2-0.4c-0.5-1.4-0.8-2.8-0.9-4.2c-2-1.9-4.3-3.4-6.9-4.4c-1.2-0.4-2.4-0.7-3.6-0.7
			c-1.7,0-3.3,0.5-4.7,1.6c-3.3,2.7-4.4,8.6-0.8,15.4h0.5c0.6,0,1.1,0,1.6,0h0.1C64.4,344.1,64.7,344.2,64.9,344.3 M64.3,347.7
			l2-1.5c-0.3-0.4-0.5-0.7-0.8-1.1v0.1c0.1,0.7-0.4,1.2-1.1,1.3c0,0,0,0,0,0h-0.9l0.1,0.2C63.8,347,64.1,347.4,64.3,347.7"/>
		<path class="st0" d="M100.3,345.9c0.1,0,0.3,0,0.4-0.1c0.2-0.1,0.3-0.1,0.4-0.2c0.4-0.3,0.5-0.9,0.3-1.3
			c-4-10.3-10.4-17-15.6-18.8c-0.9-0.3-1.9-0.5-2.9-0.5c-0.6,0-1.2,0.1-1.8,0.3c-1.3,0.4-3.9,2-3.3,7.2c0.2,1.4,0.5,2.9,0.9,4.2
			c0.2,0.5,0.6,0.9,1.2,0.9c0.1,0,0.2,0,0.4,0c0.6-0.2,1-0.9,0.8-1.5c0,0,0,0,0,0l0,0c-1.4-4.5-1.1-7.8,0.8-8.4
			c0.3-0.1,0.7-0.2,1-0.1c3.8,0,10.7,5.5,15.2,15.7c0.3,0.7,0.6,1.4,0.9,2.1C99.4,345.6,99.8,345.9,100.3,345.9"/>
		<path class="st0" d="M60.7,353h1.5H63c0.7,0,1.2-0.6,1.1-1.3c0,0,0,0,0,0c-0.1-0.6-0.6-1.1-1.3-1.1h-0.3c-0.6,0-1.2,0-2,0
			c-6,0-17.7-1.1-26.9-4.5c-6.4-2.3-10.6-5.1-12.4-8.2c-1.8-3.2-1.5-6.6,1-10.2c0.4-0.6,1.1-0.9,1.8-0.9c0.5,0,0.9,0.1,1.3,0.4
			c0.5,0.3,0.8,0.9,0.9,1.5c0.1,0.6,0,1.2-0.4,1.7c-1.9,2.7-1.4,4.4-0.8,5.4c4.1,7.1,28.3,10.9,37.5,10.9h0.7h0.9
			c0.7,0,1.2-0.6,1.1-1.3c0,0,0,0,0,0v-0.1c-0.1-0.4-0.3-0.7-0.6-0.9c-0.2-0.1-0.4-0.2-0.7-0.2h-0.1c-0.5,0-1,0-1.6,0H62
			c-9.8-0.1-31.4-4.1-34.6-9.7c-0.2-0.4-0.6-1,0.7-2.8c0.7-1,1-2.3,0.8-3.5c-0.2-1.2-0.9-2.3-2-3c-0.8-0.6-1.8-0.9-2.8-0.9
			c-1.5,0-3,0.7-3.8,2c-3.9,5.4-2.8,9.9-1.1,12.8c2.1,3.7,6.7,6.8,13.7,9.3C42.9,352,54.7,353.1,60.7,353"/>
		<path class="st0" d="M105.3,417.2c3.3-2.2,5.8-5.4,7.2-9.2c-0.4-0.4-0.8-0.8-1.3-1.1l0.7-1l0,0l-1.2-0.3c-0.1,0.5-0.3,1-0.5,1.6
			c-1.4,3.8-4.2,7-7.7,9l0.5,0.9l0.2-0.6l0.5,0.2l0.3-0.3c0.4,0.3,0.8,0.6,1.2,0.9L105.3,417.2"/>
		<path class="st0" d="M111.8,405.9l0.7-1c0.2,0.2,0.5,0.3,0.7,0.5c2.2-10.6-5-21.6-16.9-25.9c-3.1-1.1-6.3-1.7-9.5-1.7
			c-6.1-0.1-12.1,2.1-16.5,6.3c0.3,0.1,0.6,0.3,0.9,0.4l-0.6,1.1l0.9,0.8c4-4.1,9.6-6.4,15.4-6.2c3,0,5.9,0.5,8.7,1.5
			c10.9,3.9,17.5,14.4,15.1,23.8l0,0L111.8,405.9L111.8,405.9"/>
		<path class="st0" d="M91.4,421.3c3.7,0,7.4-0.8,10.8-2.3l0.3-0.7l-0.2-0.2l0.5-0.6l0.2-0.5l-0.5-0.9c-3.4,1.9-7.2,2.8-11,2.8
			c-3,0-6-0.5-8.8-1.6c-7.8-2.8-13.6-9-15.2-16.1l-1.2,0.2v1.2c-0.3,0-0.7,0-1-0.1c2.1,7.5,8.3,14,16.6,16.9
			C84.9,420.7,88.1,421.3,91.4,421.3"/>
		<path class="st0" d="M66.3,401.5l1.2-0.2c-0.7-3.1-0.5-6.3,0.5-9.3c0.7-2.1,1.9-4,3.4-5.6l-0.9-0.8l-0.6,1.1
			c-0.4-0.2-0.7-0.4-1.1-0.5l-0.3-0.1c-1.2,1.5-2.1,3.3-2.8,5.1c-1,2.9-1.3,6-0.9,9c0.5,0.1,1,0.2,1.5,0.2L66.3,401.5"/>
		<path class="st0" d="M66.3,402.8v-2.4c-0.5,0-1-0.1-1.5-0.2c-4-0.8-6.5-4.6-5.7-8.6c0.7-3.4,3.7-5.9,7.2-5.9
			c0.8,0,1.5,0.1,2.2,0.3l0.3,0.1c0.4,0.1,0.7,0.3,1.1,0.5l0.6-1.1l0.6-1.1c-0.3-0.1-0.6-0.3-0.9-0.4l-0.6-0.2
			c-1.1-0.4-2.2-0.6-3.4-0.6c-5.4-0.1-9.8,4.2-9.8,9.6c-0.1,4.2,2.6,8,6.6,9.3c0.7,0.3,1.5,0.4,2.3,0.5
			C65.6,402.7,66,402.8,66.3,402.8"/>
		<path class="st0" d="M105.1,417.1c-0.4-0.2-0.9-0.5-1.2-0.9l-0.3,0.3L105.1,417.1 M102.5,418.3l0.3-0.8l-0.5,0.6L102.5,418.3
			 M108,420.3c4.6,0.1,8.4-3.6,8.4-8.2c0-2.6-1.1-5.1-3.2-6.7c-0.2-0.2-0.5-0.4-0.7-0.5l-0.7,1l-0.7,1c0.5,0.3,0.9,0.7,1.3,1.1
			c1.4,1.6,1.8,3.9,1.1,5.9c-0.9,2.4-3.1,3.9-5.6,3.9c-0.7,0-1.4-0.1-2.1-0.4l-0.4-0.2l-0.8,2.3l0.4,0.2
			C106,420.1,107,420.2,108,420.3"/>
		<path class="st0" d="M105.2,394.8l2.3-0.5c-1-4.2-5-8.1-10.3-10c-2.1-0.7-4.2-1.1-6.4-1.2c-4.4,0-8.3,1.7-10,4.7l1.1,0.6l0.4,0.2
			c0.4-0.1,0.8-0.2,1.1-0.3c1.5-1.9,4.2-2.9,7.4-2.9c1.9,0,3.9,0.3,5.7,1c4.5,1.6,7.9,4.8,8.7,8.1L105.2,394.8"/>
		<path class="st0" d="M96.8,404.9c5,0,9.3-2.2,10.6-6c0.5-1.5,0.6-3.1,0.2-4.6l-2.3,0.5c0.9,1,1.6,2.1,1.9,3.4
			c0.1,0.6-0.3,1.3-0.9,1.4c0,0,0,0,0,0h-0.2c-0.6,0-1-0.4-1.2-0.9c-1.3,2.4-4.3,3.7-7.9,3.7c-1.9,0-3.9-0.3-5.7-1
			c-5.6-2-9.2-6.3-8.9-10.2h-0.1c-0.5,0-1-0.3-1.2-0.8c-0.2-0.6,0.1-1.3,0.7-1.5c0,0,0,0,0,0l0.6-0.2l-0.4-0.2l-1.1-0.6
			c-0.2,0.4-0.4,0.8-0.6,1.2c-1.9,5.4,2.6,11.9,10.1,14.6C92.4,404.4,94.6,404.8,96.8,404.9"/>
		<path class="st0" d="M105.9,399.7h0.2c0.7-0.1,1.1-0.8,1-1.4c0,0,0,0,0,0c-0.3-1.3-1-2.4-1.9-3.4l-0.1-0.1c-2.2-2.2-5-3.9-8-4.9
			c-1-0.4-2.1-0.7-3.2-1c-2.2-0.5-4.4-0.8-6.6-0.8c-1.3,0-2.6,0.1-3.9,0.4c-0.4,0.1-0.8,0.2-1.1,0.3l0,0l-0.6,0.2
			c-0.6,0.2-1,0.9-0.8,1.5c0,0,0,0,0,0c0.2,0.5,0.7,0.8,1.2,0.8h0.1l0.3-0.1c1.6-0.5,3.2-0.7,4.8-0.7c2,0,4.1,0.3,6.1,0.8
			c6.7,1.6,10.8,5,11.3,7.4v0.1C104.9,399.3,105.4,399.7,105.9,399.7"/>
		<path class="st0" d="M83.1,404c0.1,0,0.3,0,0.4,0.1c0.8,0.2,1.2,1,1,1.7c-0.2,0.6-0.8,1.1-1.4,1c-0.1,0-0.3,0-0.4-0.1
			c-0.8-0.2-1.2-1-1-1.7C81.8,404.4,82.4,404,83.1,404 M82.7,408.1c1.8,0,3.2-1.4,3.2-3.1c0-1.4-0.9-2.7-2.3-3.1
			c-0.3-0.1-0.7-0.2-1-0.1c-1.8,0-3.2,1.4-3.2,3.1c0,1.4,0.9,2.7,2.3,3.1C82.1,408,82.4,408.1,82.7,408.1"/>
		<path class="st0" d="M97.9,408.6c0.1,0,0.3,0,0.4,0.1c0.8,0.2,1.2,1,1,1.8c0,0,0,0,0,0c-0.2,0.6-0.7,1-1.4,1c-0.1,0-0.3,0-0.4-0.1
			c-0.8-0.2-1.2-1-1-1.8c0,0,0,0,0,0C96.7,409,97.3,408.6,97.9,408.6 M97.6,412.7c1.8,0,3.2-1.4,3.2-3.1c0-1.4-0.9-2.7-2.3-3.1
			c-0.3-0.1-0.7-0.2-1-0.1c-1.8,0-3.2,1.5-3.1,3.2c0,1.4,0.9,2.6,2.3,3C97,412.7,97.3,412.7,97.6,412.7"/>
		<path class="st0" d="M103.4,423.1l1.3-3.5l0.8-2.3l0,0l-0.1-0.1l-0.2-0.1l-1.5-0.5l-0.5-0.2l-0.2,0.6l-0.2,0.5l-0.3,0.8l-0.3,0.7
			l-1.1,3.2c0.4-0.1,0.8-0.1,1.2,0.1C102.7,422.4,103.1,422.7,103.4,423.1"/>
		<path class="st0" d="M101.6,426.5c1.2,0,2.2-0.9,2.2-2.1c0-0.4-0.1-0.9-0.4-1.2c-0.4-0.6-1.1-1-1.9-1c-0.1,0-0.3,0-0.4,0
			c-0.7,0.1-1.4,0.7-1.6,1.4c-0.4,1.1,0.2,2.4,1.3,2.8c0,0,0,0,0,0C101,426.4,101.3,426.4,101.6,426.5"/>
		<path class="st0" d="M90.4,400.5L90.4,400.5c0.7,0,1.2-0.5,1.2-1.2c0,0,0-0.1,0-0.1l0-1.3c0-0.7-0.6-1.2-1.2-1.2l0,0
			c-0.7,0-1.2,0.6-1.2,1.2c0,0,0,0,0,0l0,1.3C89.2,400,89.8,400.5,90.4,400.5"/>
		<path class="st0" d="M94.4,401.6c0.3,0,0.7-0.1,0.9-0.4l0.9-1c0.4-0.5,0.4-1.3-0.1-1.7c0,0,0,0,0,0c-0.2-0.2-0.5-0.3-0.8-0.3
			c-0.3,0-0.7,0.1-0.9,0.4l-0.9,1c-0.4,0.5-0.4,1.3,0.1,1.7c0,0,0,0,0,0C93.8,401.5,94.1,401.6,94.4,401.6"/>
		<path class="st0" d="M92.1,351.4c0.7,0,1.5,0.1,2.1,0.4c3.2,1.1,5,4.6,3.9,7.8c-0.8,2.5-3.2,4.2-5.9,4.2c-0.7,0-1.5-0.1-2.1-0.4
			c-3.2-1.1-5-4.6-3.9-7.8C87.1,353.1,89.5,351.4,92.1,351.4 M92.3,366.2c4.7,0,8.6-3.8,8.7-8.5c0-3.7-2.3-7-5.8-8.2
			c-1-0.3-2-0.5-3-0.5c-4.7,0-8.6,3.8-8.7,8.5c0,3.7,2.3,7,5.8,8.2C90.2,366.1,91.3,366.2,92.3,366.2"/>
		<path class="st0" d="M87,436.1L87,436.1c2.6-0.2,5.1-0.6,7.6-1.3c5.1-1.5,9.7-4.3,13.4-8.1c0.5-0.5,0.4-1.2,0-1.7c0,0,0,0,0,0
			c-0.1-0.1-0.3-0.2-0.4-0.3c-0.1,0-0.3-0.1-0.4-0.1c-0.3,0-0.7,0.1-0.9,0.4c-3.4,3.5-7.7,6.1-12.4,7.4c-1.2,0.4-2.4,0.6-3.6,0.9
			c-1.1,0.2-2.2,0.3-3.3,0.4c-0.7,0-1.2,0.6-1.1,1.3c0,0,0,0,0,0C85.8,435.6,86.4,436.1,87,436.1"/>
		<path class="st0" d="M79.6,435.7c0.6,0,1.1-0.4,1.2-1c0.1-0.6-0.3-1.1-0.8-1.3l-0.2-0.1c-2-0.3-3.9-0.8-5.8-1.5
			c-0.1,0-0.3-0.1-0.4-0.1c-0.7,0-1.2,0.5-1.2,1.2c0,0.5,0.3,1,0.8,1.2c2,0.7,4.1,1.3,6.2,1.6H79.6"/>
		<path class="st0" d="M1,174L1,174L1,174L1,174"/>
		<path class="st0" d="M0.5,173.8v-0.9c-0.2-0.4-0.3-0.8-0.5-1.2v2L0.5,173.8"/>
		<path class="st0" d="M1,174L1,174c-0.2-0.4-0.3-0.8-0.5-1.1v0.9L1,174"/>
		<path class="st0" d="M18.8,192c1.9-0.6,3.9-0.9,5.9-0.9l1.1-0.1c1-0.1,2-0.1,2.9-0.1c1.5,0,3.1,0.1,4.6,0.5l1.5-1l0.3-3.5
			c10.5-4.3,17.1-14.9,16.3-26.2c-0.6-7-3.9-13.5-9.2-18c-4.9-4.2-11.1-6.5-17.6-6.5c-0.6,0-1.2,0-1.8,0.1c-1.1,0.1-2.1,0.2-3.2,0.4
			l-2.4-2.2h-1.6c-0.9,0.6-1.8,1.1-2.9,1.5l-0.9,0.4c-1.4,0.7-3,1.2-4.6,1.3H6.9l-1.2,1.5l1.2,3.9c-2.4,2.1-4.4,4.7-5.9,7.6v7.7
			c0.9-5.5,3.8-10.4,8.1-14l0.4-1.3l-1-3.2c1.5-0.3,2.9-0.8,4.3-1.4l0.8-0.4c0.9-0.3,1.7-0.7,2.6-1.2l2,1.9l1.3,0.5
			c1.2-0.3,2.3-0.4,3.5-0.5c0.5,0,1.1,0,1.6,0c5.8,0,11.5,2.1,15.9,5.9c4.9,4.1,7.9,10,8.4,16.4c0.5,6.8-1.9,13.4-6.6,18.3
			c-2.4,2.6-5.4,4.5-8.8,5.8l-0.8,1l-0.2,2.9c-1.3-0.2-2.5-0.3-3.8-0.3c-0.9,0-1.9,0-3,0.1l-1.1,0.1c-1.8,0-3.6,0.3-5.4,0.7
			l-1.2-3.6l-0.8-0.8C8.8,182.1,2.6,174.9,1,166.1v7.8v0.1c3.1,6.1,8.4,10.7,14.8,13l1.4,4.2L18.8,192"/>
		<path class="st0" d="M0.5,172.8v-21.3c-0.2,0.4-0.3,0.8-0.5,1.2v19C0.1,172.1,0.3,172.5,0.5,172.8"/>
		<path class="st0" d="M1,173.9v-7.8c-0.1-0.7-0.2-1.4-0.3-2.1c-0.2-1.9-0.1-3.9,0.3-5.8v-7.7c-0.2,0.3-0.3,0.7-0.5,1v21.4
			C0.6,173.2,0.8,173.5,1,173.9"/>
		<path class="st0" d="M7.1,171.6c1,0.3,1.9,1,2.5,2c0.7,0.8,1.1,1.9,1.1,3h-0.1c-0.1,0-0.2,0-0.3-0.1c-0.9-0.4-1.7-1.1-2.2-1.9
			C7.5,173.8,7.1,172.7,7.1,171.6 M10.7,179c0.5,0,1-0.1,1.4-0.4c1.6-1.1,1.4-3.8-0.5-6.4c-0.8-1.3-2-2.2-3.4-2.8
			c-0.4-0.1-0.8-0.2-1.2-0.2c-0.5,0-1,0.1-1.4,0.4l0,0c-1.6,1.1-1.4,3.8,0.5,6.4C7.5,177.9,9.2,178.9,10.7,179"/>
		<path class="st0" d="M43.4,161.4c0.3,0.4,0.8,2,0.5,4.4c-0.1,1.5-0.7,3-1.7,4.2c-0.3-0.2-0.9-1.9-0.5-4.5
			C42,163.1,43,161.7,43.4,161.4 M42.1,172.4c2.2,0,3.7-3.1,4.2-6.2s0-6.4-2.1-7.1c-0.1,0-0.3-0.1-0.4-0.1l0,0h-0.4
			c-2.2,0-3.7,3.1-4.2,6.2c-0.2,1.5-0.2,3,0.1,4.5c0.5,2.2,1.8,2.7,2.4,2.8L42.1,172.4"/>
		<path class="st0" d="M16.7,149.6h0.4c0.7,0,1.3,0.4,1.7,1c0.7,1.2,0,3.1-1.7,4.1c-0.7,0.4-1.5,0.7-2.3,0.7c-0.4,0-0.7-0.1-1.1-0.2
			c-0.4-0.1-0.8-0.4-1.1-0.8c-0.4-0.6-0.4-1.4-0.1-2c0.4-0.9,1-1.6,1.8-2.1l0,0C15.1,149.8,15.9,149.6,16.7,149.6 M14.8,157.8
			c1.3,0,2.5-0.3,3.6-1c2.9-1.7,4-5.1,2.5-7.4c-0.5-0.9-1.4-1.5-2.3-1.9c-0.4-0.1-0.8-0.2-1.2-0.3c-0.2,0-0.5,0-0.7,0
			c-1.3,0-2.5,0.3-3.6,1c-1.3,0.8-2.3,1.9-2.9,3.3c-0.5,1.3-0.4,2.9,0.3,4.1C11.5,157.1,13.1,157.9,14.8,157.8"/>
		<path class="st0" d="M25,169.1c0.3,0,0.6,0,0.8,0.1c1.2,0.4,1.9,1.7,1.5,2.9c-0.3,1-1.2,1.6-2.2,1.6c-0.3,0-0.6,0-0.8-0.1
			c-1.2-0.4-1.9-1.7-1.5-2.9C23.1,169.8,24,169.1,25,169.1 M25.1,176.2c2.6,0,4.8-2.1,4.8-4.7c0-2.1-1.3-3.9-3.3-4.6
			c-0.5-0.2-1.1-0.3-1.6-0.3c-2.6,0-4.8,2.1-4.8,4.7c0,2.1,1.3,3.9,3.3,4.6C24,176.1,24.5,176.2,25.1,176.2"/>
		<path class="st0" d="M335.5,44.5c14.7-0.1,26.8,11.7,27.1,26.4c0.1,7.5-3.1,14.7-8.7,19.7c-2.9,2.7-6.4,4.6-10.2,5.7l-0.9,1
			l-0.5,3.3c-2.5-0.5-5-0.8-7.6-0.7h-2.3c-1.7,0-3.3,0.1-5,0.4l-1-4.2l-0.7-0.8c-9.9-4.1-16.5-13.6-16.7-24.4
			c-0.1-8.4,3.9-16.3,10.7-21.3l0.5-1.2l-0.9-3.8c1.7-0.2,3.4-0.6,4.9-1.2l0.9-0.3c1-0.3,2-0.7,3-1.2l2,2.2l1.2,0.5
			C332.9,44.6,334.2,44.5,335.5,44.5L335.5,44.5 M343,103.5l1.6-1l0.6-4c3.7-1.2,7.1-3.2,10-5.7l-0.3-0.1l0.5-2.4l1.9,0.4
			c2.4-2.5,4.3-5.4,5.6-8.6l-1.3-2l2-1.3l0.3,0.4c0.8-2.7,1.2-5.5,1.1-8.3c-0.2-12.2-8-23-19.5-27.1c-3.2-1.2-6.6-1.7-10-1.7l0,0
			c-1.2,0-2.4,0.1-3.6,0.2l-2.5-2.7l-1.6-0.2c-1,0.6-2.2,1.1-3.3,1.4l-1,0.3c-1.6,0.6-3.2,1-4.9,1.1c-0.2,0-0.4,0-0.6,0l-1.3,1.5
			l1,4.4c-7.1,5.4-11.2,13.8-11.1,22.7c0.2,11.5,7.1,21.8,17.6,26.4l1.2,4.8l1.6,0.9c1.8-0.5,3.7-0.7,5.6-0.6h2.2
			C337.6,102.4,340.4,102.7,343,103.5"/>
		<path class="st0" d="M361.2,94.1l1.5-1c0.4-3.1,1.7-6,3.7-8.4l0.1-1.5l-2.5-4l-0.3-0.4l-2,1.3l1.3,2.1l1,1.6
			c-1.7,2.3-2.9,4.9-3.5,7.7l-3.1-0.7l-1.9-0.4l-0.5,2.4l0.3,0.1L361.2,94.1"/>
		<path class="st0" d="M339.2,77.7c1.9,0,3.5,1.5,3.5,3.5c0,1.9-1.5,3.5-3.4,3.5c0,0,0,0,0,0c-0.4,0-0.8-0.1-1.2-0.2
			c-1.4-0.5-2.3-1.8-2.4-3.2C335.7,79.3,337.3,77.7,339.2,77.7C339.2,77.7,339.2,77.7,339.2,77.7L339.2,77.7 M339.3,87.1L339.3,87.1
			c3.2,0,5.9-2.6,5.9-5.8c0,0,0,0,0-0.1c-0.1-3.3-2.7-5.9-6-5.9l0,0c-1.6,0-3.1,0.6-4.2,1.7c-1.1,1.1-1.7,2.6-1.7,4.2
			C333.4,84.4,336,87.1,339.3,87.1"/>
		<path class="st0" d="M312.9,71.4c1.4,1.6,2.4,3.4,2.9,5.4c1,3.1,1.1,5.2,0.9,6.1c-1.4-1.6-2.4-3.4-2.9-5.4
			C312.7,74.4,312.7,72.3,312.9,71.4 M316.9,85.5c0.2,0,0.4,0,0.6-0.1c0.6-0.2,1-0.6,1.3-1.1c0.9-1.8,0.3-5.4-0.6-8.2
			c-1-3.1-2.8-6.5-4.8-7.2c-0.2-0.1-0.5-0.1-0.7-0.1c-0.2,0-0.4,0-0.6,0.1l0,0c-2.5,0.8-1.9,5.5-0.7,9.3c0.9,2.8,2.6,6.1,4.4,7
			C316.1,85.4,316.5,85.5,316.9,85.5"/>
		<path class="st0" d="M345,55.3c0.7,0.1,1.4,0.4,2,0.8c1.7,1.2,3.2,2.6,4.4,4.2c3.1,4.1,3.5,7.2,3.1,7.6c-0.1,0-0.1,0-0.2,0
			c-0.2,0-0.5-0.1-0.7-0.1c-0.4-0.2-0.8-0.4-1.2-0.6c-1.7-1.2-3.2-2.6-4.4-4.2c-1.3-1.6-2.3-3.4-2.9-5.3c-0.5-1.6-0.2-2.2-0.1-2.2
			C344.9,55.2,344.9,55.2,345,55.3 M354.2,70.3c0.6,0,1.2-0.2,1.7-0.5c2.4-1.8,0.5-6.9-2.6-11c-1.4-1.9-3.1-3.5-5-4.8
			c-0.5-0.4-1.1-0.6-1.7-0.9c-0.5-0.2-1-0.3-1.5-0.3c-0.6,0-1.2,0.2-1.7,0.5c-0.8,0.6-1.6,2-0.7,4.9c0.7,2.2,1.9,4.3,3.3,6.1
			c1.4,1.9,3.1,3.5,5,4.8C351.9,69.8,353.1,70.2,354.2,70.3"/>
		<path class="st0" d="M292.3,336.8c0.6,1.6,1.4,3.1,2.4,4.5l0.5,0.8c0.6,0.9,1.2,1.8,1.9,2.6l-1.7,2.5l-0.2,1.3
			c0.5,1.2,0.9,2.4,1.2,3.7c1.8,6.8,0.7,14-3,20c-3.7,6-9.6,10.3-16.5,11.9c-2,0.5-4.1,0.7-6.2,0.7c-5.5,0-10.8-1.7-15.4-4.7
			c-3.3-2.2-6.1-5.1-8.1-8.5l-1.2-0.6l-3.4,0.3c-0.1-2.5-0.5-5-1.1-7.5l-0.3-1.2c-0.4-2-1-3.9-1.8-5.8l3.9-1.9l0.6-0.9
			c1.7-10.5,9.6-19,20-21.4c8.3-2,17,0.1,23.5,5.6l1.3,0.2L292.3,336.8 M270.7,387.3c2.3,0,4.5-0.3,6.8-0.8c7.5-1.7,14-6.4,18-13
			c4-6.5,5.2-14.4,3.3-21.8c-0.3-1.2-0.6-2.3-1.1-3.4l2-3l-0.2-1.6c-0.8-0.9-1.6-1.8-2.2-2.9l-0.6-0.9c-1.1-1.5-2-3.2-2.4-5l-1.8-1
			l-4.2,2c-7-5.6-16.3-7.7-25-5.7c-11.1,2.6-19.7,11.5-21.7,22.7l-4.5,2.2l-0.5,1.7c1,1.9,1.8,4,2.1,6.2l0.3,1.2
			c0.8,2.6,1.1,5.4,1,8.1l1.3,1.3l4-0.3c2.1,3.3,4.8,6.1,8,8.3v-0.3h2.5v1.9c3.1,1.7,6.4,2.9,9.8,3.5l1.7-1.7l1.8,1.7l-0.4,0.3
			c0.6,0,1.1,0,1.7,0"/>
		<path class="st0" d="M264.3,390.7l1.4-0.2l3.3-3.3l0.3-0.3l-1.8-1.7l-1.7,1.7l-1.3,1.3c-2.5-1.1-5.2-1.6-8-1.7h-0.4l-0.1-3.1v-1.9
			h-2.5v0.3l0.2,6l1.4,1.2c0.5-0.1,1-0.1,1.5-0.1C259.3,388.9,262,389.5,264.3,390.7"/>
		<path class="st0" d="M264.4,336.4L264.4,336.4c-0.4,0.8-1.9,2.4-4.6,4c-1.7,1.2-3.7,1.9-5.7,2.2l0,0c0.4-0.8,1.9-2.4,4.6-4
			C260.4,337.4,262.4,336.7,264.4,336.4 M254.1,345c0.6,0,1.2-0.1,1.7-0.2c1.8-0.5,3.6-1.3,5.2-2.3c2.5-1.5,5.4-3.8,5.9-5.8
			c0.3-1.1-0.3-2.2-1.4-2.6l-0.3-0.1c-0.3-0.1-0.6-0.1-0.9-0.1c-2,0-4.9,1.2-7,2.5c-1.7,0.9-3.2,2.1-4.5,3.5c-1.8,2-1.6,3.2-1.2,4
			C252.3,344.7,253.2,345.2,254.1,345"/>
		<path class="st0" d="M287.8,363.5c0.1,0,0.2,0,0.3,0l0,0c0.1,0.1,0.3,0.7-0.2,2.2c-0.7,1.9-1.8,3.6-3.1,5.2
			c-1.3,1.6-2.8,2.9-4.5,4c-0.6,0.4-1.2,0.6-1.9,0.7c-0.1,0-0.2,0-0.2,0l0,0c-0.1-0.1-0.3-0.7,0.2-2.2c0.7-1.9,1.8-3.6,3.1-5.2
			c1.3-1.6,2.8-2.9,4.5-4C286.5,363.8,287.1,363.5,287.8,363.5 M278.3,378c1.1-0.1,2.2-0.4,3.1-1c4-2.5,7-6.1,8.8-10.5
			c1-2.9,0.2-4.2-0.5-4.9c-0.2-0.2-0.5-0.3-0.8-0.4c-0.3-0.1-0.7-0.2-1.1-0.2c-1.1,0.1-2.2,0.4-3.1,1c-4,2.5-7,6.1-8.8,10.5
			c-1,2.9-0.2,4.2,0.6,4.9C277,377.8,277.6,378,278.3,378"/>
		<path class="st0" d="M257.7,361.9c1.3,0.1,2.6,0.7,3.4,1.7c0.7,0.8,1.2,1.8,1.3,2.9c0.1,0.8-0.2,1.6-0.8,2.1
			c-0.4,0.4-1,0.6-1.6,0.6h-0.2c-2.4-0.3-4.2-2.2-4.5-4.6c-0.1-0.8,0.2-1.6,0.8-2.1C256.5,362.1,257.1,361.9,257.7,361.9 M260,371.6
			c2.6,0.1,4.8-2,4.8-4.6c0-0.2,0-0.4,0-0.6c-0.1-1.6-0.8-3.2-1.9-4.4c-0.9-1-1.9-1.7-3.2-2.2c-0.7-0.3-1.4-0.4-2.2-0.4
			c-1.2,0-2.3,0.4-3.2,1.1c-1.2,1-1.8,2.6-1.6,4.1c0.3,3.6,3.2,6.5,6.8,6.9L260,371.6"/>
		<path class="st0" d="M394.5,254.8c-1.2,0.6-2.4,1.1-3.6,1.4c-14.1,4.5-29.1-3.1-33.9-17.1c-2.4-7.1-1.6-15,2.2-21.5
			c1.9-3.4,4.6-6.3,7.9-8.5l0.5-1.2l-0.6-3.3c2.5-0.2,5-0.8,7.4-1.6l1.1-0.4c2-0.5,3.9-1.3,5.7-2.2l2.3,3.7l1,0.6
			c10.7,0.9,19.9,8.1,23.4,18.3c2.7,8,1.4,16.8-3.6,23.5l-0.1,1.3l2,3.4c-1.5,0.7-3,1.6-4.3,2.7l-0.8,0.6c-0.9,0.6-1.7,1.3-2.5,2
			l-2.7-1.5L394.5,254.8 M382.7,260c3.1,0,6.1-0.5,9-1.4c1.1-0.4,2.3-0.8,3.4-1.3l3.2,1.8l1.6-0.4c0.8-0.9,1.7-1.7,2.7-2.4l0.8-0.6
			c1.4-1.2,3.1-2.2,4.9-2.7l0.8-1.8l-2.4-4c5-7.3,6.3-16.6,3.4-25c-3.7-10.9-13.4-18.7-24.9-19.9l-2.6-4.2l-1.8-0.4
			c-1.9,1.2-3.9,2-6.1,2.5l-1.2,0.4c-2.5,0.9-5.1,1.4-7.8,1.6h-0.3l-1.2,1.4l0.6,4c-3.3,2.4-6,5.4-8,8.9c-4.1,7.1-5,15.7-2.4,23.4
			c2.5,7.3,7.7,13.4,14.7,16.9C373.4,258.9,378,260,382.7,260"/>
		<path class="st0" d="M396.9,213.9c1.8,1.1,3.3,2.5,4.5,4.3c1.9,2.6,2.6,4.7,2.7,5.5c-1.8-1.1-3.3-2.5-4.5-4.3
			C397.7,216.9,396.9,214.8,396.9,213.9 M404.4,226.3c0.4,0,0.9-0.1,1.2-0.4c0.7-0.5,1.3-1.6,0.5-4.1c-0.7-1.8-1.6-3.5-2.7-5
			c-1.6-2.3-3.8-4.5-5.7-5.2c-0.3-0.1-0.7-0.2-1.1-0.2c-0.4,0-0.9,0.1-1.2,0.4c-2.1,1.5-0.1,5.8,2.2,9.1
			C399.6,223.6,402.3,226.3,404.4,226.3"/>
		<path class="st0" d="M366.4,239.5c1.2,0,3.8,0.7,7.1,3c1.7,1.1,3.2,2.6,4.4,4.2c0.9,1.4,0.9,2,0.8,2.1c-0.1,0.1-0.3,0.2-0.7,0.2
			c-0.9,0-1.7-0.2-2.6-0.6c-1.6-0.6-3.1-1.4-4.5-2.4c-4.3-3-5.6-5.9-5.2-6.3C365.8,239.6,366,239.5,366.4,239.5 M378,251.4
			c1,0.1,2.1-0.3,2.8-1.1c0.6-0.8,0.9-2.4-0.8-4.9c-1.4-1.9-3.1-3.5-5-4.8c-1.6-1.1-3.3-2-5.1-2.7c-1.1-0.4-2.2-0.6-3.3-0.7
			c-1.1-0.1-2.1,0.3-2.8,1.1c-1.8,2.5,1.6,6.8,5.9,9.7C372.3,250,375.6,251.4,378,251.4"/>
		<path class="st0" d="M375.3,216.6c0.7,0,1.3,0.2,1.8,0.6c1.2,1.1,0.8,3.4-0.8,5c-0.8,0.8-1.8,1.3-2.8,1.5H373c-0.3,0-0.7,0-1-0.2
			c-0.3-0.1-0.6-0.3-0.8-0.5c-0.6-0.6-0.8-1.4-0.7-2.2C370.9,218.5,372.8,216.7,375.3,216.6 M373,226.2c0.3,0,0.5,0,0.8,0
			c1.6-0.2,3.1-1,4.3-2.2c2.6-2.6,2.9-6.4,0.7-8.5c-0.5-0.4-1.1-0.8-1.7-1c-0.6-0.2-1.2-0.3-1.8-0.3c-3.6,0.1-6.6,2.9-7.1,6.5
			c-0.4,2.6,1.4,5.1,4.1,5.5C372.4,226.3,372.7,226.3,373,226.2"/>
		<path class="st0" d="M1,131c2.3-1.3,4.6-2.6,7-3.8c7.2-4.2,13.2-10.2,17.2-17.6C31,99,32.2,86.4,28.6,74.8
			C25,63.1,17,53.2,6.1,47.5c-1.7-0.9-3.4-1.7-5.1-2.4v2.6c1.3,0.6,2.7,1.2,4,1.9c10.2,5.5,17.9,14.8,21.3,25.9
			C32.1,94.5,24,115.1,6.8,125c-1.9,1-3.8,2-5.7,3.1L1,131"/>
		<path class="st0" d="M0.5,47.5v-2.6L0,44.7v2.6L0.5,47.5 M0,131.5l0.5-0.3v-2.8L0,128.7V131.5"/>
		<path class="st0" d="M1,47.7v-2.6l-0.5-0.2v2.6L1,47.7 M0.5,131.3L1,131v-2.8l-0.5,0.3V131.3"/>
		<path class="st0" d="M1,119.9c15.3-7.7,22.8-25.4,17.8-41.8C16,69,9.7,61.3,1.2,56.8L1,56.7v2.8c7.4,4.3,12.9,11.2,15.4,19.4
			C21,93.6,14.5,109.6,1,117.1V119.9"/>
		<path class="st0" d="M0.5,59.2v-2.8L0,56.2v2.7h0.1L0.5,59.2 M0,120.3l0.5-0.2v-2.8L0,117.6V120.3"/>
		<path class="st0" d="M1,59.4v-2.8l-0.5-0.3v2.8L1,59.4 M0.5,120.1l0.5-0.2v-2.8l-0.5,0.3V120.1"/>
		<path class="st0" d="M8.2,102.3c0.4,0,0.8-0.3,1-0.6c6.6-12.4,3.1-27.8-8.3-36v3.1c9.3,7.8,11.8,21.1,6.1,31.8
			c-0.3,0.6-0.1,1.3,0.5,1.6C7.8,102.2,8,102.3,8.2,102.3"/>
		<path class="st0" d="M0.5,68.3v-3L0,64.9v3L0.5,68.3"/>
		<path class="st0" d="M1,68.7v-3.1l-0.5-0.4v3L1,68.7"/>
		<path class="st0" d="M1,298.7c14.9-4.7,26.8-16.1,32.1-30.8c9.4-26.2-4.6-55.4-31.3-64.9L1,202.7v2.6
			c25.4,9.1,38.7,36.9,29.8,61.8c-5,13.7-15.9,24.4-29.8,29.1L1,298.7"/>
		<path class="st0" d="M0.5,205.1v-2.6L0,202.4v2.5L0.5,205.1 M0,299l0.5-0.1v-2.6L0,296.4V299"/>
		<path class="st0" d="M1,205.3v-2.6l-0.5-0.2v2.6L1,205.3L1,205.3 M0.4,298.8l0.5-0.2v-2.6l-0.5,0.2V298.8"/>
		<path class="st0" d="M45.3,53.8l0.1,0.5l-2.4,0.3l-0.1-1c-7.4-1.1-13.1-6.9-14-14.3c-0.5-4,0.7-8.1,3.3-11.3
			c1.7-2.1,3.9-3.7,6.4-4.6l-0.3-1.8l2.4-0.3l0.2,1.4c0.5-0.1,1.1-0.2,1.7-0.3l59.5-6.2h0.3c1.6,0,3,1.2,3.2,2.8l2.9,25.1
			c0.1,0.8-0.1,1.7-0.7,2.3c-0.5,0.6-1.3,1.1-2.1,1.1l-58.6,6.1C46.4,53.7,45.8,53.8,45.3,53.8 M45.3,56.2c0.7,0,1.3,0,2-0.1
			l17.6-1.8l-0.2-2.2l10.1-1l0.2,2.2l30.9-3.2c1.5-0.1,2.8-0.9,3.8-2c0.9-1.1,1.4-2.6,1.2-4.1l-0.2-1.8l-2.4,0.2L105.7,21l2.4-0.2
			l-0.2-1.9c-0.4-2.9-2.8-5-5.7-5c-0.2,0-0.4,0-0.6,0L70.7,17l0.3,2.3l-10.1,1L60.6,18l-18.5,1.9c-4.7,0.5-9,2.8-12,6.5
			c-3,3.6-4.3,8.3-3.8,13C27.4,49,35.6,56.3,45.3,56.2"/>
		<path class="st0" d="M114.1,22.6l1.9,16.5l-5.7,0.6l-1.9-16.5L114.1,22.6z M108.2,42.4l2.4-0.2l5.8-0.6l-2.5-21.4l-5.8,0.6
			l-2.4,0.2L108.2,42.4"/>
		<path class="st0" d="M123.9,14.1c2.9,0,5.7,1,8,2.8c2.6,2.1,4.4,5.1,4.7,8.5l0.8,7.2c0.7,6.4-3.9,12.1-10.2,12.8
			c-0.1,0-0.1,0-0.2,0l-7.7,0.8l-3.7-31.3l6.8-0.7C122.9,14.1,123.4,14.1,123.9,14.1 M117.2,48.9l10.1-1c7.7-0.7,13.3-7.6,12.6-15.3
			c0-0.1,0-0.1,0-0.2l-0.8-7.2c-0.5-4-2.5-7.6-5.6-10.1c-1.3-1.1-2.8-1.9-4.4-2.5c-1.7-0.6-3.4-0.9-5.2-0.9c-0.5,0-1.1,0-1.6,0.1
			l-9.2,1l0.9,7.5l2.5,21.4L117.2,48.9"/>
		<path class="st0" d="M72.5,53.8l1.6,13.8l-5.2,0.5l-1.6-13.8L72.5,53.8z M66.5,68.4l10.1-1l-1.7-14.2l-0.2-2.2l-10.1,1l0.2,2.2
			L66.5,68.4"/>
		<path class="st0" d="M66.5,2.4l1.7,14.8L63,17.7L61.3,3L66.5,2.4z M60.9,20.4l10.1-1l-0.3-2.3L68.9,2.1l-10.1,1l1.8,15.1
			L60.9,20.4"/>
		<path class="st0" d="M86.8,68.8c0.8,0,1.5,0.3,2.2,0.8c0.7,0.6,1.2,1.4,1.3,2.3l6.4,55.5c0.2,1.8-1.1,3.5-3,3.7c0,0,0,0,0,0
			l-28,2.9h-0.4c-1.7,0-3.2-1.3-3.4-3l-6.5-55.4c-0.2-1.8,1.1-3.5,3-3.7c0,0,0,0,0,0l28.1-2.9L86.8,68.8 M65.3,136.3
			c0.2,0,0.4,0,0.6,0l28.1-2.9c3.2-0.3,5.5-3.1,5.2-6.3c0,0,0-0.1,0-0.1l-6.5-55.4c-0.2-1.5-1-2.9-2.2-3.9c-0.5-0.4-1.1-0.8-1.7-1
			c-0.8-0.3-1.7-0.4-2.6-0.3l-9.6,1l-10.1,1l-8.4,0.9c-3.2,0.3-5.5,3.1-5.2,6.3c0,0,0,0,0,0.1l6.5,55.4
			C59.7,134,62.3,136.2,65.3,136.3"/>
		<path class="st0" d="M64.7,0L64.7,0 M44.2,0L44.2,0"/>
		<path class="st0" d="M49.8,4c0.2,0,0.4,0,0.6,0l8.4-0.9l10.1-1l9.6-1h0.2H55.1l-4.9,0.5h-0.4c-0.7,0-1.3-0.2-1.8-0.5h-3.3
			c1.1,1.8,3,3,5.2,3"/>
		<path class="st0" d="M59.9,0.5h20.5C80.7,0.4,81,0.2,81.3,0H64.7L59.9,0.5 M44.4,0.5h2.9C47.2,0.3,47.1,0.2,47,0h-2.7
			C44.3,0.2,44.4,0.3,44.4,0.5"/>
		<path class="st0" d="M55.1,1h23.6c0.6-0.1,1.2-0.2,1.7-0.5H59.9L55.1,1 M44.7,1H48c-0.2-0.1-0.4-0.3-0.6-0.5h-2.9
			C44.5,0.7,44.6,0.8,44.7,1"/>
		<path class="st0" d="M91.2,27.8c1.3,0,2.5,0.4,3.5,1.2c2.4,1.9,2.8,5.3,0.9,7.7c-0.9,1.2-2.3,1.9-3.8,2.1h-0.6
			c-2.9,0-5.3-2.2-5.6-5c-0.2-1.5,0.2-2.9,1.2-4.1c0.9-1.1,2.3-1.9,3.8-2C90.8,27.8,91,27.8,91.2,27.8 M91.3,41.3c0.3,0,0.6,0,0.9,0
			c4.3-0.4,7.5-4.3,7.1-8.6c0,0,0-0.1,0-0.1c-0.2-2.1-1.3-4-3-5.4c-0.7-0.6-1.5-1-2.3-1.3c-0.9-0.3-1.8-0.5-2.7-0.5
			c-0.3,0-0.6,0-0.9,0c-2.1,0.2-4.1,1.3-5.4,2.9c-1.3,1.6-1.9,3.7-1.7,5.8C83.8,38.2,87.2,41.3,91.3,41.3"/>
		<path class="st0" d="M67.8,30.3c1.3,0,2.5,0.4,3.5,1.2c1.2,0.9,1.9,2.3,2.1,3.7c0.2,1.5-0.2,2.9-1.2,4.1c-0.9,1.1-2.3,1.9-3.7,2
			h-0.6c-2.9,0-5.3-2.1-5.6-5c-0.2-1.5,0.2-2.9,1.2-4.1c0.9-1.1,2.3-1.9,3.8-2C67.4,30.3,67.6,30.3,67.8,30.3 M67.9,43.7
			c0.3,0,0.6,0,0.8,0c2.1-0.2,4.1-1.3,5.4-2.9c1.3-1.6,1.9-3.7,1.7-5.8c-0.2-2.1-1.3-4-3-5.4c-0.7-0.6-1.5-1-2.3-1.3
			c-0.9-0.3-1.8-0.5-2.8-0.5c-0.3,0-0.6,0-0.9,0c-2.1,0.2-4.1,1.3-5.4,2.9c-1.3,1.6-1.9,3.7-1.7,5.8C60.4,40.7,63.8,43.8,67.9,43.7"
			/>
		<path class="st0" d="M91.3,38.2c1.5,0,2.8-0.6,3.8-1.8c0.4-0.5,0.3-1.3-0.2-1.7c0,0,0,0,0,0c-0.1-0.1-0.2-0.2-0.4-0.2
			c-0.1,0-0.3-0.1-0.4-0.1c-0.4,0-0.8,0.2-1,0.5c-0.5,0.6-1.1,0.9-1.9,0.9c-0.6,0-1.1-0.2-1.5-0.5c-0.5-0.4-1.3-0.3-1.7,0.2
			c-0.4,0.5-0.3,1.3,0.2,1.7c0,0,0,0,0,0C89.1,37.8,90.1,38.2,91.3,38.2"/>
		<path class="st0" d="M67.8,40.1c1.5,0,2.8-0.6,3.8-1.8c0.4-0.5,0.3-1.3-0.2-1.7c0,0,0,0,0,0c-0.1-0.1-0.2-0.2-0.4-0.2
			c-0.1,0-0.3-0.1-0.4-0.1c-0.4,0-0.8,0.2-1,0.5c-0.5,0.6-1.1,0.9-1.9,0.9c-0.6,0-1.1-0.2-1.5-0.5c-0.2-0.2-0.5-0.3-0.8-0.3
			c-0.4,0-0.8,0.2-1,0.5c-0.4,0.5-0.3,1.3,0.2,1.7c0,0,0,0,0,0C65.5,39.7,66.6,40.1,67.8,40.1"/>
		<polygon class="st0" points="42.9,54.6 45.3,54.3 45.3,53.8 40.7,22.7 40.5,21.3 38.1,21.6 38.4,23.4 42.7,53.6 		"/>
		<path class="st0" d="M161.3,336.8c0.9,0,1.9,0.2,2.8,0.5c5,1.8,7.4,8.2,5.2,14.2c-1.8,4.9-6,8.1-10.3,8.1c-0.9,0-1.9-0.2-2.8-0.5
			c-5-1.8-7.4-8.2-5.2-14.2C152.8,340,157,336.8,161.3,336.8 M159,362c5.3,0,10.5-3.8,12.6-9.7c2.6-7.3-0.4-15-6.7-17.3
			c-1.2-0.4-2.4-0.6-3.6-0.6c-5.3,0-10.5,3.8-12.6,9.7c-2.6,7.3,0.4,15,6.7,17.3C156.5,361.8,157.8,362.1,159,362"/>
		<path class="st0" d="M179,307c5.2,0,10.3,0.9,15.1,2.7c18.8,6.7,30.6,25.3,29,44.6c-10.6-8.6-22.6-15.3-35.5-19.8
			c-12.7-4.6-26-7.1-39.5-7.3c-2,0-3.9,0.1-5.8,0.2C150.2,314.6,164.1,306.9,179,307 M222.8,357c0-0.2,0.1-0.4,0.1-0.6l2.3,0.3
			c3-21.2-9.8-41.9-30.3-49.3c-5.1-1.9-10.5-2.8-16-2.8c-16.6-0.1-31.8,8.9-39.8,23.5l-1.1,1.9h0.1c0.3-0.7,0.7-1.3,1-1.9l2,1.2
			l-0.3,0.5c2.3-0.2,4.7-0.3,7.2-0.3c13.2,0.2,26.3,2.6,38.7,7.1C200.6,341.6,213,348.6,222.8,357 M224.9,358.9l0.3-2.1
			C225.1,357.5,225,358.2,224.9,358.9L224.9,358.9"/>
		<path class="st0" d="M180.1,395.5c21.8,0.3,40.7-15.2,44.8-36.7c0.1-0.7,0.2-1.4,0.4-2.1l-2.3-0.3c0,0.2-0.1,0.4-0.1,0.6
			c-0.4,2.7-1.1,5.3-2,7.9c-6.2,17.1-22.5,28.4-40.7,28.3c-5.1,0-10.2-0.9-15-2.6c-22.7-8.1-34.6-32.9-26.6-55.2
			c0.7-1.9,1.5-3.8,2.5-5.6l0.3-0.5l-2.1-1.1c-0.3,0.6-0.7,1.3-1,1.9c-0.7,1.5-1.3,3-1.9,4.5c-8.4,23.5,4.1,49.6,28,58.2
			C169.4,394.6,174.7,395.5,180.1,395.5"/>
		<path class="st0" d="M160.7,351.2c1.5,0,2.8-1.3,2.8-2.8c0-1.2-0.7-2.2-1.9-2.6c-0.3-0.1-0.7-0.2-1-0.2c-1.5,0-2.8,1.2-2.8,2.7
			c0,1.2,0.8,2.3,1.9,2.7C160,351.1,160.3,351.2,160.7,351.2"/>
		<path class="st0" d="M157.8,101.6c14.5-12.9,25.9-22.7,29.3-25.7l-0.2-0.1l1.4-2l0.3-0.4l-1.3-0.9l-0.7,0.6l-0.3,0.3l0.5,0.7
			l0.6,0.9L157.8,101.6 M241.9,110.6l0.3-0.4l-51.5-35.4l-0.3,0.4L241.9,110.6 M119.7,132.5l36.4-32.7
			C145.1,109.5,132.3,121,119.7,132.5 M233.9,136.7l9.2-22.9l1.1,0.3l1,0.3l0.3-0.7l0.3-0.9l-1.6-1.1L244,112l-1.1,1.6l0,0
			C241.8,116.3,238.6,124.9,233.9,136.7 M210.9,200.5c9.4-22.7,18.7-46.1,25.2-62.9L210.9,200.5L210.9,200.5 M187.6,247.9
			c1.6-2.2,3.5-4.3,5.6-6.1c1.6-3.6,3.3-7.4,5.1-11.3l-0.2,0.1l-1.2-2.1c1-0.5,2-1,3-1.5c3.4-7.7,6.8-15.9,10.3-24.2
			c-0.4-0.2-0.8-0.4-1.3-0.6l-1-0.5c-1.2,2.8-2.3,5.6-3.5,8.3l1.2,0.9l-1.4,2l-0.8-0.6C197.8,225.4,192.3,237.7,187.6,247.9
			 M100,310.6c6,0,12-0.7,17.9-2.1c26.7-6.1,53.1-24.2,64.1-44.1c2.3-4.1,4.9-9.3,7.7-15.3l-0.4,0.6l-2-1.3
			c-2.6,5.9-5.2,10.9-7.4,14.9c-1.9,3.4-4.2,6.7-6.7,9.7l1.8,1.3c-2.4,2.8-5,5.5-7.8,8l-1.7-1.2c-3.1,2.8-6.3,5.4-9.7,7.8l0.3,0.2
			l-1.4,2l-1-0.7c-11,7.4-23.3,12.8-36.2,15.9c-3.7,0.8-7.4,1.4-11.2,1.8l2.2,1.6l-8.3,0.7l-2.9-2c-9.5-0.4-18-3-24.6-7.6
			S60.4,289,56.5,280.2l-2.7-1.9l-1.6-8.2l0.9,0.6c-1.2-4.1-2-8.3-2.6-12.6c-1.6-12.6-1-25.3,1.7-37.7l-2-1.4l1.4-2l1.2,0.8
			c1-4,2.2-7.9,3.6-11.7l-1.9-1.3c1.3-3.5,2.9-6.9,4.7-10.1l2,1.4c1.9-3.5,4.2-6.8,6.8-9.8c8.4-9.6,23.3-24.1,39.9-39.6l-0.9-0.6
			l1.4-2l1.3,0.9c3.8-3.5,7.7-7.1,11.6-10.7l-4.8,4.3l-0.8-0.8c-0.3-0.3-0.6-0.6-0.9-0.9c-20,18.4-38.9,36.5-48.8,47.8
			c-14.5,16.6-21.8,46.3-18.1,73.8c2.5,19.1,10.1,34.2,21.3,42.8c0.5-0.5,1.1-0.8,1.8-0.8c0.3,0,0.6,0.1,0.8,0.1
			c0.2,0.1,0.4,0.2,0.6,0.3c1,0.7,1.4,2,0.8,3.1C80.8,308.4,89.9,310.6,100,310.6"/>
		<path class="st0" d="M60.1,198.3l111.2,76.3c-1.3,1.5-2.8,3-4.4,4.5L57.5,204C58.3,202,59.2,200.2,60.1,198.3 M167.2,282.3
			c2.8-2.5,5.4-5.2,7.8-8l-1.8-1.2l-112-76.9l-2-1.4c-1.8,3.3-3.4,6.7-4.7,10.1l2,1.3l109,74.8L167.2,282.3"/>
		<path class="st0" d="M100.1,310.2l8.3-0.7l-2.2-1.6l-5.1-3.6c-1.5,0.4-3,0.6-4.5,0.8l-0.3-2.4c0,0,0.8-0.1,2-0.3L61,276.3
			c0.2,1.6,0.5,2.4,0.5,2.5l-2.4,0.6c-0.4-1.6-0.7-3.3-0.9-5l-5.2-3.6l-0.9-0.6l1.6,8.2l2.7,1.9l40.7,28L100.1,310.2"/>
		<path class="st0" d="M154.7,291l1.4-2l-0.3-0.2l-103-70.9l-1.2-0.8l-1.4,2l2,1.4l15.9,10.9l0.8-1.3l2.1,1.3
			c-0.3,0.5-0.6,1-0.9,1.5l66.6,45.9l1.1-1.3l1.9,1.5l-1,1.2l14.9,10.2L154.7,291"/>
		<path class="st0" d="M96.6,305.2c1.5-0.2,3-0.5,4.5-0.8c7.6-1.8,23.7-7.5,37.7-24.3l1-1.2l-1.9-1.5l-1.1,1.3
			c-15,17.8-32.6,22.6-38.4,23.8c-1.3,0.2-2,0.3-2,0.3L96.6,305.2"/>
		<path class="st0" d="M59.1,279.4l2.4-0.6c0,0-0.2-0.9-0.5-2.5c-0.9-6.3-2.1-23.9,9.1-43.5c0.3-0.5,0.6-1,0.9-1.5l-2.1-1.3
			l-0.8,1.3c-10.7,18.5-10.7,35-9.8,43C58.4,276.1,58.7,277.8,59.1,279.4"/>
		<polygon class="st0" points="204.1,212.9 205.5,210.9 204.3,210.1 109.7,145 108.4,144.1 107,146.1 107.9,146.7 125,158.5 
			125.5,157.8 127.5,159.2 127,159.9 184.2,199.2 184.6,198.5 186.7,199.9 186.2,200.6 203.3,212.4 		"/>
		<polygon class="st0" points="147.8,255.4 186.2,200.6 186.7,199.9 184.6,198.5 184.2,199.2 145.8,254 		"/>
		<polygon class="st0" points="88.6,214.7 127,159.9 127.5,159.2 125.5,157.8 125,158.5 86.6,213.3 		"/>
		<path class="st0" d="M190.5,95.6c0.9,0,1.8,0.3,2.6,0.8l28,19.2c2,1.3,2.5,4,1.3,6l-36.6,58c-0.7,1-1.7,1.8-2.9,2
			c-0.3,0.1-0.6,0.1-0.9,0.1c-0.9,0-1.8-0.3-2.6-0.8L146,158c-1-0.7-1.7-1.8-1.9-3c-0.2-1.2,0.1-2.4,0.9-3.4l42-54.2
			C187.8,96.3,189.2,95.6,190.5,95.6 M182,184.2c0.5,0,0.9,0,1.4-0.1c1.9-0.4,3.5-1.5,4.5-3.1l36.6-58c2-3.1,1.1-7.3-2-9.3l-28-19.2
			c-0.5-0.3-1.1-0.6-1.6-0.8c-0.8-0.3-1.6-0.4-2.4-0.4c-2.1,0-4.2,1-5.5,2.7l-42,54.2c-1.2,1.5-1.6,3.4-1.3,5.3
			c0.3,1.9,1.4,3.6,2.9,4.6l33.4,23C179.1,183.8,180.5,184.2,182,184.2"/>
		<path class="st0" d="M242.2,110.3l-0.3,0.4l-51.5-35.5l0.3-0.4l2.8-4l2.1,1.4l2.9-4.2l2.3,1.6L204,65c0.4-0.5,0.9-0.8,1.6-0.8
			c0.2,0,0.4,0,0.7,0.1c0.2,0.1,0.3,0.1,0.4,0.2l39.6,27.3c0.9,0.6,1.1,1.8,0.5,2.6c0,0,0,0,0,0l-3.2,4.6l2.3,1.6l-2.9,4.2l2.1,1.4
			L242.2,110.3 M242.6,114l0.3-0.4l1.1-1.6l0.3-0.4l2.8-4l1.4-2l-2-1.4l0,0l1.5-2.2l1.4-2l-2-1.4l-0.3-0.2l1.8-2.6
			c0.7-0.9,0.9-2.1,0.7-3.2c-0.2-1.1-0.9-2.1-1.8-2.8l-39.6-27.3c-0.7-0.5-1.6-0.8-2.5-0.8c-1.4,0-2.8,0.7-3.6,1.8l-1.8,2.6L200,66
			l-2-1.4l-1.4,2l-1.5,2.2l0,0l-2-1.4l-1.4,2l-2.8,4l-0.3,0.4l-1.4,2l0.2,0.1l1.9,1.3l51.5,35.5l2,1.4"/>
		<path class="st0" d="M58.7,323.3c0.8,0,1.5-0.4,2-1l12.6-18c0.8-1.1,0.5-2.6-0.6-3.4c0,0,0,0,0,0c-0.2-0.1-0.4-0.2-0.6-0.3
			c-0.3-0.1-0.6-0.1-0.8-0.1c-0.7,0-1.4,0.3-1.8,0.8l-0.2,0.2l-12.6,18c-0.8,1.1-0.5,2.6,0.6,3.4c0,0,0,0,0,0
			C57.7,323.1,58.2,323.3,58.7,323.3"/>
		<path class="st0" d="M289.5,98c4,14.7,1.7,38.5-10.6,56.7c-8,11.3-17.1,21.7-27.4,31c-12.4,10.9-23.3,16.4-32.5,16.4
			c-2.4,0-4.9-0.4-7.2-1.2l-0.8-0.3h-0.1l25.3-62.8l8.5-21c4.2,1.2,8.6,1.8,13,1.8c13.1,0,23.1-6.6,31.8-20.5 M218.8,204.6
			c28.6,0,61.7-47.9,62-48.4c11.9-17.5,16.3-43.8,10.1-61.4l-0.9-2.5l-1.3,2.3c-9.8,16.9-20.7,21.7-31.3,21.7
			c-4.1-0.1-8.3-0.7-12.3-1.8l-1-0.3l-1.1-0.3l-9.2,22.9l-26.2,65.1h0.1l1,0.5c0.4,0.2,0.8,0.4,1.3,0.5
			C212.8,204,215.8,204.6,218.8,204.6"/>
		<path class="st0" d="M119.7,132.5l-3,2.7c-20.7-22.1,19.2-78.5,19.6-79.1c12.5-17.4,30.9-28.4,49.9-29.7
			c-13.3,16.9-13.9,31.5-2,48.2l-28.1,25.2L119.7,132.5 M116.6,138.6l4.8-4.3l36.4-32.7l29.6-26.6l-0.6-0.9l-0.5-0.7
			c-8.4-11.7-14.1-26.4,3.5-47.5l1.7-2.1l-2.7,0.1c-20.6,0.5-41,12-54.5,30.9c-0.4,0.6-41.5,58.6-19.4,82.2c0.3,0.3,0.6,0.6,0.9,0.9
			L116.6,138.6"/>
		<path class="st0" d="M176.4,134.9c3.1,0,6.1,0.9,8.6,2.7c3.3,2.2,5.5,5.7,6.2,9.5c0.7,3.8-0.1,7.8-2.4,11c-2.8,4-7.4,6.4-12.2,6.3
			c-3.1,0-6.1-0.9-8.6-2.7c-6.7-4.5-8.5-13.6-4-20.4C166.8,137.3,171.4,134.9,176.4,134.9 M176.7,166.5c5.5,0,10.7-2.6,13.9-7.1
			c2.6-3.6,3.5-8.2,2.7-12.6c-0.8-4.4-3.4-8.3-7.1-10.9c-2.9-2-6.3-3.1-9.8-3c-9.2-0.1-16.8,7.3-16.9,16.5
			c-0.1,5.6,2.7,10.9,7.4,14.1C169.8,165.5,173.2,166.5,176.7,166.5"/>
		<path class="st0" d="M90.7,258c3,0,5.8,0.9,8.3,2.6c3.1,2.1,5.3,5.4,6,9.2c0.7,3.7-0.1,7.5-2.3,10.6c-2.7,3.8-7.1,6-11.7,6
			c-3,0-5.8-0.9-8.3-2.6c-6.4-4.4-8.1-13.1-3.8-19.6c2.1-3.2,5.5-5.3,9.3-6C89,258.1,89.8,258,90.7,258 M90.9,288.4
			c5.3,0,10.3-2.5,13.3-6.9c2.5-3.5,3.4-7.9,2.6-12.1c-0.8-4.2-3.3-8-6.8-10.4c-1.2-0.8-2.5-1.5-3.8-2c-1.8-0.7-3.7-1-5.6-1
			c-1,0-1.9,0.1-2.9,0.2c-8.7,1.4-14.6,9.6-13.2,18.4c0.7,4.4,3.2,8.3,6.9,10.7C84.3,287.3,87.6,288.3,90.9,288.4"/>
		<path class="st0" d="M165.7,151.3L165.7,151.3c0.6,0,1-0.4,1-1c0,0,0,0,0-0.1c-0.1-2.2,0.5-4.3,1.7-6.1c1.5-2.1,3.8-3.6,6.4-4
			c2.6-0.5,5.3,0.1,7.4,1.6c0.2,0.1,0.4,0.2,0.6,0.2c0.6,0,1-0.4,1-1c0-0.3-0.2-0.7-0.5-0.9c-0.9-0.6-1.8-1.1-2.8-1.4
			c-1.3-0.5-2.7-0.7-4.1-0.7c-0.7,0-1.4,0.1-2.1,0.2c-3.1,0.5-5.9,2.3-7.7,4.8c-1.5,2.1-2.3,4.8-2.1,7.4
			C164.6,150.9,165.1,151.3,165.7,151.3C165.6,151.3,165.7,151.3,165.7,151.3"/>
		<path class="st0" d="M170.4,159.5c0.6,0,1-0.4,1-1c0-0.3-0.2-0.7-0.5-0.9c-1.6-1.1-2.9-2.7-3.6-4.5c-0.1-0.3-0.3-0.5-0.6-0.6
			c-0.2-0.1-0.5-0.1-0.7,0c-0.5,0.2-0.8,0.8-0.6,1.3c0,0,0,0,0,0c0.9,2.2,2.4,4.1,4.4,5.4C170,159.5,170.2,159.5,170.4,159.5"/>
		<path class="st0" d="M80,273.7L80,273.7c0.6,0,1-0.4,1-1c0,0,0,0,0-0.1c-0.1-2.2,0.5-4.3,1.7-6.1c1.5-2.1,3.8-3.6,6.4-4
			c2.6-0.5,5.3,0.1,7.4,1.6c0.2,0.1,0.4,0.2,0.6,0.2c0.6,0,1-0.4,1-1c0-0.3-0.2-0.7-0.5-0.9c-0.9-0.6-1.8-1.1-2.8-1.4
			c-1.3-0.5-2.7-0.7-4.1-0.7c-0.7,0-1.4,0.1-2.1,0.2c-3.1,0.5-5.9,2.3-7.7,4.8c-1.5,2.1-2.3,4.8-2.1,7.4
			C78.9,273.3,79.4,273.8,80,273.7C79.9,273.8,79.9,273.8,80,273.7"/>
		<path class="st0" d="M84.7,282c0.6,0,1-0.4,1-1c0-0.3-0.2-0.7-0.5-0.9c-1.6-1.1-2.9-2.7-3.6-4.5c-0.1-0.3-0.3-0.5-0.6-0.6
			c-0.1,0-0.2-0.1-0.4-0.1c-0.1,0-0.2,0-0.4,0.1c-0.5,0.2-0.8,0.8-0.6,1.3c0,0,0,0,0,0c0.9,2.2,2.4,4.1,4.4,5.4
			C84.3,281.9,84.5,282,84.7,282"/>
		<path class="st0" d="M269.1,243.1l1.6-1.4c-0.7,0-1.5,0-2.2,0.1l-0.2-2.4l0.6-0.1c-2.8-2.9-6-5.5-9.4-7.7c-1,0.2-2,0.4-3,0.6
			l-0.3-1.2l-0.6,1C260.7,235,265.3,238.7,269.1,243.1"/>
		<path class="st0" d="M337.6,276.1c0.7-0.5,1.5-0.9,2.2-1.3c-3.3-14.1-12-26-25.2-34.6c-4.7-3-9.8-5.5-15.1-7.4
			c-8.7-3.1-17.8-4.7-27-4.7c-5.4,0-10.7,0.6-16,1.7l0.4,0.2l-0.6,1l0.3,1.2c1-0.2,2-0.4,3-0.6c18.6-3.2,37.7,0.6,53.7,10.6
			C326.1,250.6,334.5,262.3,337.6,276.1"/>
		<path class="st0" d="M255.7,232.1L255.7,232.1l0.6-1l0.6-1l-0.4-0.2c-3-1.7-6.2-3.2-9.5-4.4c-7.1-2.5-14.6-3.8-22.1-3.8
			c-8.7-0.1-17.3,1.8-25.2,5.4c-1,0.5-2,1-3,1.5l1.2,2.1l0.2-0.1c8.2-4.3,17.4-6.5,26.7-6.4c10.8-0.1,21.4,2.7,30.8,8"/>
		<path class="st0" d="M248.7,314.3c13.9,0,28-7.2,32.4-25c5.7-23.3-2.2-38.8-9.9-47.7h-0.4l-1.6,1.4c10.6,12.1,13.9,27.9,9.5,45.7
			c-4,16.5-17.1,23.1-30.1,23.1c-2.9,0-5.7-0.4-8.5-1c-15.1-3.4-29.5-16.2-25.5-36.1c4.3-21.3,17.3-32.1,27.6-37.4l-0.5-0.2l0.4-1.1
			l-0.4,1.3c-0.8-0.3-1.7-0.6-2.6-0.9c-10.4,5.9-22.7,17.1-26.9,38c-4.3,21.5,11.1,35.3,27.4,38.9
			C242.5,314,245.6,314.3,248.7,314.3"/>
		<path class="st0" d="M189.3,249.8l0.4-0.6c7.8-10.7,20.9-15.3,33.6-15.3c5.3,0,10.7,0.8,15.8,2.4c0.9,0.3,1.7,0.6,2.6,0.9l0.4-1.1
			l0.4-1.1l-0.9-0.3c-5.9-2.1-12.1-3.1-18.4-3.1c-10.8,0-21.9,3.1-30.2,10.3c-2.1,1.8-3.9,3.9-5.6,6.1l-0.3,0.4l0.1,0.1L189.3,249.8
			"/>
		<path class="st0" d="M326.2,286.9l0.2-0.3c0.7-1,1.5-2,2.3-2.9c-0.4-10.9-5.2-21.1-13.2-28.5c-5.8-5.4-12.7-9.5-20.2-12.1
			c-7.1-2.5-14.5-3.9-22-3.9c-1.4,0-2.9,0.1-4.3,0.2h-0.6l0.2,2.4c0.7-0.1,1.4-0.1,2.2-0.1h0.4c0.7,0,1.5,0,2.2,0
			c14.9,0,30.4,5.8,40.4,15.3C322.1,264.6,326.7,275.6,326.2,286.9"/>
		<path class="st0" d="M253.4,243.9c0.7-0.2,1.4-0.5,2.1-0.7l0.7-0.2c-4-3.5-8.6-6.2-13.6-8.1l-0.4,1.1l-0.5,1.2l0.5,0.2
			C246.2,239,250,241.2,253.4,243.9"/>
		<path class="st0" d="M255.5,245.7c9.7,9,13.5,22,10.9,36.7c-1.6,10-10.2,17.4-20.3,17.3c-1.1,0-2.3-0.1-3.4-0.3
			c-1-0.2-2-0.4-3-0.8c-7.2-2.6-13.8-10.2-11.4-24.6C231.2,255.9,246.3,248.6,255.5,245.7 M246.1,302.3c11.3,0.1,20.9-8.2,22.7-19.3
			c2.8-15.8-1.5-29.8-12.2-39.5l-0.5-0.5l0,0l-0.7,0.2c-0.7,0.2-1.4,0.4-2.1,0.7c-15.3,5.1-25.3,15.9-27.5,29.8
			c-2.9,18.2,7,26.6,16.4,28.2C243.6,302.1,244.8,302.2,246.1,302.3"/>
		<path class="st0" d="M358.2,272.7c7.5,0,14.8,2.3,21,6.5c16.6,11.4,20.9,34,9.5,50.3c-2.7,3.9-6.1,7.2-10,9.7
			c-5.9,3.7-12.7,5.7-19.6,5.7c-4.3,0-8.5-0.7-12.5-2.2c-3-1.1-5.9-2.6-8.6-4.4c-3.9-2.7-7.3-6.1-10-10.1l-0.5-0.8
			c-7.6-12.1-7.3-27.7,0.9-39.4C335.2,278.4,346.4,272.6,358.2,272.7 M359,347.3c5.4,0,10.8-1.1,15.8-3.3l2.7-3.6
			c0.3-0.4,0.9-0.6,1.4-0.4c0.1,0,0.2,0.1,0.3,0.2l0,0l0.2,0.1h0.1l1.2,0.5c3.9-2.6,7.3-6,10-9.8c12.2-17.3,7.7-41.4-10.1-53.6
			c-12.1-8.3-27.8-9.3-40.9-2.4c-0.8,0.4-1.5,0.8-2.2,1.3c-3.4,2.1-6.4,4.7-8.9,7.6c-0.8,0.9-1.5,1.9-2.3,2.9l-0.2,0.3
			c-5.3,7.7-7.5,17-6.3,26.3l2.3,1.8c0.5,0.4,0.6,1.2,0.2,1.7c-0.2,0.3-0.6,0.5-1,0.5c-0.3,0-0.5-0.1-0.8-0.3l-0.2-0.2
			c1,4.2,2.6,8.3,4.9,12l0.5,0.8c1.2,1.8,2.5,3.5,4,5.1c0.2-0.5,0.6-0.8,1.1-0.8l0,0c0.7,0,1.2,0.5,1.2,1.2v1.9
			c1.3,1.2,2.7,2.3,4.2,3.3C343.1,344.9,350.9,347.4,359,347.3"/>
		<path class="st0" d="M351.8,367.6c1.4,0,2.8-0.2,4.2-0.5c-0.1-0.2-0.3-0.3-0.4-0.4c-0.5-0.5-0.4-1.2,0-1.7c0,0,0,0,0,0
			c0.2-0.2,0.5-0.3,0.8-0.3c0.3,0,0.7,0.1,0.9,0.4c0.4,0.4,0.7,0.8,1,1.3c2.6-1.1,5-2.9,6.7-5.2l4.6-6.1l0,0c-0.6-0.3-0.9-1-0.6-1.6
			c0,0,0,0,0,0c0.2-0.4,0.6-0.7,1.1-0.7c0.2,0,0.4,0,0.5,0.1l0.5,0.2l7.8-10.4l-0.3-0.1c-0.6-0.3-0.9-1-0.7-1.6
			c0.2-0.5,0.6-0.8,1.1-0.8h0.2l0,0c-0.1-0.1-0.2-0.1-0.3-0.2c-0.1,0-0.3-0.1-0.4-0.1c-0.4,0-0.8,0.2-1,0.5l-2.7,3.6l-11.7,15.6
			c-3,3.9-7.9,6-12.8,5.5l-7-0.7c-5.3-0.6-9.7-4.5-10.8-9.8l-0.2-17.6v-2c0-0.7-0.6-1.2-1.2-1.2l0,0c-0.5,0-1,0.3-1.1,0.8
			c-0.1,0.1-0.1,0.3-0.1,0.4l0.1,5.9l1.5,1.3c0.5,0.4,0.6,1.2,0.2,1.7c0,0,0,0,0,0c-0.2,0.3-0.6,0.5-1,0.5c-0.3,0-0.6-0.1-0.8-0.3
			l0,0l0.1,10.7c0.5,2.8,1.8,5.4,3.8,7.4c0.1-0.5,0.6-0.9,1.2-0.9c0.1,0,0.2,0,0.3,0h0.2c0.6,0.2,0.9,0.8,0.8,1.4
			c-0.1,0.4-0.2,0.9-0.3,1.3c1.7,1.2,3.6,2,5.6,2.5c0-0.2,0-0.5,0-0.7c0-0.7,0.5-1.2,1.2-1.3c0,0,0,0,0,0l0,0c0.7,0,1.2,0.5,1.2,1.1
			c0,0.4,0,0.8,0,1.2l2.8,0.3c-0.1-0.6,0.2-1.2,0.8-1.4c0.1,0,0.3-0.1,0.4-0.1c0.1,0,0.3,0,0.4,0.1c0.3,0.1,0.6,0.4,0.7,0.7
			c0,0.1,0.2,0.4,0.3,1l0.6,0.1C350.6,367.6,351.1,367.6,351.8,367.6"/>
		<path class="st0" d="M349.5,382.9c0.5,0,0.9-0.3,1.1-0.8c1.9-4.5-0.3-12-1.2-14.7c-0.2-0.5-0.3-0.9-0.3-1c-0.2-0.6-0.9-1-1.6-0.7
			c-0.6,0.2-0.9,0.8-0.8,1.4c0,0,0,0.1,0,0.1c1.2,3.3,1.9,6.7,2.1,10.2c0.5,0.4,1.1,0.9,1.5,1.5c0.4,0.5,0.4,1.3-0.1,1.7
			c0,0,0,0,0,0c-0.2,0.2-0.5,0.3-0.8,0.3c-0.4,0-0.7-0.1-0.9-0.4c-0.1,0.2-0.1,0.4-0.2,0.6c-0.3,0.6,0,1.3,0.7,1.6c0,0,0,0,0,0
			C349.1,382.8,349.3,382.8,349.5,382.9"/>
		<path class="st0" d="M351.8,392.9c1.8,0,3.6-0.8,4.9-2.1c5-4.9,6.5-17.8,1.7-24.6c-0.3-0.4-0.6-0.9-1-1.3
			c-0.2-0.3-0.6-0.4-0.9-0.4c-0.7,0-1.2,0.6-1.2,1.2c0,0.3,0.1,0.6,0.3,0.8l0.4,0.4c4.6,5.7,3.4,17.7-1,22.1
			c-0.8,0.9-1.9,1.4-3.1,1.4c-1.5,0-3-0.8-4.7-2.4c-0.5-0.5-0.9-1.1-1.2-1.8c-0.7-2.7-0.1-7.1,0.6-7.4l0,0c0.1,0,0.7,0.1,1.9,1.6
			l0,0c0.4,0.5,1.2,0.6,1.7,0.1c0.5-0.4,0.6-1.2,0.2-1.7c0,0,0,0,0,0c-0.4-0.5-1-1-1.5-1.5c-0.6-0.6-1.5-0.9-2.3-1
			c-0.4,0-0.8,0.1-1.1,0.3c-3,1.4-2.3,8.4-1.9,10.1c0.4,1.1,1,2.2,1.8,3c2.5,2.3,4.6,3.1,6.4,3.1"/>
		<path class="st0" d="M330.7,344.4c0.4,0,0.8-0.2,1-0.5c0.4-0.5,0.3-1.3-0.2-1.7c0,0,0,0,0,0l-1.6-1.2l-25.6-20.1
			c-5.2-4.1-7.5-9.7-5.2-12.5c1-1.1,2.5-1.7,4-1.6c3.5,0.2,6.8,1.6,9.5,3.8l7.9,6.1l0.2,0.2c0.2,0.2,0.5,0.3,0.8,0.3
			c0.7,0,1.2-0.5,1.2-1.2c0-0.4-0.2-0.7-0.5-1l-2.3-1.8l-5.8-4.5c-1.8-1.5-3.9-2.6-6.1-3.4c-1.6-0.6-3.2-0.9-4.9-0.9
			c-2.3-0.1-4.5,0.8-6,2.5c-3.2,3.9-0.7,10.9,5.7,15.9l27.2,21.3l0,0C330.1,344.3,330.4,344.4,330.7,344.4"/>
		<path class="st0" d="M399.5,366.5c0.5,0,1.1,0,1.6-0.1c3.3-0.4,5.7-1.8,6.8-4.1c1.8-4-1.2-9.4-7-12.8c-0.8-0.5-1.6-0.9-2.5-1.3
			l-0.5-0.2l-17.1-7.2l-1.1-0.5h-0.1l-0.2-0.1h-0.2c-0.7,0-1.2,0.5-1.2,1.2c0,0.5,0.3,1,0.8,1.2l0.3,0.1l18.5,7.7
			c6,2.7,9.7,7.6,8.2,10.9c-0.7,1.5-2.4,2.5-4.8,2.8c-0.5,0-0.9,0.1-1.4,0.1c-2.6-0.1-5.1-0.6-7.4-1.7l-20.9-9.4l-0.5-0.2
			c-0.2-0.1-0.4-0.1-0.5-0.1c-0.5,0-0.9,0.3-1.1,0.7c-0.3,0.6,0,1.3,0.6,1.6l0,0l18.8,8.5l2.5,1.1l0.6,0.3
			C394.1,365.9,396.8,366.5,399.5,366.5"/>
		<path class="st0" d="M329.2,380.8c0.7,0,1.3-0.1,2-0.2c6.5-1.2,12.4-7.7,12.7-13.8c0-0.4,0-0.8,0-1.2c0-0.7-0.6-1.2-1.3-1.2l0,0
			c-0.7,0-1.2,0.6-1.2,1.3c0,0,0,0,0,0c0,0.2,0,0.5,0,0.7c-0.2,5-5.4,10.8-10.8,11.8c-0.5,0.1-1.1,0.1-1.6,0.1
			c-4.4,0-8.1-3.5-10.3-10.1c-1-3-0.9-5.2,0.5-5.6c0.2-0.1,0.4-0.1,0.7-0.1c1.4,0.1,2.7,0.9,3.3,2.2l0.5,1.1
			c0.8,1.9,1.4,3.5,2.8,4.3c1,0.6,2.1,1,3.3,1c0.6,0,1.3-0.1,1.8-0.4c1.9-0.9,3.3-3.1,4.3-6.7c0.1-0.4,0.2-0.8,0.3-1.3
			c0.1-0.6-0.2-1.2-0.8-1.4h-0.2H335c-0.6,0-1.1,0.4-1.2,0.9l0,0c-1,4.5-2.3,5.9-3.2,6.3c-0.3,0.1-0.6,0.2-0.9,0.2
			c-0.7,0-1.5-0.3-2.1-0.7c-0.6-0.4-1.2-1.7-1.7-3l-0.5-1.1c-1-2.2-3.1-3.6-5.6-3.7c-0.5,0-1,0.1-1.5,0.3c-1,0.4-4.2,2.1-1.9,8.7
			C319.9,379.2,325.6,380.9,329.2,380.8"/>
		<path class="st0" d="M346.3,351.1l6.9,1.2l-2.9,8l-6.5-1.2L346.3,351.1 M351.1,362.9c0.5,0,1-0.3,1.1-0.8l3.8-10.3
			c0.1-0.3,0.1-0.7-0.1-1c-0.1-0.2-0.4-0.4-0.6-0.5l-0.2,0l-9.5-1.6h-0.2c-0.5,0-1,0.3-1.2,0.8l-3.2,10.2c-0.1,0.3-0.1,0.7,0.1,1
			c0.2,0.3,0.5,0.5,0.8,0.6l8.9,1.6L351.1,362.9"/>
		<path class="st0" d="M353,309.6l-0.6-0.6c-0.2-0.2-0.5-0.3-0.9-0.3h-0.2c-0.1,0-0.2,0.1-0.4,0.1c0.2-0.1,0.4-0.1,0.6-0.1
			c0.3,0,0.6,0.1,0.9,0.3L353,309.6 M357.3,315.6L357.3,315.6 M357.4,315.6L357.4,315.6L357.4,315.6 M363.9,315.8
			c-0.6-0.2-1.1-0.4-1.7-0.6C362.7,315.4,363.3,315.6,363.9,315.8 M361.3,317.4c-1.3-0.5-2.6-1.1-3.8-1.8
			C358.7,316.3,360,316.9,361.3,317.4L361.3,317.4 M359.2,341.8c3,0,5.9-0.5,8.7-1.4c6.1-1.9,11.1-6.4,13.6-12.3
			c1.3-3.3,1.8-7,1.3-10.5c-0.2,0.2-0.4,0.3-0.7,0.4h-0.1c-2.5,1.4-5.4,2-8.3,1.9l0,0c2.3,0,4.5-0.3,6.6-1.1
			c0.3,2.8-0.2,5.7-1.3,8.4c-2.2,5.3-6.7,9.2-12.1,10.9c-2.6,0.8-5.2,1.3-7.9,1.3c-3.2,0-6.4-0.6-9.4-1.7l-1.1-0.4
			c-7.8-3.2-13.6-9.4-15.5-16.6c1.1,0.4,2.2,0.6,3.4,0.6c4,0,8.6-2,12.3-5.7c1.1-1.1,2.1-2.4,3-3.8c-0.4-0.3-0.8-0.7-1.2-1
			c-0.4-0.4-0.5-0.9-0.3-1.4c-0.9,1.7-2,3.2-3.3,4.5c-3.2,3.2-7.2,5-10.5,5c-1.6,0.1-3.1-0.4-4.3-1.4l-0.1-0.1
			c0.5,0.5,0.5,1.2,0.2,1.7c-0.2,0.3-0.6,0.5-0.9,0.5c-0.2,0-0.5-0.1-0.7-0.2l-0.4-0.3c1.4,8.9,8.1,16.7,17.4,20.5
			C351.4,341.1,355.3,341.8,359.2,341.8"/>
		<path class="st0" d="M331.3,319.6c0.4,0,0.7-0.2,1-0.5c0.4-0.5,0.3-1.3-0.2-1.7l-0.1-0.1c-3.3-3.2-1.9-9.9,3.1-15
			c3.1-3.1,9.1-4.2,13.1-4.2c0.8,0,1.7,0.1,2.5,0.2h0.2c0.4,0,0.8-0.2,1-0.5c2.3-3.1,6-4.8,9.9-4.7c2.6,0,5.1,0.6,7.4,1.8
			c9.6,4.8,15.6,14.3,13.8,18.8c-0.4,1-1.2,1.9-2.1,2.4l0,0l0,0c0.2-0.1,0.4-0.2,0.6-0.2c0.4,0,0.8,0.2,1.1,0.6
			c0.4,0.6,0.2,1.3-0.4,1.7c0,0,0,0,0,0H382h0.1c0.2-0.1,0.5-0.3,0.7-0.5c1.1-0.8,1.9-1.8,2.4-3.1c2.5-6.1-4.8-16.8-15-21.9
			c-0.7-0.3-1.4-0.6-2.1-0.9c-2-0.7-4.2-1.1-6.3-1.1c-4.4-0.1-8.6,1.7-11.4,5.1c-0.7-0.1-1.4-0.1-2.1-0.1c-4.6,0-11.3,1.3-14.9,4.9
			c-6,6-7.4,14.3-3.1,18.4l0,0l0.4,0.3C330.7,319.4,331,319.5,331.3,319.6"/>
		<path class="st0" d="M373.8,320.1c2.9,0.1,5.7-0.6,8.3-1.9h0.1c0.6-0.3,0.7-1.1,0.4-1.7c0,0,0,0,0,0c-0.1-0.2-0.4-0.4-0.6-0.5
			c-0.1,0-0.3-0.1-0.4-0.1c-0.2,0-0.5,0.1-0.6,0.2l0,0c-2.1,1.1-4.5,1.7-6.9,1.6c-3.4-0.1-6.8-0.7-10-1.8c-0.6-0.2-1.1-0.4-1.7-0.6
			l0,0c-3.4-1.3-6.5-3.2-9.2-5.6l-0.6-0.6c-0.2-0.2-0.5-0.3-0.9-0.3c-0.2,0-0.4,0-0.6,0.1c-0.1,0.1-0.2,0.1-0.3,0.2
			c-0.1,0.1-0.2,0.2-0.2,0.3c-0.2,0.5-0.1,1,0.3,1.4c0.4,0.4,0.8,0.7,1.2,1.1c1.7,1.4,3.5,2.7,5.5,3.7l0,0h0h0.1l0,0
			c1.2,0.7,2.5,1.3,3.8,1.8c3.8,1.6,8,2.5,12.1,2.6L373.8,320.1"/>
		<path class="st0" d="M349,322c1.8,0,3.4,1.3,3.8,3.1c0.2,1,0,2-0.6,2.8c-0.6,0.8-1.4,1.4-2.4,1.5c-0.2,0-0.4,0.1-0.7,0.1
			c-2.1,0-3.8-1.7-3.8-3.8c0,0,0,0,0,0c-0.7-1.1-0.3-2.5,0.8-3.1c0.4-0.2,0.8-0.3,1.2-0.3h0.3c0.3-0.1,0.5-0.2,0.8-0.2
			C348.6,322,348.8,322,349,322 M349.1,331.9c0.4,0,0.7,0,1.1-0.1c1.6-0.3,3.1-1.2,4-2.5c0.9-1.3,1.3-3,1-4.6
			c-0.3-1.6-1.2-3.1-2.6-4c-0.5-0.3-0.9-0.6-1.5-0.8c-0.7-0.2-1.4-0.4-2.1-0.4c-0.4,0-0.7,0-1.1,0.1c-1.6,0.3-3.1,1.2-4,2.5
			c-0.9,1.3-1.3,3-1,4.6c0.3,1.6,1.2,3.1,2.6,4C346.6,331.6,347.9,331.9,349.1,331.9"/>
		<path class="st0" d="M365.2,321.8c0.8,0,1.5,0.2,2.2,0.7c1.7,1.2,2.1,3.5,1,5.2c-0.7,1-1.9,1.6-3.1,1.6c-0.4,0-0.9-0.1-1.3-0.2
			c-0.3-0.1-0.6-0.3-0.9-0.5c-1.1-0.7-1.7-2-1.6-3.3c-0.3-0.6-0.4-1.2-0.1-1.9c0.3-0.9,1.2-1.5,2.2-1.5c0.2,0,0.4,0,0.6,0.1
			C364.4,321.9,364.8,321.8,365.2,321.8 M365.3,331.8c3.4,0,6.2-2.7,6.2-6c0-2.1-1-4-2.7-5.2c-1.1-0.7-2.3-1.1-3.6-1.1
			c-2,0-3.9,1-5.1,2.6l0,0c-1.9,2.8-1.2,6.6,1.6,8.6c0,0,0,0,0,0C362.8,331.4,364,331.7,365.3,331.8"/>
		<path class="st0" d="M358.3,337.9c1.7,0,3.3-0.6,4.4-1.8c0.5-0.5,0.5-1.2,0-1.7c0,0,0,0,0,0c-0.2-0.2-0.6-0.4-0.9-0.4
			c-0.3,0-0.6,0.1-0.9,0.4c-0.7,0.7-1.7,1.1-2.7,1.1c-1.4,0-2.8-0.6-3.8-1.6c-0.5-0.5-1.3-0.5-1.7,0c-0.5,0.5-0.5,1.2,0,1.7
			c0,0,0,0,0,0C354.3,337,356.3,337.9,358.3,337.9"/>
		<path class="st0" d="M376.8,283.9c0.7,0,1.2-0.5,1.2-1.2c0-0.4-0.2-0.8-0.5-1c-5.7-3.9-12.4-6-19.3-6c-6.1,0-12,1.6-17.2,4.7
			c-0.6,0.3-0.8,1.1-0.4,1.6c0,0,0,0,0,0c0.2,0.4,0.6,0.6,1.1,0.6c0.2,0,0.4-0.1,0.6-0.2c4.8-2.9,10.4-4.4,16-4.4
			c6.4,0,12.6,1.9,17.9,5.5C376.4,283.8,376.6,283.9,376.8,283.9"/>
		<path class="st0" d="M332,291.7c0.4,0,0.8-0.2,1-0.5c1.2-1.7,2.5-3.3,4.1-4.7c0.5-0.5,0.5-1.2,0-1.7c0,0,0,0,0,0
			c-0.1-0.1-0.3-0.2-0.5-0.3c-0.1,0-0.3-0.1-0.4-0.1c-0.3,0-0.6,0.1-0.8,0.3c-1.6,1.5-3.1,3.2-4.4,5.1c-0.4,0.6-0.2,1.3,0.3,1.7
			c0,0,0,0,0,0C331.5,291.6,331.7,291.7,332,291.7"/>
		<path class="st0" d="M363.5,326.5c1.3,0,2.3-1,2.3-2.3c0-1-0.6-1.8-1.5-2.1l-0.2-0.1c-0.2,0-0.4-0.1-0.6-0.1c-1,0-1.8,0.6-2.2,1.5
			c-0.2,0.6-0.2,1.3,0.1,1.9C361.9,326.1,362.7,326.6,363.5,326.5"/>
		<path class="st0" d="M347.3,326.9c1.3,0,2.3-1,2.3-2.3c0-1-0.6-1.8-1.5-2.1c-0.1-0.1-0.3-0.1-0.5-0.1h-0.3c-1,0-1.8,0.6-2.2,1.5
			c-0.2,0.6-0.2,1.4,0.2,1.9C345.7,326.5,346.4,326.9,347.3,326.9"/>
		<path class="st0" d="M322.4,402.7c-17.6,13.4-57.5,31.7-90.4,31.7c-1.4,0-2.8,0-4.1-0.1l0,0c-10.4-0.1-19-7.9-20.3-18.2
			c-1.2-11,6.8-20.9,17.8-22.1c0.1,0,0.2,0,0.3,0c0.7-0.1,1.4-0.1,2.1-0.1c3,0,6,0.7,8.8,1.9c16.4,8.5,35,11.7,51.8,11.7
			C299.8,407.6,311.3,406,322.4,402.7 M232,436.9c37.4,0,83.7-23.4,97.4-36.9l4.8-4.8l-6.1,2.7c-9.1,4-23.6,7.1-39.7,7.1
			c-16.4,0-34.6-3.1-50.7-11.5c-3.1-1.4-6.5-2.2-9.9-2.1c-0.8,0-1.5,0-2.3,0.1c-6,0.6-11.6,3.5-15.4,8.2c-3.8,4.6-5.6,10.6-4.9,16.6
			c1.4,11.5,11.1,20.3,22.7,20.4C229.1,436.9,230.5,436.9,232,436.9"/>
		<path class="st0" d="M228,398.6c8,0,14.7,5.9,15.6,13.9c0.9,8.4-5.2,15.9-13.5,16.8c-0.1,0-0.2,0-0.2,0c-0.5,0.1-1,0.1-1.6,0.1
			c-8,0-14.7-5.9-15.7-13.9c-0.9-8.4,5.2-15.9,13.5-16.8c0.1,0,0.2,0,0.2,0C227,398.7,227.5,398.6,228,398.6 M228.3,431.8
			c0.6,0,1.2,0,1.8-0.1c4.9-0.5,9.3-2.9,12.3-6.7h-1l-0.1-2.4l1.2-0.1l1.5-0.1c1.7-3.1,2.4-6.7,2-10.2c-0.1-1.2-0.4-2.3-0.7-3.5
			l-1.6-0.8l-1.1-0.5l1.1-2.1l0.1,0.1c-3.3-5.7-9.3-9.2-15.9-9.2c-0.6,0-1.2,0-1.8,0.1c-9.7,0.9-16.9,9.5-16,19.2c0,0.1,0,0.2,0,0.3
			C211.3,424.9,219.1,431.8,228.3,431.8"/>
		<path class="st0" d="M227.3,426.3c0.4,0,0.8,0,1.2-0.1c0.7-0.1,1.1-0.6,1.1-1.3c0,0,0,0,0,0c-0.1-0.6-0.6-1.1-1.2-1.1h-0.1
			c-0.3,0-0.7,0-1,0c-5,0-9.3-3.8-9.9-8.8c-0.6-5.3,3.3-10.1,8.6-10.7c0,0,0.1,0,0.1,0c0.7-0.1,1.1-0.6,1.1-1.3c0,0,0,0,0,0
			c-0.1-0.6-0.6-1.1-1.2-1.1h-0.1c-6.6,0.6-11.5,6.5-10.9,13.1c0,0.1,0,0.1,0,0.2C215.6,421.5,221,426.2,227.3,426.3"/>
		<path class="st0" d="M241.5,425.1h1h0.3c17.1-0.9,33.3-5.5,44-9l9.9-3.2l-10.5,0.8c-1.7,0.1-3.7,0.2-6,0.2
			c-12.3,0-24.4-2.7-35.4-8.1l-1-0.5l-0.1-0.1l-1,2.2l1.1,0.5l1.6,0.8c10.1,4.6,21.1,7.2,32.2,7.5c-10.9,3.2-22.1,5.3-33.4,6.2
			l-1.5,0.1l-1.2,0.1L241.5,425.1"/>
	</g>
</g>
</svg>
